<?xml version="1.0" encoding="UTF-8" standalone="no"?>
<!-- Created with Inkscape (http://www.inkscape.org/) -->

<svg
   xmlns:dc="http://purl.org/dc/elements/1.1/"
   xmlns:cc="http://creativecommons.org/ns#"
   xmlns:rdf="http://www.w3.org/1999/02/22-rdf-syntax-ns#"
   xmlns:svg="http://www.w3.org/2000/svg"
   xmlns="http://www.w3.org/2000/svg"
   xmlns:xlink="http://www.w3.org/1999/xlink"
   xmlns:sodipodi="http://sodipodi.sourceforge.net/DTD/sodipodi-0.dtd"
   xmlns:inkscape="http://www.inkscape.org/namespaces/inkscape"
   width="1920"
   height="1080"
   viewBox="0 0 1920 1080"
   version="1.1"
   id="svg1642"
   inkscape:version="0.92.5 (2060ec1f9f, 2020-04-08)"
   sodipodi:docname="drawing.svg"
   inkscape:export-filename="/home/mark/Public/Expose Modern/exmod.png"
   inkscape:export-xdpi="96"
   inkscape:export-ydpi="96">
  <defs
     id="defs1636">
    <linearGradient
       inkscape:collect="always"
       id="linearGradient835">
      <stop
         style="stop-color:#f3f3f3;stop-opacity:1"
         offset="0"
         id="stop831" />
      <stop
         style="stop-color:#babaff;stop-opacity:0"
         offset="1"
         id="stop833" />
    </linearGradient>
    <linearGradient
       inkscape:collect="always"
       id="linearGradient825">
      <stop
         style="stop-color:#28d53f;stop-opacity:1"
         offset="0"
         id="stop821" />
      <stop
         style="stop-color:#238530;stop-opacity:1"
         offset="1"
         id="stop823" />
    </linearGradient>
    <linearGradient
       inkscape:collect="always"
       xlink:href="#linearGradient825"
       id="linearGradient827"
       x1="1169.7566"
       y1="619.79681"
       x2="963.68549"
       y2="1396.5475"
       gradientUnits="userSpaceOnUse"
       gradientTransform="matrix(1,0,0,1.0257116,0,-28.057817)" />
    <radialGradient
       inkscape:collect="always"
       xlink:href="#linearGradient835"
       id="radialGradient837"
       cx="443.57446"
       cy="159.84491"
       fx="443.57446"
       fy="159.84491"
       r="960"
       gradientTransform="matrix(-0.07416788,0.66057728,-1.2963983,-0.14555616,495.03522,-102.35681)"
       gradientUnits="userSpaceOnUse" />
  </defs>
  <sodipodi:namedview
     id="base"
     pagecolor="#ffffff"
     bordercolor="#666666"
     borderopacity="1.0"
     inkscape:pageopacity="0.0"
     inkscape:pageshadow="2"
     inkscape:zoom="0.49497475"
     inkscape:cx="933.40342"
     inkscape:cy="557.33185"
     inkscape:document-units="px"
     inkscape:current-layer="layer1"
     showgrid="true"
     units="px"
     inkscape:showpageshadow="false"
     inkscape:snap-bbox="true"
     inkscape:bbox-paths="true"
     inkscape:bbox-nodes="true"
     inkscape:snap-page="true"
     inkscape:snap-global="false" />
  <metadata
     id="metadata1639">
    <rdf:RDF>
      <cc:Work
         rdf:about="">
        <dc:format>image/svg+xml</dc:format>
        <dc:type
           rdf:resource="http://purl.org/dc/dcmitype/StillImage" />
        <dc:title />
      </cc:Work>
    </rdf:RDF>
  </metadata>
  <g
     inkscape:label="Layer 1"
     inkscape:groupmode="layer"
     id="layer1"
     transform="translate(0,-11.249983)">
    <rect
       ry="3"
       y="11.249983"
       x="0"
       height="1080"
       width="1920"
       id="rect2208"
       style="opacity:1;fill:#6396fb;fill-opacity:1;stroke:none;stroke-width:1;stroke-linecap:butt;stroke-miterlimit:4;stroke-dasharray:none;stroke-opacity:1"
       inkscape:export-xdpi="96"
       inkscape:export-ydpi="96" />
    <rect
       style="opacity:0.4;fill:url(#radialGradient837);fill-opacity:1;stroke:none;stroke-width:1;stroke-linecap:butt;stroke-miterlimit:4;stroke-dasharray:none;stroke-opacity:1"
       id="rect829"
       width="1920"
       height="1080"
       x="4.5776367e-05"
       y="11.249983"
       ry="3"
       inkscape:export-xdpi="96"
       inkscape:export-ydpi="96" />
    <path
       style="opacity:1;fill:#1d9f70;fill-opacity:1;stroke:none;stroke-width:12;stroke-linecap:butt;stroke-miterlimit:4;stroke-dasharray:none;stroke-opacity:1"
       d="m 1606.6117,754.06573 c 0,0 89.4638,-61.65186 120.5889,-69.50901 27.8437,2.94381 114.0397,48.00429 144.9422,68.79472 16.1116,6.02502 47.8572,-15.74799 47.8572,-15.74799 l -10e-5,353.64655 h -309.8168 z"
       id="rect839"
       inkscape:connector-curvature="0"
       sodipodi:nodetypes="ccccccc" />
    <path
       style="opacity:1;fill:#45e75b;fill-opacity:1;stroke:none;stroke-width:1;stroke-linecap:butt;stroke-miterlimit:4;stroke-dasharray:none;stroke-opacity:1"
       d="m 0,688.36114 c 0,0 434.93393,-102.40445 619.79185,-104.92983 264.65997,0.50507 864.64435,126.82009 933.18915,145.9752 C 1612.068,744.93372 1920,852.90443 1920,852.90443 V 1091.25 H 0 Z"
       id="rect2206"
       inkscape:connector-curvature="0"
       sodipodi:nodetypes="ccccccc"
       inkscape:export-xdpi="96"
       inkscape:export-ydpi="96" />
    <path
       sodipodi:nodetypes="ccccccc"
       inkscape:connector-curvature="0"
       id="path819"
       d="m 0,707.59535 c 0,0 434.93393,-97.51558 619.79185,-99.9204 264.65997,0.48096 864.64435,120.7656 933.18915,139.00623 C 1612.068,761.46711 1920,864.28321 1920,864.28321 V 1091.25 H 0 Z"
       style="opacity:1;fill:url(#linearGradient827);fill-opacity:1;stroke:none;stroke-width:0.99999994;stroke-linecap:butt;stroke-miterlimit:4;stroke-dasharray:none;stroke-opacity:1"
       inkscape:export-xdpi="96"
       inkscape:export-ydpi="96" />
    <path
       inkscape:connector-curvature="0"
       id="path869"
       d="m 1486.0805,231.98024 a 50,50 0 0 0 -46.6953,32.28516 50,50 0 0 0 -9.0195,-0.85742 50,50 0 0 0 -50,50 50,50 0 0 0 50,50 50,50 0 0 0 10.4882,-1.17383 76.428574,58.57143 0 0 0 71.6543,38.31641 76.428574,58.57143 0 0 0 62.4082,-24.82032 50,50 0 0 0 6.8789,0.53516 50,50 0 0 0 47.7852,-35.30078 50,50 0 0 0 25.0703,-43.27149 50,50 0 0 0 -50,-50 50,50 0 0 0 -35.3242,14.65821 50,50 0 0 0 -30.3887,-10.3711 50,50 0 0 0 -11.8574,1.48243 50,50 0 0 0 -41,-21.48243 z"
       style="opacity:1;fill:#fce4f8;fill-opacity:1;stroke:none;stroke-width:12;stroke-linecap:butt;stroke-miterlimit:4;stroke-dasharray:none;stroke-opacity:1" />
    <path
       style="opacity:1;fill:#ffffff;fill-opacity:1;stroke:none;stroke-width:12;stroke-linecap:butt;stroke-miterlimit:4;stroke-dasharray:none;stroke-opacity:1"
       d="m 1482.2234,220.49781 a 50,50 0 0 0 -46.6953,32.28516 50,50 0 0 0 -9.0195,-0.85742 50,50 0 0 0 -50,50 50,50 0 0 0 50,50 50,50 0 0 0 10.4882,-1.17383 76.428574,58.57143 0 0 0 71.6543,38.31641 76.428574,58.57143 0 0 0 62.4082,-24.82032 50,50 0 0 0 6.8789,0.53516 50,50 0 0 0 47.7852,-35.30078 50,50 0 0 0 25.0703,-43.27149 50,50 0 0 0 -50,-50 50,50 0 0 0 -35.3242,14.65821 50,50 0 0 0 -30.3887,-10.3711 50,50 0 0 0 -11.8574,1.48243 50,50 0 0 0 -41,-21.48243 z"
       id="path842"
       inkscape:connector-curvature="0" />
    <path
       style="opacity:1;fill:#d2f9ec;fill-opacity:1;stroke:none;stroke-width:12;stroke-linecap:butt;stroke-miterlimit:4;stroke-dasharray:none;stroke-opacity:1"
       d="m 1727.1929,684.13848 c -11.1934,2.82563 -29.9348,12.61756 -49.3437,23.98828 3.5494,9.76368 87.489,13.34012 97.1445,-7.37109 -19.9819,-8.95476 -37.7213,-15.55152 -47.8008,-16.61719 z"
       id="rect873"
       inkscape:connector-curvature="0"
       sodipodi:nodetypes="cccc" />
  </g>
</svg>
