<?xml version="1.0" encoding="UTF-8" standalone="no"?>
<!-- Created with Inkscape (http://www.inkscape.org/) -->

<svg
   width="640"
   height="480"
   viewBox="0 0 640 480"
   version="1.1"
   id="svg5"
   inkscape:version="1.2.1 (9c6d41e410, 2022-07-14, custom)"
   sodipodi:docname="darkbox.svg"
   xmlns:inkscape="http://www.inkscape.org/namespaces/inkscape"
   xmlns:sodipodi="http://sodipodi.sourceforge.net/DTD/sodipodi-0.dtd"
   xmlns:xlink="http://www.w3.org/1999/xlink"
   xmlns="http://www.w3.org/2000/svg"
   xmlns:svg="http://www.w3.org/2000/svg">
  <sodipodi:namedview
     id="namedview7"
     pagecolor="#d2d2d2"
     bordercolor="#7b7b7b"
     borderopacity="1"
     inkscape:showpageshadow="0"
     inkscape:pageopacity="0"
     inkscape:pagecheckerboard="1"
     inkscape:deskcolor="#d0d0d0"
     inkscape:document-units="px"
     showgrid="false"
     shape-rendering="crispEdges"
     inkscape:zoom="1.5358305"
     inkscape:cx="221.37859"
     inkscape:cy="226.91306"
     inkscape:current-layer="layer1" />
  <defs
     id="defs2">
    <linearGradient
       inkscape:collect="always"
       id="linearGradient25956">
      <stop
         style="stop-color:#22231a;stop-opacity:1;"
         offset="0"
         id="stop25952" />
      <stop
         style="stop-color:#191a14;stop-opacity:1;"
         offset="1"
         id="stop25954" />
    </linearGradient>
    <linearGradient
       inkscape:collect="always"
       id="linearGradient24438">
      <stop
         style="stop-color:#e3e3e3;stop-opacity:1;"
         offset="0"
         id="stop24434" />
      <stop
         style="stop-color:#5e5e5e;stop-opacity:1;"
         offset="1"
         id="stop24436" />
    </linearGradient>
    <linearGradient
       inkscape:collect="always"
       id="linearGradient21255">
      <stop
         style="stop-color:#000000;stop-opacity:0;"
         offset="0"
         id="stop21251" />
      <stop
         style="stop-color:#000000;stop-opacity:0.06361236;"
         offset="0.24127251"
         id="stop21259" />
      <stop
         style="stop-color:#000000;stop-opacity:0.35108414;"
         offset="1"
         id="stop21253" />
    </linearGradient>
    <linearGradient
       inkscape:collect="always"
       id="linearGradient15922">
      <stop
         style="stop-color:#e6ebff;stop-opacity:0.83246076;"
         offset="0"
         id="stop15918" />
      <stop
         style="stop-color:#e6ebff;stop-opacity:0.77624816;"
         offset="0.06130565"
         id="stop15926" />
      <stop
         style="stop-color:#e6ebff;stop-opacity:0.21998215;"
         offset="1"
         id="stop15920" />
    </linearGradient>
    <linearGradient
       inkscape:collect="always"
       id="linearGradient12684">
      <stop
         style="stop-color:#ffffff;stop-opacity:0.72609103;"
         offset="0"
         id="stop12680" />
      <stop
         style="stop-color:#ffffff;stop-opacity:0.31374362;"
         offset="0.01497353"
         id="stop12812" />
      <stop
         style="stop-color:#ffffff;stop-opacity:0.18000001;"
         offset="0.97799385"
         id="stop12814" />
      <stop
         style="stop-color:#ffffff;stop-opacity:0.61366576;"
         offset="1"
         id="stop12682" />
    </linearGradient>
    <linearGradient
       inkscape:collect="always"
       xlink:href="#linearGradient12684"
       id="linearGradient12686"
       x1="718.08936"
       y1="310.7218"
       x2="718.08936"
       y2="790.7218"
       gradientUnits="userSpaceOnUse"
       gradientTransform="translate(2.8198242e-6)" />
    <linearGradient
       inkscape:collect="always"
       xlink:href="#linearGradient15922"
       id="linearGradient20498"
       gradientUnits="userSpaceOnUse"
       x1="163.74077"
       y1="433.5014"
       x2="163.74077"
       y2="543.89008"
       gradientTransform="translate(-9.9851367e-4)" />
    <linearGradient
       inkscape:collect="always"
       xlink:href="#linearGradient21255"
       id="linearGradient21257"
       x1="163.73978"
       y1="497.84751"
       x2="632.439"
       y2="497.84751"
       gradientUnits="userSpaceOnUse" />
    <linearGradient
       inkscape:collect="always"
       xlink:href="#linearGradient24438"
       id="linearGradient24440"
       x1="163.73978"
       y1="433.5014"
       x2="163.73978"
       y2="667.9425"
       gradientUnits="userSpaceOnUse" />
    <linearGradient
       inkscape:collect="always"
       xlink:href="#linearGradient25956"
       id="linearGradient25958"
       x1="632.43903"
       y1="433.5014"
       x2="632.43903"
       y2="667.9425"
       gradientUnits="userSpaceOnUse" />
  </defs>
  <g
     inkscape:label="Layer 1"
     inkscape:groupmode="layer"
     id="layer1"
     transform="translate(-78.089386,-310.7218)">
    <rect
       style="fill:url(#linearGradient12686);fill-opacity:1;stroke:none;stroke-width:2.48922;stroke-opacity:0.937255;opacity:0.12"
       id="rect4418"
       width="640"
       height="480"
       x="78.089386"
       y="310.7218"
       ry="10.591667" />
    <path
       id="path24432"
       style="fill:url(#linearGradient24440);fill-opacity:1;stroke:none;stroke-width:1.49458;stroke-opacity:0.937255"
       d="m 169.72513,433.04063 c -3.82617,0 -6.90592,3.07976 -6.90592,6.90592 v 221.5505 c 0,3.82617 3.07975,6.90592 6.90592,6.90592 h 456.72656 c 3.82626,0 6.90788,-3.07974 6.90788,-6.90592 v -221.5505 c 0,-3.82615 -3.08165,-6.90592 -6.90788,-6.90592 z" />
    <path
       id="rect9739"
       style="fill:url(#linearGradient25958);fill-opacity:1;stroke:none;stroke-width:1.48873;stroke-opacity:0.937255"
       d="M 170.61868 433.5011 C 166.80748 433.5011 163.73978 436.56881 163.73978 440.38 L 163.73978 661.0636 C 163.73978 664.8748 166.80748 667.9425 170.61868 667.9425 L 625.55814 667.9425 C 629.36943 667.9425 632.439 664.87481 632.439 661.0636 L 632.439 440.38 C 632.439 436.56882 629.3694 433.5011 625.55814 433.5011 L 170.61868 433.5011 z " />
    <path
       style="fill:url(#linearGradient21257);fill-opacity:1;stroke:none;stroke-width:1.71678;stroke-opacity:0.937255"
       d="m 632.439,479.48938 c -0.33339,0.0375 -14.40609,1.61999 -32.39258,3.79492 -9.09909,1.10026 -19.10529,2.33984 -28.64648,3.58594 -9.54119,1.24609 -18.61819,2.49868 -25.86328,3.62109 -6.0904,0.94353 -12.17491,1.9437 -18.25,2.99024 -6.075,1.04652 -12.14114,2.13889 -18.20313,3.27148 -12.12419,2.26519 -24.22356,4.68557 -36.31055,7.19336 -24.17397,5.01556 -48.29452,10.38195 -72.4375,15.55469 -12.07148,2.58635 -24.15105,5.12452 -36.24414,7.54687 -12.09309,2.42235 -24.19969,4.72878 -36.33398,6.85156 -6.0672,1.0614 -12.13961,2.07602 -18.2207,3.03711 -6.0811,0.9611 -12.17009,1.86906 -18.26758,2.71289 -6.0975,0.84385 -12.20392,1.62433 -18.32032,2.33399 -6.1164,0.70966 -12.24314,1.34772 -18.38085,1.90625 -3.75314,0.34153 -7.98215,0.59838 -12.50782,0.78516 -4.52565,0.18676 -9.34759,0.30318 -14.29101,0.36718 -9.88686,0.12808 -20.2562,0.0438 -29.68555,-0.12695 -9.42935,-0.17077 -17.91901,-0.42717 -24.05273,-0.64063 -6.13374,-0.21345 -9.91016,-0.38476 -9.91016,-0.38476 v -99.49024 c -0.22799,0.68575 -0.38086,1.40759 -0.38086,2.17188 v 103.50977 c 0,0 3.77642,0.17131 9.91016,0.38476 6.13372,0.21346 14.62338,0.46986 24.05273,0.64063 9.42935,0.17077 19.79869,0.25503 29.68555,0.12695 4.94342,-0.064 9.76536,-0.18042 14.29101,-0.36719 4.52567,-0.18678 8.75468,-0.44363 12.50782,-0.78515 6.13771,-0.55853 12.26445,-1.1966 18.38086,-1.90625 6.11639,-0.70966 12.22281,-1.49014 18.32031,-2.33399 6.09749,-0.84384 12.18648,-1.75179 18.26758,-2.71289 6.08109,-0.96109 12.15351,-1.97571 18.2207,-3.03711 12.13429,-2.12279 24.24285,-4.42921 36.33594,-6.85156 12.09308,-2.42235 24.1707,-4.96052 36.24218,-7.54688 24.14298,-5.17273 48.26353,-10.53912 72.4375,-15.55468 12.08699,-2.50779 24.18636,-4.92818 36.31055,-7.19336 6.06199,-1.13259 12.13009,-2.22496 18.20508,-3.27149 6.07509,-1.04654 12.15765,-2.0467 18.24805,-2.99023 7.24509,-1.12241 16.32209,-2.37501 25.86328,-3.6211 9.54119,-1.2461 19.54739,-2.48567 28.64648,-3.58593 18.19798,-2.20051 32.77344,-3.83985 32.77344,-3.83985 z"
       id="path20503" />
    <path
       id="path20496"
       style="fill:url(#linearGradient20498);fill-opacity:1;stroke:none;stroke-width:1.71678;stroke-opacity:0.937255"
       d="m 163.73977,543.89007 c 0,0 3.77642,0.17131 9.91016,0.38476 6.13373,0.21346 14.62337,0.46986 24.05273,0.64063 9.42936,0.17077 19.79868,0.25503 29.68555,0.12695 4.94343,-0.064 9.76535,-0.18041 14.29101,-0.36718 4.52567,-0.18678 8.75468,-0.44363 12.50782,-0.78516 6.13772,-0.55853 12.26445,-1.19659 18.38086,-1.90625 6.1164,-0.70966 12.2228,-1.49014 18.3203,-2.33399 6.0975,-0.84384 12.1865,-1.75179 18.2676,-2.71289 6.0811,-0.96109 12.1535,-1.97571 18.2207,-3.03711 12.1343,-2.12279 24.2428,-4.42921 36.3359,-6.85156 12.0931,-2.42235 24.1707,-4.96051 36.2422,-7.54687 24.143,-5.17274 48.2635,-10.53912 72.4375,-15.55469 12.087,-2.50779 24.1864,-4.92817 36.3106,-7.19336 6.062,-1.13259 12.13,-2.22495 18.205,-3.27148 6.0751,-1.04654 12.1577,-2.04671 18.2481,-2.99024 7.2451,-1.12241 16.3221,-2.375 25.8633,-3.62109 9.5412,-1.2461 19.5474,-2.48568 28.6465,-3.58594 18.198,-2.20051 32.7734,-3.83984 32.7734,-3.83984 V 440.3803 c 0,-3.81123 -3.0696,-6.8789 -6.8809,-6.8789 H 170.61868 c -3.81123,0 -6.87891,3.06767 -6.87891,6.8789 z" />
  </g>
</svg>
