<?xml version="1.0" encoding="UTF-8" standalone="no"?>
<!-- Created with Inkscape (http://www.inkscape.org/) -->

<svg
   width="32"
   height="32"
   viewBox="0 0 32 32"
   version="1.1"
   id="svg5780"
   inkscape:version="1.3.1 (5ab75fa947, 2023-11-03)"
   sodipodi:docname="reboot.svg"
   xmlns:inkscape="http://www.inkscape.org/namespaces/inkscape"
   xmlns:sodipodi="http://sodipodi.sourceforge.net/DTD/sodipodi-0.dtd"
   xmlns:xlink="http://www.w3.org/1999/xlink"
   xmlns="http://www.w3.org/2000/svg"
   xmlns:svg="http://www.w3.org/2000/svg"
   xmlns:rdf="http://www.w3.org/1999/02/22-rdf-syntax-ns#"
   xmlns:cc="http://creativecommons.org/ns#"
   xmlns:dc="http://purl.org/dc/elements/1.1/">
  <sodipodi:namedview
     id="base"
     pagecolor="#d0d0d0"
     bordercolor="#666666"
     borderopacity="1.0"
     inkscape:pageopacity="0"
     inkscape:pageshadow="2"
     inkscape:zoom="11.313709"
     inkscape:cx="6.9384853"
     inkscape:cy="11.888233"
     inkscape:document-units="px"
     inkscape:current-layer="layer1"
     showgrid="true"
     units="px"
     inkscape:pagecheckerboard="true"
     inkscape:showpageshadow="false"
     inkscape:snap-page="true"
     inkscape:window-width="1920"
     inkscape:window-height="1014"
     inkscape:window-x="0"
     inkscape:window-y="0"
     inkscape:window-maximized="1"
     showguides="true"
     inkscape:guide-bbox="true"
     inkscape:snap-bbox="true"
     inkscape:bbox-paths="true"
     inkscape:snap-nodes="true"
     inkscape:snap-grids="true"
     inkscape:bbox-nodes="true"
     inkscape:snap-global="true"
     fit-margin-top="0"
     fit-margin-left="0"
     fit-margin-right="0"
     fit-margin-bottom="0"
     inkscape:snap-bbox-edge-midpoints="true"
     inkscape:deskcolor="#d1d1d1"
     showborder="true"
     shape-rendering="crispEdges">
    <inkscape:grid
       type="xygrid"
       id="grid832"
       originx="0"
       originy="0"
       spacingy="1"
       spacingx="1"
       units="px"
       visible="true" />
    <sodipodi:guide
       position="16,-7"
       orientation="1,0"
       id="guide4"
       inkscape:locked="false" />
  </sodipodi:namedview>
  <defs
     id="defs5774">
    <linearGradient
       inkscape:collect="always"
       xlink:href="#linearGradient96"
       id="linearGradient94"
       gradientUnits="userSpaceOnUse"
       gradientTransform="matrix(7.4999999,0,0,2.1428784,-2425.2627,-92.998327)"
       x1="317.9017"
       y1="172.96748"
       x2="317.9017"
       y2="186.96735" />
    <linearGradient
       id="linearGradient96"
       inkscape:collect="always">
      <stop
         style="stop-color:#e3c29e;stop-opacity:1"
         offset="0"
         id="stop93" />
      <stop
         style="stop-color:#a59072;stop-opacity:1"
         offset="0.49882975"
         id="stop94" />
      <stop
         style="stop-color:#714b1a;stop-opacity:1"
         offset="0.49999967"
         id="stop95" />
      <stop
         style="stop-color:#c65901;stop-opacity:1"
         offset="1"
         id="stop96" />
    </linearGradient>
  </defs>
  <metadata
     id="metadata5777">
    <rdf:RDF>
      <cc:Work
         rdf:about="">
        <dc:format>image/svg+xml</dc:format>
        <dc:type
           rdf:resource="http://purl.org/dc/dcmitype/StillImage" />
      </cc:Work>
    </rdf:RDF>
  </metadata>
  <g
     inkscape:label="Layer 1"
     inkscape:groupmode="layer"
     id="layer1"
     transform="translate(63.000014,-276.64995)">
    <rect
       style="fill:url(#linearGradient94);fill-opacity:1;stroke-width:2.5;stroke-linecap:round;stroke-linejoin:round;stroke-opacity:0.904689"
       id="rect55"
       width="29.999998"
       height="30.000261"
       x="-62.000011"
       y="277.64969"
       rx="3.0014687"
       ry="3.0000308" />
    <rect
       y="280.64996"
       x="-32.000015"
       height="23.999704"
       width="1.0000001"
       id="rect69"
       style="fill:#000000;fill-opacity:1;stroke:none;stroke-width:1.5;stroke-linecap:round;stroke-miterlimit:4;stroke-dasharray:none;stroke-opacity:1" />
    <rect
       y="280.64996"
       x="-34.000011"
       height="23.999969"
       width="1.9999988"
       id="rect70"
       style="opacity:0.2;fill:#ffffff;fill-opacity:1;stroke:none;stroke-width:1.5;stroke-linecap:round;stroke-miterlimit:4;stroke-dasharray:none;stroke-opacity:1" />
    <rect
       y="280.64996"
       x="62.000015"
       height="23.999952"
       width="1.0000001"
       id="rect71"
       style="fill:#000000;fill-opacity:1;stroke:none;stroke-width:1.5;stroke-linecap:round;stroke-miterlimit:4;stroke-dasharray:none;stroke-opacity:1"
       transform="scale(-1,1)" />
    <rect
       y="280.64996"
       x="60.000011"
       height="23.999968"
       width="2.0000014"
       id="rect72"
       style="opacity:0.2;fill:#ffffff;fill-opacity:1;stroke:none;stroke-width:1.5;stroke-linecap:round;stroke-miterlimit:4;stroke-dasharray:none;stroke-opacity:1"
       transform="scale(-1,1)" />
    <rect
       transform="scale(1,-1)"
       style="fill:#000000;fill-opacity:1;stroke:none;stroke-width:1.5;stroke-linecap:round;stroke-miterlimit:4;stroke-dasharray:none;stroke-opacity:1"
       id="rect73"
       width="24.000002"
       height="0.99999589"
       x="-59.000015"
       y="-277.64996" />
    <rect
       transform="scale(1,-1)"
       style="opacity:0.2;fill:#ffffff;fill-opacity:1;stroke:none;stroke-width:1.5;stroke-linecap:round;stroke-miterlimit:4;stroke-dasharray:none;stroke-opacity:1"
       id="rect74"
       width="24"
       height="1.9999825"
       x="-59.000015"
       y="-279.64993" />
    <rect
       style="fill:#000000;fill-opacity:1;stroke:none;stroke-width:1.5;stroke-linecap:round;stroke-miterlimit:4;stroke-dasharray:none;stroke-opacity:1"
       id="rect75"
       width="23.999945"
       height="0.99999589"
       x="-58.999962"
       y="307.64996" />
    <rect
       style="opacity:0.2;fill:#ffffff;fill-opacity:0.945537;stroke:none;stroke-width:1.50001;stroke-linecap:round;stroke-miterlimit:4;stroke-dasharray:none;stroke-opacity:1"
       id="rect76"
       width="24.000053"
       height="2.0000093"
       x="-59.000015"
       y="305.64996" />
    <path
       id="path80"
       style="fill:#000000;fill-opacity:1;stroke-width:2.5;stroke-linecap:round;stroke-linejoin:round;stroke-opacity:0.904689"
       d="m -59.000014,276.64995 a 4,4 0 0 0 -2.82812,1.17188 4,4 0 0 0 -1.17188,2.82812 h 1 a 3,3 0 0 1 3,-3 z" />
    <path
       id="path83"
       style="fill:#000000;fill-opacity:1;stroke-width:2.5;stroke-linecap:round;stroke-linejoin:round;stroke-opacity:0.904689"
       d="m -34.999999,276.64964 a 4,4 0 0 1 2.82812,1.17188 4,4 0 0 1 1.17188,2.82812 h -1 a 3,3 0 0 0 -3,-3 z" />
    <path
       id="path85"
       style="fill:#000000;fill-opacity:1;stroke-width:2.5;stroke-linecap:round;stroke-linejoin:round;stroke-opacity:0.904689"
       d="m -58.990479,308.64996 a 4,4 0 0 1 -2.82812,-1.17188 4,4 0 0 1 -1.17188,-2.82812 h 1 a 3,3 0 0 0 3,3 z" />
    <path
       id="path87"
       style="fill:#000000;fill-opacity:1;stroke-width:2.5;stroke-linecap:round;stroke-linejoin:round;stroke-opacity:0.904689"
       d="m -35.000014,308.64995 a 4,4 0 0 0 2.82812,-1.17188 4,4 0 0 0 1.17188,-2.82812 h -1 a 3,3 0 0 1 -3,3 z" />
    <rect
       transform="scale(1,-1)"
       style="opacity:0.2;fill:#ffffff;fill-opacity:1;stroke:none;stroke-width:1.5;stroke-linecap:round;stroke-miterlimit:4;stroke-dasharray:none;stroke-opacity:1"
       id="rect1"
       width="1.9999838"
       height="1.9999825"
       x="-35"
       y="-280.64996" />
    <rect
       transform="scale(1,-1)"
       style="opacity:0.2;fill:#ffffff;fill-opacity:1;stroke:none;stroke-width:1.5;stroke-linecap:round;stroke-miterlimit:4;stroke-dasharray:none;stroke-opacity:1"
       id="rect2"
       width="1.9999838"
       height="1.9999825"
       x="-61.000015"
       y="-280.64993" />
    <rect
       transform="scale(1,-1)"
       style="opacity:0.2;fill:#ffffff;fill-opacity:1;stroke:none;stroke-width:1.5;stroke-linecap:round;stroke-miterlimit:4;stroke-dasharray:none;stroke-opacity:1"
       id="rect3"
       width="1.9999838"
       height="1.9999825"
       x="-35"
       y="-306.64996" />
    <rect
       transform="scale(1,-1)"
       style="opacity:0.2;fill:#ffffff;fill-opacity:1;stroke:none;stroke-width:1.5;stroke-linecap:round;stroke-miterlimit:4;stroke-dasharray:none;stroke-opacity:1"
       id="rect4"
       width="1.9999838"
       height="1.9999825"
       x="-61.000008"
       y="-306.64993" />
    <path
       id="path2"
       style="opacity:1;fill:none;stroke:#341a00;stroke-width:1;stroke-linecap:round;stroke-linejoin:round;stroke-opacity:1;paint-order:stroke fill markers"
       inkscape:transform-center-x="0.62895635"
       inkscape:transform-center-y="-0.62896379"
       d="m -37.878228,292.8959 -9.044395,-2.42344 6.620956,-6.62095 z" />
    <path
       style="color:#000000;fill:#d9d9d9;fill-opacity:1;stroke:#341a00;stroke-linecap:round;stroke-linejoin:round;stroke-opacity:1;-inkscape-stroke:none;paint-order:stroke fill markers"
       d="m -40.605484,288.08159 a 2,2 0 0 0 -0.58594,-1.41407 c -2.56991,-2.56991 -6.45083,-3.342 -9.80859,-1.95117 -3.35776,1.39083 -5.55664,4.68004 -5.55664,8.31446 0,3.63441 2.19888,6.92362 5.55664,8.31445 3.35776,1.39083 7.23868,0.61874 9.80859,-1.95117 a 2,2 0 0 0 0,-2.82813 2,2 0 0 0 -2.82812,0 c -1.43405,1.43405 -3.57554,1.86009 -5.44922,1.08399 -1.87368,-0.77611 -3.08789,-2.59109 -3.08789,-4.61914 0,-2.02806 1.21421,-3.84304 3.08789,-4.61915 1.87368,-0.7761 4.01517,-0.35006 5.44922,1.08399 a 2,2 0 0 0 2.82812,0 2,2 0 0 0 0.58594,-1.41406 z"
       id="path5" />
    <path
       id="path1"
       style="opacity:1;fill:#d9d9d9;stroke-width:1;stroke-linecap:round;stroke-linejoin:round;paint-order:stroke fill markers"
       inkscape:transform-center-x="0.62895635"
       inkscape:transform-center-y="-0.62896379"
       d="m -37.928223,292.84589 -8.944402,-2.39664 6.547756,-6.54775 z" />
  </g>
</svg>
