<?xml version="1.0" encoding="UTF-8" standalone="no"?>
<!-- Created with Inkscape (http://www.inkscape.org/) -->

<svg
   width="192.00003"
   height="113.00056"
   viewBox="0 0 192.00004 113.00058"
   version="1.1"
   id="svg8"
   inkscape:version="1.2.2 (b0a8486541, 2022-12-01)"
   sodipodi:docname="button.svg"
   xmlns:inkscape="http://www.inkscape.org/namespaces/inkscape"
   xmlns:sodipodi="http://sodipodi.sourceforge.net/DTD/sodipodi-0.dtd"
   xmlns:xlink="http://www.w3.org/1999/xlink"
   xmlns="http://www.w3.org/2000/svg"
   xmlns:svg="http://www.w3.org/2000/svg"
   xmlns:rdf="http://www.w3.org/1999/02/22-rdf-syntax-ns#"
   xmlns:cc="http://creativecommons.org/ns#"
   xmlns:dc="http://purl.org/dc/elements/1.1/">
  <defs
     id="defs2">
    <linearGradient
       gradientTransform="translate(20.101724,-273.56184)"
       gradientUnits="userSpaceOnUse"
       y2="375.5303"
       x2="215"
       y1="415.53024"
       x1="215.00002"
       id="linearGradient4016-301"
       xlink:href="#linearGradient7226"
       inkscape:collect="always" />
    <linearGradient
       gradientUnits="userSpaceOnUse"
       y2="-62.740002"
       x2="1076.2"
       y1="-30.74"
       x1="1076.2"
       id="linearGradient4038-782"
       xlink:href="#linearGradient7226"
       inkscape:collect="always"
       gradientTransform="matrix(4.0000001,0,0,0.99999102,-3229.6,-5.6345923e-4)" />
    <linearGradient
       gradientUnits="userSpaceOnUse"
       y2="-62.740002"
       x2="1077.2"
       y1="-30.74"
       x1="1077.2"
       id="linearGradient4030-85"
       xlink:href="#linearGradient7226"
       inkscape:collect="always"
       gradientTransform="matrix(4.0000002,0,0,1.0000084,-3229.6,2.6305835e-4)" />
    <linearGradient
       inkscape:collect="always"
       xlink:href="#linearGradient7226"
       id="linearGradient1604"
       x1="1075.2003"
       y1="-62.740002"
       x2="1114.2003"
       y2="-62.740005"
       gradientUnits="userSpaceOnUse" />
    <linearGradient
       inkscape:collect="always"
       xlink:href="#linearGradient7226"
       id="linearGradient1612"
       x1="274.10172"
       y1="99.967926"
       x2="274.10175"
       y2="138.96791"
       gradientUnits="userSpaceOnUse" />
    <linearGradient
       inkscape:collect="always"
       xlink:href="#linearGradient7226"
       id="linearGradient1620"
       x1="274.10172"
       y1="99.967934"
       x2="274.10172"
       y2="138.96791"
       gradientUnits="userSpaceOnUse" />
    <linearGradient
       inkscape:collect="always"
       xlink:href="#linearGradient7226"
       id="linearGradient1628"
       x1="141.66417"
       y1="-237.52145"
       x2="101.96793"
       y2="-237.52145"
       gradientUnits="userSpaceOnUse" />
    <linearGradient
       inkscape:collect="always"
       xlink:href="#linearGradient7226"
       id="linearGradient1636"
       x1="275.10172"
       y1="141.96788"
       x2="275.10175"
       y2="102.9679"
       gradientUnits="userSpaceOnUse" />
    <linearGradient
       inkscape:collect="always"
       xlink:href="#linearGradient7226"
       id="linearGradient1644"
       x1="275.10172"
       y1="141.96788"
       x2="275.10172"
       y2="102.9679"
       gradientUnits="userSpaceOnUse" />
    <linearGradient
       id="linearGradient7226"
       inkscape:collect="always">
      <stop
         id="stop7218"
         offset="0"
         style="stop-color:#c2d8e4;stop-opacity:1;opacity:1" />
      <stop
         style="stop-color:#d3e4ed;stop-opacity:1;opacity:1"
         offset="0.49999979"
         id="stop7220" />
      <stop
         style="stop-color:#e7f0f4;stop-opacity:1;opacity:1"
         offset="0.5"
         id="stop7222" />
      <stop
         id="stop7224"
         offset="1"
         style="stop-color:#eef4f8;stop-opacity:1;opacity:1" />
    </linearGradient>
  </defs>
  <style
     id="current-color-scheme"
     type="text/css">
      .ColorScheme-Text {
      }
      .ColorScheme-Background{
      }
      .ColorScheme-Highlight{
      }
      .ColorScheme-ViewText {
      }
      .ColorScheme-ViewBackground{
      }
      .ColorScheme-ViewHover {
      }
      .ColorScheme-ViewFocus{
      }
      .ColorScheme-ButtonText {
      }
      .ColorScheme-ButtonBackground{
      }
      .ColorScheme-ButtonHover {
      }
      .ColorScheme-ButtonFocus{
      }
  </style>
  <sodipodi:namedview
     id="base"
     pagecolor="#d1d1d1"
     bordercolor="#666666"
     borderopacity="1.0"
     inkscape:pageopacity="0"
     inkscape:pageshadow="2"
     inkscape:zoom="17.230853"
     inkscape:cx="103.15798"
     inkscape:cy="91.754017"
     inkscape:document-units="px"
     inkscape:current-layer="layer1"
     showgrid="true"
     units="px"
     inkscape:pagecheckerboard="true"
     inkscape:showpageshadow="false"
     fit-margin-top="10"
     fit-margin-left="10"
     fit-margin-right="10"
     fit-margin-bottom="10"
     inkscape:snap-global="true"
     inkscape:snap-bbox="true"
     inkscape:bbox-paths="true"
     inkscape:bbox-nodes="true"
     inkscape:snap-nodes="true"
     inkscape:deskcolor="#d1d1d1"
     borderlayer="false">
    <inkscape:grid
       originy="-131.00002"
       originx="-219.00001"
       id="grid6947"
       type="xygrid" />
  </sodipodi:namedview>
  <metadata
     id="metadata5">
    <rdf:RDF>
      <cc:Work
         rdf:about="">
        <dc:format>image/svg+xml</dc:format>
        <dc:type
           rdf:resource="http://purl.org/dc/dcmitype/StillImage" />
      </cc:Work>
    </rdf:RDF>
  </metadata>
  <g
     inkscape:label="Layer 1"
     inkscape:groupmode="layer"
     id="layer1"
     transform="translate(-219.10172,-88.967345)">
    <rect
       y="145.9679"
       x="255.10172"
       height="6"
       width="1"
       id="normal-hint-top-margin"
       style="opacity:1;fill:#008080;fill-opacity:1;fill-rule:evenodd;stroke:none;stroke-width:2.13543296;stroke-linecap:square;stroke-linejoin:miter;stroke-miterlimit:4;stroke-dasharray:none;stroke-opacity:1;paint-order:normal" />
    <rect
       style="opacity:1;fill:#008080;fill-opacity:1;fill-rule:evenodd;stroke:none;stroke-width:2.13543296;stroke-linecap:square;stroke-linejoin:miter;stroke-miterlimit:4;stroke-dasharray:none;stroke-opacity:1;paint-order:normal"
       id="normal-hint-bottom-margin"
       width="1"
       height="6"
       x="255.10172"
       y="152.9679" />
    <rect
       style="opacity:1;fill:#008080;fill-opacity:1;fill-rule:evenodd;stroke:none;stroke-width:2.13543296;stroke-linecap:square;stroke-linejoin:miter;stroke-miterlimit:4;stroke-dasharray:none;stroke-opacity:1;paint-order:normal"
       id="normal-hint-left-margin"
       width="6"
       height="1"
       x="249.10172"
       y="151.9679" />
    <rect
       y="151.9679"
       x="256.10172"
       height="1"
       width="6"
       id="normal-hint-right-margin"
       style="opacity:1;fill:#008080;fill-opacity:1;fill-rule:evenodd;stroke:none;stroke-width:2.13543296;stroke-linecap:square;stroke-linejoin:miter;stroke-miterlimit:4;stroke-dasharray:none;stroke-opacity:1;paint-order:normal" />
    <rect
       y="177.96733"
       x="301.10172"
       height="4.0005326"
       width="1"
       id="toolbutton-hover-hint-top-margin"
       style="opacity:1;fill:#008080;fill-opacity:1;fill-rule:evenodd;stroke:none;stroke-width:1.7437;stroke-linecap:square;stroke-linejoin:miter;stroke-miterlimit:4;stroke-dasharray:none;stroke-opacity:1;paint-order:normal" />
    <rect
       style="opacity:1;fill:#008080;fill-opacity:1;fill-rule:evenodd;stroke:none;stroke-width:1.74357;stroke-linecap:square;stroke-linejoin:miter;stroke-miterlimit:4;stroke-dasharray:none;stroke-opacity:1;paint-order:normal"
       id="toolbutton-hover-hint-bottom-margin"
       width="1"
       height="3.999994"
       x="301.10172"
       y="182.96733" />
    <rect
       style="opacity:1;fill:#008080;fill-opacity:1;fill-rule:evenodd;stroke:none;stroke-width:1.74357;stroke-linecap:square;stroke-linejoin:miter;stroke-miterlimit:4;stroke-dasharray:none;stroke-opacity:1;paint-order:normal"
       id="toolbutton-hover-hint-left-margin"
       width="3.999985"
       height="1"
       x="297.10172"
       y="181.96786" />
    <rect
       y="181.96786"
       x="302.10172"
       height="1"
       width="3.999995"
       id="toolbutton-hover-hint-right-margin"
       style="opacity:1;fill:#008080;fill-opacity:1;fill-rule:evenodd;stroke:none;stroke-width:1.74357;stroke-linecap:square;stroke-linejoin:miter;stroke-miterlimit:4;stroke-dasharray:none;stroke-opacity:1;paint-order:normal" />
    <rect
       style="opacity:1;fill:#008080;fill-opacity:1;stroke:none;stroke-width:3.00000024;stroke-linecap:round;stroke-miterlimit:4;stroke-dasharray:none;stroke-opacity:1"
       id="hint-stretch-borders"
       width="4"
       height="4"
       x="281.10172"
       y="152.9679" />
    <rect
       y="151.9679"
       x="310.1011"
       height="1.0027095"
       width="1"
       id="hover-hint-left-margin"
       style="opacity:0.875;fill:#008080;fill-opacity:1;stroke:none;stroke-width:0.75592893" />
    <rect
       style="opacity:0.875;fill:#008080;fill-opacity:1;stroke:none;stroke-width:0.75592911"
       id="hover-hint-top-margin"
       width="1.0000049"
       height="0.99999344"
       x="311.10172"
       y="150.9679" />
    <rect
       y="152.9679"
       x="311.10172"
       height="1"
       width="1.0000049"
       id="hover-hint-bottom-margin"
       style="opacity:0.875;fill:#008080;fill-opacity:1;stroke:none;stroke-width:0.75592852" />
    <rect
       style="opacity:0.875;fill:#008080;fill-opacity:1;stroke:none;stroke-width:0.75592899"
       id="hover-hint-right-margin"
       width="1"
       height="0.99999344"
       x="312.10172"
       y="151.9679" />
    <g
       id="normal-bottom"
       transform="matrix(1,0,0,-1,204.36172,1217.1682)">
      <rect
         style="opacity:1;fill:#2f344d;fill-opacity:0.58836664"
         height="32"
         width="1"
         y="-62.740002"
         x="1074.2003"
         transform="rotate(90)"
         id="rect5668" />
      <rect
         style="opacity:1;fill:none;fill-opacity:1;stroke-width:1.00000012"
         height="32.000008"
         width="1.0002247"
         y="-62.740009"
         x="1073.2001"
         transform="rotate(90)"
         id="rect5670" />
      <rect
         style="opacity:1;fill:url(#linearGradient1604);fill-opacity:1;stroke-width:1"
         height="32.000008"
         width="3.9997001"
         y="-62.740009"
         x="1075.2003"
         transform="rotate(90)"
         id="rect5674" />
    </g>
    <g
       id="normal-right"
       transform="matrix(0,-1,-1,0,1346.3017,168.70817)">
      <rect
         style="opacity:1;fill:#2f344d;fill-opacity:0.58836664"
         height="32"
         width="1"
         y="-62.740269"
         x="1074.2"
         transform="rotate(90)"
         id="rect5704" />
      <rect
         style="opacity:1;fill:none;fill-opacity:1;stroke-width:0.99999994"
         height="32.000271"
         width="1.0000288"
         y="-62.740265"
         x="1073.2"
         transform="rotate(90)"
         id="rect5706" />
      <rect
         style="opacity:1;fill:url(#linearGradient4030-85);fill-opacity:1;stroke-width:0.99999994"
         height="32.000271"
         width="4"
         y="-62.740265"
         x="1075.2"
         transform="rotate(90)"
         id="rect5710" />
    </g>
    <g
       id="normal-left"
       transform="rotate(-90,-337.69502,506.40321)">
      <rect
         style="opacity:1;fill:#2f344d;fill-opacity:0.58836664"
         height="32"
         width="1"
         y="-62.740288"
         x="1074.2"
         transform="rotate(90)"
         id="rect5714" />
      <rect
         style="opacity:1;fill:none;fill-opacity:1;stroke-width:1"
         height="31.999714"
         width="0.99999881"
         y="-62.740002"
         x="1073.2"
         transform="rotate(90)"
         id="rect5716" />
      <rect
         style="opacity:1;fill:url(#linearGradient4038-782);fill-opacity:1;stroke-width:1"
         height="31.999714"
         width="4"
         y="-62.740002"
         x="1075.2"
         transform="rotate(90)"
         id="rect5720" />
    </g>
    <rect
       style="opacity:1;fill:url(#linearGradient4016-301);fill-opacity:1;stroke:none;stroke-width:1.27952731;stroke-miterlimit:4;stroke-dasharray:none;stroke-opacity:0.18662953"
       id="normal-center"
       width="32"
       height="32"
       x="235.10172"
       y="105.96817" />
    <rect
       y="104.96733"
       x="298.10083"
       height="32"
       width="32"
       id="hover-center"
       style="opacity:1;fill:none;fill-opacity:0.63235294;stroke:none;stroke-width:1;stroke-linecap:round;stroke-miterlimit:4;stroke-dasharray:none;stroke-opacity:1" />
    <g
       id="hover-left"
       transform="matrix(1,0,0,2.1333309,26.99912,-347.23032)"
       style="stroke-width:0.68465358">
      <rect
         transform="scale(-1,1)"
         style="opacity:1;fill:none;fill-opacity:1;stroke:none;stroke-width:0.68465352;stroke-linecap:round;stroke-miterlimit:4;stroke-dasharray:none;stroke-opacity:1"
         id="rect5791"
         width="3"
         height="15.000002"
         x="-271.10172"
         y="211.96791" />
      <rect
         y="211.9679"
         x="-267.10172"
         height="15.000002"
         width="0.99999988"
         id="rect5784"
         style="opacity:1;fill:#76a1bb;fill-opacity:1;stroke:none;stroke-width:0.68465358;stroke-linecap:round;stroke-miterlimit:4;stroke-dasharray:none;stroke-opacity:1"
         transform="scale(-1,1)" />
      <rect
         y="211.9679"
         x="-266.10172"
         height="15.000002"
         width="0.99999988"
         id="rect5796"
         style="opacity:1;fill:none;fill-opacity:1;stroke:none;stroke-width:0.68465358;stroke-linecap:round;stroke-miterlimit:4;stroke-dasharray:none;stroke-opacity:1"
         transform="scale(-1,1)" />
    </g>
    <g
       id="hover-right"
       transform="matrix(-1,0,0,2.1333309,601.20255,-347.23032)"
       style="stroke-width:0.68465358">
      <rect
         y="211.96791"
         x="-271.10172"
         height="15.000002"
         width="3"
         id="rect5804"
         style="opacity:1;fill:none;fill-opacity:1;stroke:none;stroke-width:0.68465352;stroke-linecap:round;stroke-miterlimit:4;stroke-dasharray:none;stroke-opacity:1"
         transform="scale(-1,1)" />
      <rect
         transform="scale(-1,1)"
         style="opacity:1;fill:#76a1bb;fill-opacity:1;stroke:none;stroke-width:0.68465358;stroke-linecap:round;stroke-miterlimit:4;stroke-dasharray:none;stroke-opacity:1"
         id="rect5808"
         width="0.99999988"
         height="15.000002"
         x="-267.10172"
         y="211.9679" />
      <rect
         transform="scale(-1,1)"
         style="opacity:1;fill:none;fill-opacity:1;stroke:none;stroke-width:0.68465358;stroke-linecap:round;stroke-miterlimit:4;stroke-dasharray:none;stroke-opacity:1"
         id="rect5810"
         width="0.99999988"
         height="15.000002"
         x="-266.10172"
         y="211.9679" />
    </g>
    <g
       id="hover-top"
       transform="matrix(0,1,-2.1333309,0,782.29849,-166.13437)"
       style="stroke-width:0.68465358">
      <rect
         y="211.96791"
         x="-271.10172"
         height="15.000002"
         width="3"
         id="rect5814"
         style="opacity:1;fill:none;fill-opacity:1;stroke:none;stroke-width:0.68465352;stroke-linecap:round;stroke-miterlimit:4;stroke-dasharray:none;stroke-opacity:1"
         transform="scale(-1,1)" />
      <rect
         transform="scale(-1,1)"
         style="opacity:1;fill:#76a1bb;fill-opacity:1;stroke:none;stroke-width:0.68465358;stroke-linecap:round;stroke-miterlimit:4;stroke-dasharray:none;stroke-opacity:1"
         id="rect5818"
         width="0.99999988"
         height="15.000002"
         x="-267.10172"
         y="211.9679" />
      <rect
         transform="scale(-1,1)"
         style="opacity:1;fill:none;fill-opacity:1;stroke:none;stroke-width:0.68465358;stroke-linecap:round;stroke-miterlimit:4;stroke-dasharray:none;stroke-opacity:1"
         id="rect5820"
         width="0.99999988"
         height="15.000002"
         x="-266.10172"
         y="211.9679" />
    </g>
    <g
       id="hover-bottom"
       transform="matrix(0,-1,2.1333309,0,-154.09683,408.06906)"
       style="stroke-width:0.68465358">
      <rect
         y="211.96791"
         x="-271.10172"
         height="15.000002"
         width="3"
         id="rect5824"
         style="opacity:1;fill:none;fill-opacity:1;stroke:none;stroke-width:0.68465352;stroke-linecap:round;stroke-miterlimit:4;stroke-dasharray:none;stroke-opacity:1"
         transform="scale(-1,1)" />
      <rect
         transform="scale(-1,1)"
         style="opacity:1;fill:#76a1bb;fill-opacity:1;stroke:none;stroke-width:0.68465358;stroke-linecap:round;stroke-miterlimit:4;stroke-dasharray:none;stroke-opacity:1"
         id="rect5828"
         width="0.99999988"
         height="15.000002"
         x="-267.10172"
         y="211.9679" />
      <rect
         transform="scale(-1,1)"
         style="opacity:1;fill:none;fill-opacity:1;stroke:none;stroke-width:0.68465358;stroke-linecap:round;stroke-miterlimit:4;stroke-dasharray:none;stroke-opacity:1"
         id="rect5830"
         width="0.99999988"
         height="15.000002"
         x="-266.10172"
         y="211.9679" />
    </g>
    <g
       transform="matrix(1,0,0,-1,-6.9999951,241.93581)"
       id="normal-bottomright">
      <rect
         transform="scale(-1,1)"
         style="opacity:1;fill:none;fill-opacity:1;stroke:none;stroke-width:0.49999997;stroke-linecap:round;stroke-linejoin:round;stroke-miterlimit:4;stroke-dasharray:none;stroke-opacity:1"
         id="rect1108"
         width="6"
         height="6"
         x="-280.10172"
         y="97.967903" />
      <path
         style="opacity:1;fill:url(#linearGradient1612);fill-opacity:1;stroke:none;stroke-width:0.49999997;stroke-linecap:round;stroke-linejoin:round;stroke-miterlimit:4;stroke-dasharray:none;stroke-opacity:1"
         d="m 274.10172,99.967902 v 3.999998 h 4 v -2 a 2.000005,2.000001 0 0 0 -2,-1.999998 z"
         id="path1110"
         inkscape:connector-curvature="0" />
      <path
         id="path1112"
         d="m 274.10172,98.967904 v 0.999998 h 2 a 2.000005,2.000001 0 0 1 2,1.999998 v 2 h 1 v -2 a 3,3 0 0 0 -3,-2.999996 z"
         style="opacity:1;fill:#2f344d;fill-opacity:0.58836664;stroke:none;stroke-width:0.5;stroke-linecap:round;stroke-linejoin:round;stroke-miterlimit:4;stroke-dasharray:none;stroke-opacity:1"
         inkscape:connector-curvature="0" />
    </g>
    <g
       id="normal-bottomleft"
       transform="rotate(-180,254.60172,120.96791)">
      <rect
         y="97.967903"
         x="-280.10172"
         height="6"
         width="6"
         id="rect1116"
         style="opacity:1;fill:none;fill-opacity:1;stroke:none;stroke-width:0.49999997;stroke-linecap:round;stroke-linejoin:round;stroke-miterlimit:4;stroke-dasharray:none;stroke-opacity:1"
         transform="scale(-1,1)" />
      <path
         inkscape:connector-curvature="0"
         id="path1118"
         d="m 274.10172,99.967902 v 3.999998 h 4 v -2 a 2.000005,2.000001 0 0 0 -2,-1.999998 z"
         style="opacity:1;fill:url(#linearGradient1620);fill-opacity:1;stroke:none;stroke-width:0.49999997;stroke-linecap:round;stroke-linejoin:round;stroke-miterlimit:4;stroke-dasharray:none;stroke-opacity:1" />
      <path
         inkscape:connector-curvature="0"
         style="opacity:1;fill:#2f344d;fill-opacity:0.58836664;stroke:none;stroke-width:0.5;stroke-linecap:round;stroke-linejoin:round;stroke-miterlimit:4;stroke-dasharray:none;stroke-opacity:1"
         d="m 274.10172,98.967904 v 0.999998 h 2 a 2.000005,2.000001 0 0 1 2,1.999998 v 2 h 1 v -2 a 3,3 0 0 0 -3,-2.999996 z"
         id="path1120" />
    </g>
    <g
       id="pressed-right"
       transform="matrix(0,-1,-1,0,1474.3017,168.70817)">
      <rect
         style="opacity:1;fill:#2f344d;fill-opacity:0.58836664"
         height="32"
         width="1"
         y="-62.740269"
         x="1074.2"
         transform="rotate(90)"
         id="rect1140" />
      <rect
         style="opacity:1;fill:none;fill-opacity:1;stroke-width:0.99999994"
         height="32.000271"
         width="1.0000288"
         y="-62.740265"
         x="1073.2"
         transform="rotate(90)"
         id="rect1142" />
      <rect
         style="opacity:1;fill:#bcc4ca;fill-opacity:1;stroke-width:0.99999994"
         height="32.000271"
         width="4"
         y="30.739994"
         x="1075.2"
         transform="matrix(0,1,1,0,0,0)"
         id="rect1144" />
    </g>
    <g
       id="pressed-left"
       transform="rotate(-90,-273.69502,442.40321)">
      <rect
         style="opacity:1;fill:#2f344d;fill-opacity:0.58836664"
         height="32"
         width="1"
         y="-62.740288"
         x="1074.2"
         transform="rotate(90)"
         id="rect1148" />
      <rect
         style="opacity:1;fill:none;fill-opacity:1;stroke-width:1"
         height="31.999714"
         width="0.99999881"
         y="-62.740002"
         x="1073.2"
         transform="rotate(90)"
         id="rect1150" />
      <rect
         style="opacity:1;fill:#bcc4ca;fill-opacity:1;stroke-width:1"
         height="31.999714"
         width="4"
         y="30.740288"
         x="1075.2"
         transform="matrix(0,1,1,0,0,0)"
         id="rect1152" />
    </g>
    <rect
       style="opacity:1;fill:#bcc4ca;fill-opacity:1;stroke:none;stroke-width:1.27952731;stroke-miterlimit:4;stroke-dasharray:none;stroke-opacity:0.18662953"
       id="pressed-center"
       width="32"
       height="32"
       x="363.10172"
       y="-137.96817"
       transform="scale(1,-1)" />
    <g
       id="normal-top">
      <rect
         style="opacity:1;fill:#2f344d;fill-opacity:0.58836664"
         height="32"
         width="1"
         y="-267.10175"
         x="100.96793"
         transform="rotate(90)"
         id="rect2089" />
      <rect
         style="opacity:1;fill:none;fill-opacity:1;stroke-width:1.00000012"
         height="32.000008"
         width="0.99972093"
         y="-267.10175"
         x="99.968178"
         transform="rotate(90)"
         id="rect2091" />
      <rect
         style="opacity:1;fill:url(#linearGradient1628);fill-opacity:1;stroke-width:1.00000012"
         height="32.000011"
         width="4.0002804"
         y="-267.10175"
         x="101.96793"
         transform="rotate(90)"
         id="rect5624" />
      <rect
         id="rect1461"
         transform="rotate(90)"
         x="101.96793"
         y="-267.10175"
         width="0.99996847"
         height="32.000023"
         style="opacity:1;fill:#ffffff;fill-opacity:1;stroke-width:1.00000012" />
    </g>
    <g
       id="normal-topright"
       transform="translate(-7.9999951,-1.0541992e-6)">
      <rect
         y="99.967903"
         x="-281.10172"
         height="6"
         width="6"
         id="rect1079"
         style="opacity:1;fill:none;fill-opacity:1;stroke:none;stroke-width:0.49999997;stroke-linecap:round;stroke-linejoin:round;stroke-miterlimit:4;stroke-dasharray:none;stroke-opacity:1"
         transform="scale(-1,1)" />
      <path
         inkscape:connector-curvature="0"
         id="rect1040"
         d="m 275.10172,101.9679 v 4 h 4 v -2 a 2.000005,2.000001 0 0 0 -2,-2 z"
         style="opacity:1;fill:url(#linearGradient1636);fill-opacity:1;stroke:none;stroke-width:0.49999997;stroke-linecap:round;stroke-linejoin:round;stroke-miterlimit:4;stroke-dasharray:none;stroke-opacity:1" />
      <path
         inkscape:connector-curvature="0"
         style="opacity:1;fill:#2f344d;fill-opacity:0.58836664;stroke:none;stroke-width:0.5;stroke-linecap:round;stroke-linejoin:round;stroke-miterlimit:4;stroke-dasharray:none;stroke-opacity:1"
         d="m 275.10172,100.9679 v 1 h 2 a 2.000005,2.000001 0 0 1 2,2 v 2 h 1 v -2 a 3,3 0 0 0 -3,-3 z"
         id="path1082" />
      <path
         inkscape:connector-curvature="0"
         id="path1474"
         d="m 275.10172,101.9679 v 1 h 3.73047 a 2.000005,2.000001 0 0 0 -1.73047,-1 z"
         style="opacity:1;fill:#ffffff;fill-opacity:1;stroke:none;stroke-width:0.49999997;stroke-linecap:round;stroke-linejoin:round;stroke-miterlimit:4;stroke-dasharray:none;stroke-opacity:1" />
    </g>
    <g
       transform="matrix(-1,0,0,1,510.20344,-1.0541992e-6)"
       id="normal-topleft">
      <rect
         transform="scale(-1,1)"
         style="opacity:1;fill:none;fill-opacity:1;stroke:none;stroke-width:0.49999997;stroke-linecap:round;stroke-linejoin:round;stroke-miterlimit:4;stroke-dasharray:none;stroke-opacity:1"
         id="rect1483"
         width="6"
         height="6"
         x="-281.10172"
         y="99.967903" />
      <path
         style="opacity:1;fill:url(#linearGradient1644);fill-opacity:1;stroke:none;stroke-width:0.49999997;stroke-linecap:round;stroke-linejoin:round;stroke-miterlimit:4;stroke-dasharray:none;stroke-opacity:1"
         d="m 275.10172,101.9679 v 4 h 4 v -2 a 2.000005,2.000001 0 0 0 -2,-2 z"
         id="path1485"
         inkscape:connector-curvature="0" />
      <path
         id="path1487"
         d="m 275.10172,100.9679 v 1 h 2 a 2.000005,2.000001 0 0 1 2,2 v 2 h 1 v -2 a 3,3 0 0 0 -3,-3 z"
         style="opacity:1;fill:#2f344d;fill-opacity:0.58836664;stroke:none;stroke-width:0.5;stroke-linecap:round;stroke-linejoin:round;stroke-miterlimit:4;stroke-dasharray:none;stroke-opacity:1"
         inkscape:connector-curvature="0" />
      <path
         style="opacity:1;fill:#ffffff;fill-opacity:1;stroke:none;stroke-width:0.49999997;stroke-linecap:round;stroke-linejoin:round;stroke-miterlimit:4;stroke-dasharray:none;stroke-opacity:1"
         d="m 275.10172,101.9679 v 1 h 3.73047 a 2.000005,2.000001 0 0 0 -1.73047,-1 z"
         id="path1489"
         inkscape:connector-curvature="0" />
    </g>
    <g
       id="hover-topleft"
       transform="matrix(-1,0,0,1,573.20344,-1.0000011)">
      <rect
         y="99.967903"
         x="-281.10172"
         height="6"
         width="6"
         id="rect1493"
         style="opacity:1;fill:none;fill-opacity:1;stroke:none;stroke-width:0.49999997;stroke-linecap:round;stroke-linejoin:round;stroke-miterlimit:4;stroke-dasharray:none;stroke-opacity:1"
         transform="scale(-1,1)" />
      <path
         inkscape:connector-curvature="0"
         id="path1495"
         d="m 275.10172,101.9679 v 4 h 4 v -2 a 2.000005,2.000001 0 0 0 -2,-2 z"
         style="opacity:1;fill:none;fill-opacity:0.42857145;stroke:none;stroke-width:0.49999997;stroke-linecap:round;stroke-linejoin:round;stroke-miterlimit:4;stroke-dasharray:none;stroke-opacity:1" />
      <path
         inkscape:connector-curvature="0"
         style="opacity:1;fill:#76a1bb;fill-opacity:1;stroke:none;stroke-width:0.5;stroke-linecap:round;stroke-linejoin:round;stroke-miterlimit:4;stroke-dasharray:none;stroke-opacity:1"
         d="m 275.10172,100.9679 v 1 h 2 a 2.000005,2.000001 0 0 1 2,2 v 2 h 1 v -2 a 3,3 0 0 0 -3,-3 z"
         id="path1497" />
    </g>
    <g
       transform="translate(55.00001,-1.0000011)"
       id="hover-topright">
      <rect
         transform="scale(-1,1)"
         style="opacity:1;fill:none;fill-opacity:1;stroke:none;stroke-width:0.49999997;stroke-linecap:round;stroke-linejoin:round;stroke-miterlimit:4;stroke-dasharray:none;stroke-opacity:1"
         id="rect1023"
         width="6"
         height="6"
         x="-281.10172"
         y="99.967903" />
      <path
         style="opacity:1;fill:none;fill-opacity:0.42857145;stroke:none;stroke-width:0.49999997;stroke-linecap:round;stroke-linejoin:round;stroke-miterlimit:4;stroke-dasharray:none;stroke-opacity:1"
         d="m 275.10172,101.9679 v 4 h 4 v -2 a 2.000005,2.000001 0 0 0 -2,-2 z"
         id="path1025"
         inkscape:connector-curvature="0" />
      <path
         id="path1027"
         d="m 275.10172,100.9679 v 1 h 2 a 2.000005,2.000001 0 0 1 2,2 v 2 h 1 v -2 a 3,3 0 0 0 -3,-3 z"
         style="opacity:1;fill:#76a1bb;fill-opacity:1;stroke:none;stroke-width:0.5;stroke-linecap:round;stroke-linejoin:round;stroke-miterlimit:4;stroke-dasharray:none;stroke-opacity:1"
         inkscape:connector-curvature="0" />
    </g>
    <g
       transform="rotate(-180,286.60172,121.4679)"
       id="hover-bottomleft">
      <rect
         transform="scale(-1,1)"
         style="opacity:1;fill:none;fill-opacity:1;stroke:none;stroke-width:0.49999997;stroke-linecap:round;stroke-linejoin:round;stroke-miterlimit:4;stroke-dasharray:none;stroke-opacity:1"
         id="rect1031"
         width="6"
         height="6"
         x="-281.10172"
         y="99.967903" />
      <path
         style="opacity:1;fill:none;fill-opacity:0.42857145;stroke:none;stroke-width:0.49999997;stroke-linecap:round;stroke-linejoin:round;stroke-miterlimit:4;stroke-dasharray:none;stroke-opacity:1"
         d="m 275.10172,101.9679 v 4 h 4 v -2 a 2.000005,2.000001 0 0 0 -2,-2 z"
         id="path1033"
         inkscape:connector-curvature="0" />
      <path
         id="path1035"
         d="m 275.10172,100.9679 v 1 h 2 a 2.000005,2.000001 0 0 1 2,2 v 2 h 1 v -2 a 3,3 0 0 0 -3,-3 z"
         style="opacity:1;fill:#76a1bb;fill-opacity:1;stroke:none;stroke-width:0.5;stroke-linecap:round;stroke-linejoin:round;stroke-miterlimit:4;stroke-dasharray:none;stroke-opacity:1"
         inkscape:connector-curvature="0" />
    </g>
    <g
       transform="matrix(1,0,0,-1,55.000005,242.93581)"
       id="hover-bottomright">
      <rect
         transform="scale(-1,1)"
         style="opacity:1;fill:none;fill-opacity:1;stroke:none;stroke-width:0.49999997;stroke-linecap:round;stroke-linejoin:round;stroke-miterlimit:4;stroke-dasharray:none;stroke-opacity:1"
         id="rect1039"
         width="6"
         height="6"
         x="-281.10172"
         y="99.967903" />
      <path
         style="opacity:1;fill:none;fill-opacity:0.42857145;stroke:none;stroke-width:0.49999997;stroke-linecap:round;stroke-linejoin:round;stroke-miterlimit:4;stroke-dasharray:none;stroke-opacity:1"
         d="m 275.10172,101.9679 v 4 h 4 v -2 a 2.000005,2.000001 0 0 0 -2,-2 z"
         id="path1041"
         inkscape:connector-curvature="0" />
      <path
         id="path1043"
         d="m 275.10172,100.9679 v 1 h 2 a 2.000005,2.000001 0 0 1 2,2 v 2 h 1 v -2 a 3,3 0 0 0 -3,-3 z"
         style="opacity:1;fill:#76a1bb;fill-opacity:1;stroke:none;stroke-width:0.5;stroke-linecap:round;stroke-linejoin:round;stroke-miterlimit:4;stroke-dasharray:none;stroke-opacity:1"
         inkscape:connector-curvature="0" />
    </g>
    <g
       id="pressed-bottom">
      <rect
         style="opacity:1;fill:#2f344d;fill-opacity:0.58836664"
         height="32"
         width="1"
         y="-395.10172"
         x="-142.96788"
         transform="matrix(0,-1,-1,0,0,0)"
         id="rect1132" />
      <rect
         style="opacity:1;fill:none;fill-opacity:1;stroke-width:1.00000012"
         height="32.000008"
         width="1.0002247"
         y="-395.10172"
         x="-143.96812"
         transform="matrix(0,-1,-1,0,0,0)"
         id="rect1134" />
      <rect
         style="opacity:1;fill:#bcc4ca;fill-opacity:1;stroke-width:1"
         height="32.000008"
         width="3.9997001"
         y="-395.10172"
         x="-141.96788"
         transform="matrix(0,-1,-1,0,0,0)"
         id="rect1136" />
      <rect
         id="rect1050"
         transform="matrix(0,-1,-1,0,0,0)"
         x="-141.96788"
         y="-395.10172"
         width="0.99997818"
         height="31.999994"
         style="opacity:1;fill:#dedede;fill-opacity:1;stroke-width:1" />
    </g>
    <g
       id="pressed-top"
       transform="matrix(1,0,0,-1,4.9121089e-6,243.93603)">
      <rect
         id="rect1058"
         transform="matrix(0,-1,-1,0,0,0)"
         x="-142.96788"
         y="-395.10172"
         width="1"
         height="32"
         style="opacity:1;fill:#2f344d;fill-opacity:0.58836664" />
      <rect
         id="rect1060"
         transform="matrix(0,-1,-1,0,0,0)"
         x="-143.96812"
         y="-395.10172"
         width="1.0002247"
         height="32.000008"
         style="opacity:1;fill:none;fill-opacity:1;stroke-width:1.00000012" />
      <rect
         id="rect1062"
         transform="matrix(0,-1,-1,0,0,0)"
         x="-141.96788"
         y="-395.10172"
         width="3.9997001"
         height="32.000008"
         style="opacity:1;fill:#bcc4ca;fill-opacity:1;stroke-width:1" />
      <rect
         style="opacity:1;fill:#a0a0a0;fill-opacity:1;stroke-width:1"
         height="31.999994"
         width="0.99997818"
         y="-395.10172"
         x="-141.96788"
         transform="matrix(0,-1,-1,0,0,0)"
         id="rect1064" />
    </g>
    <g
       id="pressed-topright">
      <rect
         y="99.967903"
         x="-401.10172"
         height="6"
         width="6"
         id="rect1158"
         style="opacity:1;fill:none;fill-opacity:1;stroke:none;stroke-width:0.49999997;stroke-linecap:round;stroke-linejoin:round;stroke-miterlimit:4;stroke-dasharray:none;stroke-opacity:1"
         transform="scale(-1,1)" />
      <path
         inkscape:connector-curvature="0"
         id="path1160"
         d="m 395.10172,101.9679 v 4 h 4 v -2 a 2.000005,2.000001 0 0 0 -2,-2 z"
         style="opacity:1;fill:#bcc4ca;fill-opacity:1;stroke:none;stroke-width:0.49999997;stroke-linecap:round;stroke-linejoin:round;stroke-miterlimit:4;stroke-dasharray:none;stroke-opacity:1" />
      <path
         inkscape:connector-curvature="0"
         style="opacity:1;fill:#2f344d;fill-opacity:0.58836664;stroke:none;stroke-width:0.5;stroke-linecap:round;stroke-linejoin:round;stroke-miterlimit:4;stroke-dasharray:none;stroke-opacity:1"
         d="m 395.10172,100.9679 v 1 h 2 a 2.000005,2.000001 0 0 1 2,2 v 2 h 1 v -2 a 3,3 0 0 0 -3,-3 z"
         id="path1162" />
      <path
         style="opacity:1;fill:#a0a0a0;fill-opacity:1;stroke:none;stroke-width:0.49999997;stroke-linecap:round;stroke-linejoin:round;stroke-miterlimit:4;stroke-dasharray:none;stroke-opacity:1"
         d="m 395.10172,101.9679 v 1 h 3.73047 a 2.000005,2.000001 0 0 0 -1.73047,-1 z"
         id="path1074"
         inkscape:connector-curvature="0" />
    </g>
    <g
       id="pressed-topleft"
       transform="matrix(-1,0,0,1,758.20344,-1.0541992e-6)">
      <rect
         transform="scale(-1,1)"
         style="opacity:1;fill:none;fill-opacity:1;stroke:none;stroke-width:0.49999997;stroke-linecap:round;stroke-linejoin:round;stroke-miterlimit:4;stroke-dasharray:none;stroke-opacity:1"
         id="rect1091"
         width="6"
         height="6"
         x="-401.10172"
         y="99.967903" />
      <path
         style="opacity:1;fill:#bcc4ca;fill-opacity:1;stroke:none;stroke-width:0.49999997;stroke-linecap:round;stroke-linejoin:round;stroke-miterlimit:4;stroke-dasharray:none;stroke-opacity:1"
         d="m 395.10172,101.9679 v 4 h 4 v -2 a 2.000005,2.000001 0 0 0 -2,-2 z"
         id="path1093"
         inkscape:connector-curvature="0" />
      <path
         id="path1095"
         d="m 395.10172,100.9679 v 1 h 2 a 2.000005,2.000001 0 0 1 2,2 v 2 h 1 v -2 a 3,3 0 0 0 -3,-3 z"
         style="opacity:1;fill:#2f344d;fill-opacity:0.58836664;stroke:none;stroke-width:0.5;stroke-linecap:round;stroke-linejoin:round;stroke-miterlimit:4;stroke-dasharray:none;stroke-opacity:1"
         inkscape:connector-curvature="0" />
      <path
         inkscape:connector-curvature="0"
         id="path1097"
         d="m 395.10172,101.9679 v 1 h 3.73047 a 2.000005,2.000001 0 0 0 -1.73047,-1 z"
         style="opacity:1;fill:#a0a0a0;fill-opacity:1;stroke:none;stroke-width:0.49999997;stroke-linecap:round;stroke-linejoin:round;stroke-miterlimit:4;stroke-dasharray:none;stroke-opacity:1" />
    </g>
    <g
       id="pressed-bottomright"
       transform="matrix(1,0,0,-1,4.9121089e-6,243.93581)">
      <rect
         transform="scale(-1,1)"
         style="opacity:1;fill:none;fill-opacity:1;stroke:none;stroke-width:0.49999997;stroke-linecap:round;stroke-linejoin:round;stroke-miterlimit:4;stroke-dasharray:none;stroke-opacity:1"
         id="rect1101"
         width="6"
         height="6"
         x="-401.10172"
         y="99.967903" />
      <path
         style="opacity:1;fill:#bcc4ca;fill-opacity:1;stroke:none;stroke-width:0.49999997;stroke-linecap:round;stroke-linejoin:round;stroke-miterlimit:4;stroke-dasharray:none;stroke-opacity:1"
         d="m 395.10172,101.9679 v 4 h 4 v -2 a 2.000005,2.000001 0 0 0 -2,-2 z"
         id="path1103"
         inkscape:connector-curvature="0" />
      <path
         id="path1105"
         d="m 395.10172,100.9679 v 1 h 2 a 2.000005,2.000001 0 0 1 2,2 v 2 h 1 v -2 a 3,3 0 0 0 -3,-3 z"
         style="opacity:1;fill:#2f344d;fill-opacity:0.58836664;stroke:none;stroke-width:0.5;stroke-linecap:round;stroke-linejoin:round;stroke-miterlimit:4;stroke-dasharray:none;stroke-opacity:1"
         inkscape:connector-curvature="0" />
      <path
         inkscape:connector-curvature="0"
         id="path1107"
         d="m 395.10172,101.9679 v 1 h 3.73047 a 2.000005,2.000001 0 0 0 -1.73047,-1 z"
         style="opacity:1;fill:#dedede;fill-opacity:1;stroke:none;stroke-width:0.49999997;stroke-linecap:round;stroke-linejoin:round;stroke-miterlimit:4;stroke-dasharray:none;stroke-opacity:1" />
    </g>
    <g
       id="pressed-bottomleft"
       transform="rotate(-180,379.10172,121.96791)">
      <rect
         transform="scale(-1,1)"
         style="opacity:1;fill:none;fill-opacity:1;stroke:none;stroke-width:0.49999997;stroke-linecap:round;stroke-linejoin:round;stroke-miterlimit:4;stroke-dasharray:none;stroke-opacity:1"
         id="rect1111"
         width="6"
         height="6"
         x="-401.10172"
         y="99.967903" />
      <path
         style="opacity:1;fill:#bcc4ca;fill-opacity:1;stroke:none;stroke-width:0.49999997;stroke-linecap:round;stroke-linejoin:round;stroke-miterlimit:4;stroke-dasharray:none;stroke-opacity:1"
         d="m 395.10172,101.9679 v 4 h 4 v -2 a 2.000005,2.000001 0 0 0 -2,-2 z"
         id="path1113"
         inkscape:connector-curvature="0" />
      <path
         id="path1115"
         d="m 395.10172,100.9679 v 1 h 2 a 2.000005,2.000001 0 0 1 2,2 v 2 h 1 v -2 a 3,3 0 0 0 -3,-3 z"
         style="opacity:1;fill:#2f344d;fill-opacity:0.58836664;stroke:none;stroke-width:0.5;stroke-linecap:round;stroke-linejoin:round;stroke-miterlimit:4;stroke-dasharray:none;stroke-opacity:1"
         inkscape:connector-curvature="0" />
      <path
         inkscape:connector-curvature="0"
         id="path1117"
         d="m 395.10172,101.9679 v 1 h 3.73047 a 2.000005,2.000001 0 0 0 -1.73047,-1 z"
         style="opacity:1;fill:#dedede;fill-opacity:1;stroke:none;stroke-width:0.49999997;stroke-linecap:round;stroke-linejoin:round;stroke-miterlimit:4;stroke-dasharray:none;stroke-opacity:1" />
    </g>
    <g
       id="toolbutton-hover-top"
       transform="translate(-11.999995,-7.0000058)">
      <rect
         transform="scale(1,-1)"
         style="opacity:1;fill:none;fill-opacity:1;stroke:none;stroke-width:1.5;stroke-linecap:round;stroke-miterlimit:4;stroke-dasharray:none;stroke-opacity:1"
         id="rect1654"
         width="3.9999998"
         height="0.99999589"
         x="327.10172"
         y="-176.9679" />
      <rect
         transform="scale(1,-1)"
         style="opacity:1;fill:#4d7e9b;fill-opacity:0.94553685;stroke:none;stroke-width:1.5;stroke-linecap:round;stroke-miterlimit:4;stroke-dasharray:none;stroke-opacity:1"
         id="rect1656"
         width="3.9999998"
         height="0.99999589"
         x="327.10172"
         y="-176.96733" />
      <rect
         transform="scale(1,-1)"
         y="-179.96791"
         x="327.10172"
         height="3.0005801"
         width="3.99999"
         id="rect2242"
         style="opacity:1;fill:#1e222c;fill-opacity:1;stroke:none;stroke-width:1.50001;stroke-linecap:round;stroke-miterlimit:4;stroke-dasharray:none;stroke-opacity:1" />
    </g>
    <g
       transform="matrix(1,0,0,-1,-11.999995,367.93581)"
       id="toolbutton-hover-bottom">
      <rect
         y="-176.9679"
         x="327.10172"
         height="0.99999589"
         width="3.9999998"
         id="rect2245"
         style="opacity:1;fill:none;fill-opacity:1;stroke:none;stroke-width:1.5;stroke-linecap:round;stroke-miterlimit:4;stroke-dasharray:none;stroke-opacity:1"
         transform="scale(1,-1)" />
      <rect
         y="-176.96848"
         x="327.10172"
         height="0.99999589"
         width="3.9999998"
         id="rect2247"
         style="opacity:1;fill:#4d7e9b;fill-opacity:0.94553685;stroke:none;stroke-width:1.5;stroke-linecap:round;stroke-miterlimit:4;stroke-dasharray:none;stroke-opacity:1"
         transform="scale(1,-1)" />
      <rect
         style="opacity:1;fill:#1e222c;fill-opacity:1;stroke:none;stroke-width:1.5;stroke-linecap:round;stroke-miterlimit:4;stroke-dasharray:none;stroke-opacity:1"
         id="rect2249"
         width="4.0000048"
         height="2.9994256"
         x="327.10172"
         y="-179.96791"
         transform="scale(1,-1)" />
    </g>
    <rect
       y="175.96733"
       x="371.10172"
       height="4.0000043"
       width="1"
       id="toolbutton-pressed-hint-top-margin"
       style="opacity:1;fill:#008080;fill-opacity:1;fill-rule:evenodd;stroke:none;stroke-width:1.74358;stroke-linecap:square;stroke-linejoin:miter;stroke-miterlimit:4;stroke-dasharray:none;stroke-opacity:1;paint-order:normal" />
    <rect
       style="opacity:1;fill:#008080;fill-opacity:1;fill-rule:evenodd;stroke:none;stroke-width:1.74357;stroke-linecap:square;stroke-linejoin:miter;stroke-miterlimit:4;stroke-dasharray:none;stroke-opacity:1;paint-order:normal"
       id="toolbutton-pressed-hint-bottom-margin"
       width="1"
       height="4.0000248"
       x="371.10172"
       y="180.9673" />
    <rect
       style="opacity:1;fill:#008080;fill-opacity:1;fill-rule:evenodd;stroke:none;stroke-width:1.74357;stroke-linecap:square;stroke-linejoin:miter;stroke-miterlimit:4;stroke-dasharray:none;stroke-opacity:1;paint-order:normal"
       id="toolbutton-pressed-hint-left-margin"
       width="3.999985"
       height="1"
       x="367.10172"
       y="179.96733" />
    <rect
       y="179.96733"
       x="372.10172"
       height="1"
       width="3.999995"
       id="toolbutton-pressed-hint-right-margin"
       style="opacity:1;fill:#008080;fill-opacity:1;fill-rule:evenodd;stroke:none;stroke-width:1.74357;stroke-linecap:square;stroke-linejoin:miter;stroke-miterlimit:4;stroke-dasharray:none;stroke-opacity:1;paint-order:normal" />
    <g
       id="toolbutton-hover-right">
      <rect
         style="fill:#1e222c;fill-opacity:1;stroke:none;stroke-width:1.06068;stroke-linecap:round;stroke-miterlimit:4;stroke-dasharray:none;stroke-opacity:1"
         id="rect2220"
         width="2.999995"
         height="15.000582"
         x="319.10172"
         y="172.96733" />
      <rect
         style="fill:none;fill-opacity:1;stroke:none;stroke-width:1.5;stroke-linecap:round;stroke-miterlimit:4;stroke-dasharray:none;stroke-opacity:1"
         id="rect1732"
         width="1.0000001"
         height="15"
         x="322.10172"
         y="172.96791" />
      <rect
         y="172.96733"
         x="322.10172"
         height="15"
         width="1.0000001"
         id="rect1734"
         style="fill:#4d7e9b;fill-opacity:0.94553685;stroke:none;stroke-width:1.5;stroke-linecap:round;stroke-miterlimit:4;stroke-dasharray:none;stroke-opacity:1" />
    </g>
    <g
       id="toolbutton-hover-left"
       transform="matrix(-1,0,0,1,634.20343,-5.857666e-4)">
      <rect
         style="fill:#1e222c;fill-opacity:1;stroke:none;stroke-width:1.06068;stroke-linecap:round;stroke-miterlimit:4;stroke-dasharray:none;stroke-opacity:1"
         id="rect19017"
         width="2.9999971"
         height="14.99999"
         x="319.10175"
         y="172.96791" />
      <rect
         style="fill:none;fill-opacity:1;stroke:none;stroke-width:1.5;stroke-linecap:round;stroke-miterlimit:4;stroke-dasharray:none;stroke-opacity:1"
         id="rect19019"
         width="1.0000001"
         height="15"
         x="322.10172"
         y="172.96791" />
      <rect
         y="172.96791"
         x="322.10172"
         height="15"
         width="1.0000001"
         id="rect19021"
         style="fill:#4d7e9b;fill-opacity:0.94553685;stroke:none;stroke-width:1.5;stroke-linecap:round;stroke-miterlimit:4;stroke-dasharray:none;stroke-opacity:1" />
    </g>
    <rect
       style="fill:#1e222c;fill-opacity:1;stroke-width:2.5;stroke-linecap:round;stroke-linejoin:round;stroke-opacity:0.904689"
       id="toolbutton-hover-center"
       width="4"
       height="15"
       x="315.10172"
       y="172.96733" />
    <g
       id="toolbutton-hover-topleft"
       transform="translate(-12.000005,2.9999941)">
      <path
         id="path89395"
         style="opacity:1;fill:#4d7e9b;fill-opacity:0.94553685;stroke-width:2.5;stroke-linecap:round;stroke-linejoin:round;stroke-opacity:0.904689"
         d="m 327.10171,165.96732 a 4,4 0 0 0 -2.82812,1.17188 4,4 0 0 0 -1.17188,2.82812 h 1 a 3,3 0 0 1 3,-3 z" />
      <path
         style="opacity:1;fill:#1e222c;fill-opacity:1;stroke-width:2.16506;stroke-linecap:round;stroke-linejoin:round;stroke-opacity:0.904689"
         id="path89399"
         sodipodi:type="arc"
         sodipodi:cx="327.10172"
         sodipodi:cy="169.96733"
         sodipodi:rx="3"
         sodipodi:ry="3"
         sodipodi:start="3.1415927"
         sodipodi:end="4.712389"
         sodipodi:arc-type="slice"
         d="m 324.10172,169.96733 a 3,3 0 0 1 3,-3 v 3 z" />
    </g>
    <use
       x="0"
       y="0"
       xlink:href="#toolbutton-hover-topleft"
       id="toolbutton-hover-topright"
       transform="matrix(-1,0,0,1,634.20341,0)" />
    <use
       x="0"
       y="0"
       xlink:href="#toolbutton-hover-topleft"
       id="toolbutton-hover-bottomleft"
       transform="matrix(1,0,0,-1,-8.7890385e-8,360.93465)" />
    <use
       x="0"
       y="0"
       xlink:href="#toolbutton-hover-topleft"
       id="toolbutton-hover-bottomright"
       transform="rotate(180,317.10171,180.46732)" />
    <rect
       style="fill:#1e222c;fill-opacity:1;stroke-width:2.5;stroke-linecap:round;stroke-linejoin:round;stroke-opacity:0.904689"
       id="toolbutton-pressed-center"
       width="4"
       height="15"
       x="331.10172"
       y="172.96733" />
    <use
       x="0"
       y="0"
       xlink:href="#toolbutton-pressed-center"
       id="toolbutton-pressed-right"
       transform="translate(3.9999949)" />
    <use
       x="0"
       y="0"
       xlink:href="#toolbutton-pressed-center"
       id="toolbutton-pressed-left"
       transform="translate(-4.0000051)" />
    <rect
       style="fill:#1e222c;fill-opacity:1;stroke-width:2.5;stroke-linecap:round;stroke-linejoin:round;stroke-opacity:0.904689"
       id="toolbutton-pressed-top"
       width="4"
       height="4"
       x="331.10172"
       y="168.96733" />
    <use
       x="0"
       y="0"
       xlink:href="#toolbutton-pressed-top"
       id="toolbutton-pressed-bottom"
       transform="translate(-5.0878904e-6,18.999994)" />
    <path
       style="fill:#1e222c;fill-opacity:1;stroke-width:2.16506;stroke-linecap:round;stroke-linejoin:round;stroke-opacity:0.904689"
       id="toolbutton-pressed-topleft"
       sodipodi:type="arc"
       sodipodi:cx="331.10172"
       sodipodi:cy="172.96733"
       sodipodi:rx="4"
       sodipodi:ry="4"
       sodipodi:start="3.1415927"
       sodipodi:end="4.712389"
       sodipodi:arc-type="slice"
       d="m 327.10172,172.96733 a 4,4 0 0 1 4,-4 v 4 z" />
    <use
       x="0"
       y="0"
       xlink:href="#toolbutton-pressed-topleft"
       id="toolbutton-pressed-topright"
       transform="matrix(-1,0,0,1,666.20343,0)" />
    <use
       x="0"
       y="0"
       xlink:href="#toolbutton-pressed-topleft"
       id="toolbutton-pressed-bottomleft"
       transform="matrix(1,0,0,-1,-5.0878904e-6,360.93466)" />
    <use
       x="0"
       y="0"
       xlink:href="#toolbutton-pressed-topleft"
       id="toolbutton-pressed-bottomright"
       transform="rotate(180,333.10171,180.46733)" />
  </g>
</svg>
