<?xml version="1.0" encoding="UTF-8" standalone="no"?>
<!-- Created with Inkscape (http://www.inkscape.org/) -->

<svg
   width="172.00005"
   height="79.499405"
   viewBox="0 0 172.00005 79.499421"
   version="1.1"
   id="svg8"
   inkscape:version="1.3 (0e150ed6c4, 2023-07-21)"
   sodipodi:docname="button.svg"
   xmlns:inkscape="http://www.inkscape.org/namespaces/inkscape"
   xmlns:sodipodi="http://sodipodi.sourceforge.net/DTD/sodipodi-0.dtd"
   xmlns:xlink="http://www.w3.org/1999/xlink"
   xmlns="http://www.w3.org/2000/svg"
   xmlns:svg="http://www.w3.org/2000/svg"
   xmlns:rdf="http://www.w3.org/1999/02/22-rdf-syntax-ns#"
   xmlns:cc="http://creativecommons.org/ns#"
   xmlns:dc="http://purl.org/dc/elements/1.1/">
  <defs
     id="defs2">
    <linearGradient
       id="linearGradient96"
       inkscape:collect="always">
      <stop
         style="stop-color:#718995;stop-opacity:1;"
         offset="0"
         id="stop93" />
      <stop
         style="stop-color:#646b6d;stop-opacity:1;"
         offset="0.49882975"
         id="stop94" />
      <stop
         style="stop-color:#292d3b;stop-opacity:1;"
         offset="0.49999967"
         id="stop95" />
      <stop
         style="stop-color:#3b494e;stop-opacity:1;"
         offset="1"
         id="stop96" />
    </linearGradient>
    <linearGradient
       gradientTransform="translate(20.101724,-273.56184)"
       gradientUnits="userSpaceOnUse"
       y2="374.52917"
       x2="214.99998"
       y1="416.52911"
       x1="214.99998"
       id="linearGradient4016-301"
       xlink:href="#linearGradient7226"
       inkscape:collect="always" />
    <linearGradient
       gradientUnits="userSpaceOnUse"
       y2="-67.739914"
       x2="1076.2"
       y1="-25.740078"
       x1="1076.2"
       id="linearGradient4038-782"
       xlink:href="#linearGradient7226"
       inkscape:collect="always"
       gradientTransform="matrix(5.0000169,0,0,1.0000179,-4306.8181,2.6464623e-4)" />
    <linearGradient
       gradientUnits="userSpaceOnUse"
       y2="-67.739868"
       x2="1077.2"
       y1="-25.740988"
       x1="1077.2"
       id="linearGradient4030-85"
       xlink:href="#linearGradient7226"
       inkscape:collect="always"
       gradientTransform="matrix(4.9999534,0,0,1.0000265,-4306.7496,8.1910121e-4)" />
    <linearGradient
       inkscape:collect="always"
       xlink:href="#linearGradient7226"
       id="linearGradient1604"
       x1="1075.2003"
       y1="-62.740002"
       x2="1108.8036"
       y2="-62.739979"
       gradientUnits="userSpaceOnUse"
       gradientTransform="matrix(1.2498778,0,0,1.0000006,-269.66809,3.4756892e-5)" />
    <linearGradient
       inkscape:collect="always"
       xlink:href="#linearGradient7226"
       id="linearGradient1628"
       x1="142.96732"
       y1="-237.1017"
       x2="100.96733"
       y2="-237.1017"
       gradientUnits="userSpaceOnUse"
       gradientTransform="matrix(1.2499912,0,0,1,-26.491122,0)" />
    <linearGradient
       id="linearGradient7226"
       inkscape:collect="always">
      <stop
         id="stop7218"
         offset="0"
         style="stop-color:#c2d8e4;stop-opacity:1;opacity:1" />
      <stop
         style="stop-color:#d3e4ed;stop-opacity:1;opacity:1"
         offset="0.49999979"
         id="stop7220" />
      <stop
         style="stop-color:#e7f0f4;stop-opacity:1;opacity:1"
         offset="0.5"
         id="stop7222" />
      <stop
         id="stop7224"
         offset="1"
         style="stop-color:#eef4f8;stop-opacity:1;opacity:1" />
    </linearGradient>
    <linearGradient
       inkscape:collect="always"
       xlink:href="#linearGradient7226"
       id="linearGradient7"
       x1="267.10178"
       y1="205.96736"
       x2="267.10172"
       y2="100.96733"
       gradientUnits="userSpaceOnUse"
       gradientTransform="matrix(0.40000103,0,0,0.39999973,170.26073,60.580444)" />
    <linearGradient
       inkscape:collect="always"
       xlink:href="#linearGradient7226"
       id="linearGradient21"
       gradientUnits="userSpaceOnUse"
       gradientTransform="matrix(0.40000103,0,0,0.39999973,170.26073,60.580444)"
       x1="267.10178"
       y1="205.96736"
       x2="267.10172"
       y2="100.96733" />
    <linearGradient
       inkscape:collect="always"
       xlink:href="#linearGradient7226"
       id="linearGradient25"
       gradientUnits="userSpaceOnUse"
       gradientTransform="matrix(0.40000103,0,0,0.39999973,170.26073,60.580444)"
       x1="264.60181"
       y1="100.96731"
       x2="264.60181"
       y2="205.96736" />
    <linearGradient
       inkscape:collect="always"
       xlink:href="#linearGradient7226"
       id="linearGradient27"
       gradientUnits="userSpaceOnUse"
       gradientTransform="matrix(0.40000103,0,0,0.39999973,170.26073,60.580444)"
       x1="264.60181"
       y1="100.96731"
       x2="264.60181"
       y2="205.96736" />
    <linearGradient
       inkscape:collect="always"
       xlink:href="#linearGradient96"
       id="linearGradient44"
       x1="318.10172"
       y1="169.96732"
       x2="318.10172"
       y2="189.96732"
       gradientUnits="userSpaceOnUse"
       gradientTransform="translate(14.999988,-17.500016)" />
    <linearGradient
       inkscape:collect="always"
       xlink:href="#linearGradient96"
       id="linearGradient52"
       x1="319.76837"
       y1="169.7529"
       x2="319.76837"
       y2="191.18233"
       gradientUnits="userSpaceOnUse"
       gradientTransform="matrix(1.5000038,0,0,1.0000002,-159.55208,-3.596089e-5)" />
    <linearGradient
       inkscape:collect="always"
       xlink:href="#linearGradient96"
       id="linearGradient54"
       x1="319.76837"
       y1="169.75298"
       x2="319.76837"
       y2="191.18199"
       gradientUnits="userSpaceOnUse"
       gradientTransform="matrix(1.5000139,0,0,1.0000188,-159.5553,-0.00354022)" />
    <linearGradient
       inkscape:collect="always"
       xlink:href="#linearGradient96"
       id="linearGradient91"
       x1="316.10172"
       y1="-169.96732"
       x2="316.10172"
       y2="-189.96732"
       gradientUnits="userSpaceOnUse" />
    <linearGradient
       inkscape:collect="always"
       xlink:href="#linearGradient96"
       id="linearGradient93"
       gradientUnits="userSpaceOnUse"
       x1="317.10172"
       y1="-189.96675"
       x2="317.10172"
       y2="-169.96733" />
    <linearGradient
       inkscape:collect="always"
       xlink:href="#linearGradient96"
       id="linearGradient98"
       x1="314.10172"
       y1="169.96732"
       x2="314.10172"
       y2="188.96732"
       gradientUnits="userSpaceOnUse" />
    <linearGradient
       inkscape:collect="always"
       xlink:href="#linearGradient96"
       id="linearGradient100"
       gradientUnits="userSpaceOnUse"
       x1="314.10172"
       y1="169.96732"
       x2="314.10172"
       y2="188.96732" />
    <linearGradient
       inkscape:collect="always"
       xlink:href="#linearGradient96"
       id="linearGradient103"
       gradientUnits="userSpaceOnUse"
       x1="314.09192"
       y1="188.96733"
       x2="314.09192"
       y2="169.96733" />
    <linearGradient
       inkscape:collect="always"
       xlink:href="#linearGradient96"
       id="linearGradient106"
       gradientUnits="userSpaceOnUse"
       x1="314.09192"
       y1="188.96733"
       x2="314.09192"
       y2="169.96733" />
  </defs>
  <style
     id="current-color-scheme"
     type="text/css">&#10;      .ColorScheme-Text {&#10;      }&#10;      .ColorScheme-Background{&#10;      }&#10;      .ColorScheme-Highlight{&#10;      }&#10;      .ColorScheme-ViewText {&#10;      }&#10;      .ColorScheme-ViewBackground{&#10;      }&#10;      .ColorScheme-ViewHover {&#10;      }&#10;      .ColorScheme-ViewFocus{&#10;      }&#10;      .ColorScheme-ButtonText {&#10;      }&#10;      .ColorScheme-ButtonBackground{&#10;      }&#10;      .ColorScheme-ButtonHover {&#10;      }&#10;      .ColorScheme-ButtonFocus{&#10;      }&#10;  </style>
  <sodipodi:namedview
     id="base"
     pagecolor="#d1d1d1"
     bordercolor="#666666"
     borderopacity="1.0"
     inkscape:pageopacity="0"
     inkscape:pageshadow="2"
     inkscape:zoom="2.8284271"
     inkscape:cx="82.201163"
     inkscape:cy="18.73833"
     inkscape:document-units="px"
     inkscape:current-layer="layer1"
     showgrid="true"
     units="px"
     inkscape:pagecheckerboard="true"
     inkscape:showpageshadow="false"
     fit-margin-top="10"
     fit-margin-left="10"
     fit-margin-right="10"
     fit-margin-bottom="10"
     inkscape:snap-global="true"
     inkscape:snap-bbox="true"
     inkscape:bbox-paths="true"
     inkscape:bbox-nodes="true"
     inkscape:snap-nodes="true"
     inkscape:deskcolor="#d1d1d1"
     borderlayer="false"
     showguides="true">
    <inkscape:grid
       originy="-137.00057"
       originx="-229"
       id="grid6947"
       type="xygrid"
       spacingy="1"
       spacingx="1"
       units="px"
       visible="true" />
  </sodipodi:namedview>
  <metadata
     id="metadata5">
    <rdf:RDF>
      <cc:Work
         rdf:about="">
        <dc:format>image/svg+xml</dc:format>
        <dc:type
           rdf:resource="http://purl.org/dc/dcmitype/StillImage" />
      </cc:Work>
    </rdf:RDF>
  </metadata>
  <g
     inkscape:label="Layer 1"
     inkscape:groupmode="layer"
     id="layer1"
     transform="translate(-229.1017,-94.967903)">
    <rect
       y="146.96732"
       x="274.60172"
       height="6"
       width="1"
       id="normal-hint-top-margin"
       style="opacity:0.5;fill:#008080;fill-opacity:1;fill-rule:evenodd;stroke:none;stroke-width:2.13543;stroke-linecap:square;stroke-linejoin:miter;stroke-miterlimit:4;stroke-dasharray:none;stroke-opacity:1;paint-order:normal" />
    <rect
       style="opacity:0.5;fill:#008080;fill-opacity:1;fill-rule:evenodd;stroke:none;stroke-width:2.13543;stroke-linecap:square;stroke-linejoin:miter;stroke-miterlimit:4;stroke-dasharray:none;stroke-opacity:1;paint-order:normal"
       id="normal-hint-bottom-margin"
       width="1"
       height="6"
       x="274.60172"
       y="153.96732" />
    <rect
       style="opacity:0.5;fill:#008080;fill-opacity:1;fill-rule:evenodd;stroke:none;stroke-width:2.13543;stroke-linecap:square;stroke-linejoin:miter;stroke-miterlimit:4;stroke-dasharray:none;stroke-opacity:1;paint-order:normal"
       id="normal-hint-left-margin"
       width="6"
       height="1"
       x="268.60172"
       y="152.96732" />
    <rect
       y="152.96732"
       x="275.60172"
       height="1"
       width="6"
       id="normal-hint-right-margin"
       style="opacity:0.5;fill:#008080;fill-opacity:1;fill-rule:evenodd;stroke:none;stroke-width:2.13543;stroke-linecap:square;stroke-linejoin:miter;stroke-miterlimit:4;stroke-dasharray:none;stroke-opacity:1;paint-order:normal" />
    <rect
       y="148.46678"
       x="290.10172"
       height="4.0005326"
       width="1"
       id="toolbutton-hover-hint-top-margin"
       style="opacity:0.47;fill:#008080;fill-opacity:1;fill-rule:evenodd;stroke:none;stroke-width:1.7437;stroke-linecap:square;stroke-linejoin:miter;stroke-miterlimit:4;stroke-dasharray:none;stroke-opacity:1;paint-order:normal" />
    <rect
       style="opacity:0.47;fill:#008080;fill-opacity:1;fill-rule:evenodd;stroke:none;stroke-width:1.74357;stroke-linecap:square;stroke-linejoin:miter;stroke-miterlimit:4;stroke-dasharray:none;stroke-opacity:1;paint-order:normal"
       id="toolbutton-hover-hint-bottom-margin"
       width="1"
       height="3.999994"
       x="290.10172"
       y="153.46678" />
    <rect
       style="opacity:0.47;fill:#008080;fill-opacity:1;fill-rule:evenodd;stroke:none;stroke-width:1.74357;stroke-linecap:square;stroke-linejoin:miter;stroke-miterlimit:4;stroke-dasharray:none;stroke-opacity:1;paint-order:normal"
       id="toolbutton-hover-hint-left-margin"
       width="3.999985"
       height="1"
       x="286.10172"
       y="152.46732" />
    <rect
       y="152.46732"
       x="291.10172"
       height="1"
       width="3.999995"
       id="toolbutton-hover-hint-right-margin"
       style="opacity:0.47;fill:#008080;fill-opacity:1;fill-rule:evenodd;stroke:none;stroke-width:1.74357;stroke-linecap:square;stroke-linejoin:miter;stroke-miterlimit:4;stroke-dasharray:none;stroke-opacity:1;paint-order:normal" />
    <rect
       style="opacity:0.5;fill:#008080;fill-opacity:1;stroke:none;stroke-width:3;stroke-linecap:round;stroke-miterlimit:4;stroke-dasharray:none;stroke-opacity:1"
       id="hint-stretch-borders"
       width="2"
       height="2"
       x="280.10172"
       y="138.96732" />
    <rect
       y="148.23195"
       x="281.59171"
       height="1.0027095"
       width="0.0099999998"
       id="hover-hint-left-margin"
       style="opacity:0.5;fill:#008080;fill-opacity:1;stroke:none;stroke-width:0.755929" />
    <rect
       style="opacity:0.5;fill:#008080;fill-opacity:1;stroke:none;stroke-width:0.75593"
       id="hover-hint-top-margin"
       width="1.0000049"
       height="0.010000004"
       x="281.60172"
       y="148.21466" />
    <rect
       y="149.22466"
       x="281.60172"
       height="0.0099999998"
       width="1.0000049"
       id="hover-hint-bottom-margin"
       style="opacity:0.5;fill:#008080;fill-opacity:1;stroke:none;stroke-width:0.755929" />
    <rect
       style="opacity:0.5;fill:#008080;fill-opacity:1;stroke:none;stroke-width:0.755929"
       id="hover-hint-right-margin"
       width="0.0099999998"
       height="0.99999344"
       x="282.60172"
       y="148.22466" />
    <g
       id="normal-bottom"
       transform="matrix(1,0,0,-1,204.36172,1217.1682)">
      <rect
         style="opacity:1;fill:#373e5b;fill-opacity:0.461905"
         height="32"
         width="1"
         y="-62.739983"
         x="1073.2009"
         transform="rotate(90)"
         id="rect5668" />
      <rect
         style="opacity:1;fill:none;fill-opacity:1;stroke-width:1"
         height="32.000008"
         width="1.0002247"
         y="-62.740009"
         x="1073.2001"
         transform="rotate(90)"
         id="rect5670" />
      <rect
         style="opacity:1;fill:url(#linearGradient1604);fill-opacity:1;stroke-width:1"
         height="32.000027"
         width="4.9991364"
         y="-62.740013"
         x="1074.2009"
         transform="rotate(90)"
         id="rect5674" />
    </g>
    <g
       id="normal-right"
       transform="matrix(0,-1,-1,0,1346.3017,168.70817)">
      <rect
         style="opacity:1;fill:#373e5b;fill-opacity:0.461905"
         height="32"
         width="1"
         y="-62.740265"
         x="1073.2"
         transform="rotate(90)"
         id="rect5704" />
      <rect
         style="opacity:1;fill:none;fill-opacity:1;stroke-width:1"
         height="32.000271"
         width="1.0000288"
         y="-62.740265"
         x="1073.2"
         transform="rotate(90)"
         id="rect5706" />
      <rect
         style="opacity:1;fill:url(#linearGradient4030-85);fill-opacity:1;stroke-width:1"
         height="32.000851"
         width="4.9999533"
         y="-62.740845"
         x="1074.2"
         transform="rotate(90)"
         id="rect5710" />
    </g>
    <g
       id="normal-left"
       transform="rotate(-90,-337.69502,506.40321)">
      <rect
         style="opacity:1;fill:#373e5b;fill-opacity:0.461905"
         height="32"
         width="1"
         y="-62.740864"
         x="1073.2"
         transform="rotate(90)"
         id="rect5714" />
      <rect
         style="opacity:1;fill:none;fill-opacity:1;stroke-width:1"
         height="31.999714"
         width="0.99999881"
         y="-62.740002"
         x="1073.2"
         transform="rotate(90)"
         id="rect5716" />
      <rect
         style="opacity:1;fill:url(#linearGradient4038-782);fill-opacity:1;stroke-width:1"
         height="32.000576"
         width="5.0000167"
         y="-62.74086"
         x="1074.1998"
         transform="rotate(90)"
         id="rect5720" />
    </g>
    <rect
       style="opacity:1;fill:url(#linearGradient4016-301);fill-opacity:1;stroke:none;stroke-width:1.27953;stroke-miterlimit:4;stroke-dasharray:none;stroke-opacity:0.18663"
       id="normal-center"
       width="32"
       height="32"
       x="235.10172"
       y="105.96817" />
    <rect
       y="104.96733"
       x="298.10083"
       height="32"
       width="32"
       id="hover-center"
       style="opacity:1;fill:none;fill-opacity:0.632353;stroke:none;stroke-width:1;stroke-linecap:round;stroke-miterlimit:4;stroke-dasharray:none;stroke-opacity:1" />
    <g
       id="hover-left"
       transform="matrix(1,0,0,2.1333309,26.99912,-347.23032)"
       style="stroke-width:0.684654">
      <rect
         transform="scale(-1,1)"
         style="opacity:1;fill:none;fill-opacity:1;stroke:none;stroke-width:0.684654;stroke-linecap:round;stroke-miterlimit:4;stroke-dasharray:none;stroke-opacity:1"
         id="rect5791"
         width="3"
         height="15.000002"
         x="-271.10172"
         y="211.96791" />
      <rect
         y="211.96815"
         x="-266.1026"
         height="15.000002"
         width="0.99999988"
         id="rect5784"
         style="opacity:1;fill:#0f222d;fill-opacity:1;stroke:none;stroke-width:0.684654;stroke-linecap:round;stroke-miterlimit:4;stroke-dasharray:none;stroke-opacity:1"
         transform="scale(-1,1)" />
      <rect
         y="211.9679"
         x="-266.10172"
         height="15.000002"
         width="0.99999988"
         id="rect5796"
         style="opacity:1;fill:none;fill-opacity:1;stroke:none;stroke-width:0.684654;stroke-linecap:round;stroke-miterlimit:4;stroke-dasharray:none;stroke-opacity:1"
         transform="scale(-1,1)" />
    </g>
    <g
       id="hover-right"
       transform="matrix(-1,0,0,2.1333309,601.20255,-347.23032)"
       style="stroke-width:0.684654">
      <rect
         y="211.96791"
         x="-271.10172"
         height="15.000002"
         width="3"
         id="rect5804"
         style="opacity:1;fill:none;fill-opacity:1;stroke:none;stroke-width:0.684654;stroke-linecap:round;stroke-miterlimit:4;stroke-dasharray:none;stroke-opacity:1"
         transform="scale(-1,1)" />
      <rect
         transform="scale(-1,1)"
         style="opacity:1;fill:#0f222d;fill-opacity:1;stroke:none;stroke-width:0.684654;stroke-linecap:round;stroke-miterlimit:4;stroke-dasharray:none;stroke-opacity:1"
         id="rect5808"
         width="0.99999988"
         height="15.000002"
         x="-266.10083"
         y="211.9679" />
      <rect
         transform="scale(-1,1)"
         style="opacity:1;fill:none;fill-opacity:1;stroke:none;stroke-width:0.684654;stroke-linecap:round;stroke-miterlimit:4;stroke-dasharray:none;stroke-opacity:1"
         id="rect5810"
         width="0.99999988"
         height="15.000002"
         x="-266.10172"
         y="211.9679" />
    </g>
    <g
       id="hover-top"
       transform="matrix(0,1,-2.1333309,0,782.29849,-166.13437)"
       style="stroke-width:0.684654">
      <rect
         y="211.96791"
         x="-271.10172"
         height="15.000002"
         width="3"
         id="rect5814"
         style="opacity:1;fill:none;fill-opacity:1;stroke:none;stroke-width:0.684654;stroke-linecap:round;stroke-miterlimit:4;stroke-dasharray:none;stroke-opacity:1"
         transform="scale(-1,1)" />
      <rect
         transform="scale(-1,1)"
         style="opacity:1;fill:#0f222d;fill-opacity:1;stroke:none;stroke-width:0.684654;stroke-linecap:round;stroke-miterlimit:4;stroke-dasharray:none;stroke-opacity:1"
         id="rect5818"
         width="0.99999988"
         height="15.000002"
         x="-266.10168"
         y="211.9675" />
      <rect
         transform="scale(-1,1)"
         style="opacity:1;fill:none;fill-opacity:1;stroke:none;stroke-width:0.684654;stroke-linecap:round;stroke-miterlimit:4;stroke-dasharray:none;stroke-opacity:1"
         id="rect5820"
         width="0.99999988"
         height="15.000002"
         x="-266.10172"
         y="211.9679" />
    </g>
    <g
       id="hover-bottom"
       transform="matrix(0,-1,2.1333309,0,-154.09683,408.06906)"
       style="stroke-width:0.684654">
      <rect
         y="211.96791"
         x="-271.10172"
         height="15.000002"
         width="3"
         id="rect5824"
         style="opacity:1;fill:none;fill-opacity:1;stroke:none;stroke-width:0.684654;stroke-linecap:round;stroke-miterlimit:4;stroke-dasharray:none;stroke-opacity:1"
         transform="scale(-1,1)" />
      <rect
         transform="scale(-1,1)"
         style="opacity:1;fill:#0f222d;fill-opacity:1;stroke:none;stroke-width:0.684654;stroke-linecap:round;stroke-miterlimit:4;stroke-dasharray:none;stroke-opacity:1"
         id="rect5828"
         width="0.99999988"
         height="15.000002"
         x="-266.10175"
         y="211.96831" />
      <rect
         transform="scale(-1,1)"
         style="opacity:1;fill:none;fill-opacity:1;stroke:none;stroke-width:0.684654;stroke-linecap:round;stroke-miterlimit:4;stroke-dasharray:none;stroke-opacity:1"
         id="rect5830"
         width="0.99999988"
         height="15.000002"
         x="-266.10172"
         y="211.9679" />
    </g>
    <g
       id="pressed-right"
       transform="matrix(0,-1,-1,0,1474.3017,168.70817)">
      <rect
         style="opacity:1;fill:#0f222d;fill-opacity:1"
         height="32"
         width="1"
         y="-62.740845"
         x="1073.2"
         transform="rotate(90)"
         id="rect1140" />
      <rect
         style="opacity:1;fill:none;fill-opacity:1;stroke-width:1"
         height="32.000271"
         width="1.0000288"
         y="-62.740265"
         x="1073.2"
         transform="rotate(90)"
         id="rect1142" />
      <rect
         style="opacity:1;fill:#bcc4ca;fill-opacity:1;stroke-width:1"
         height="32.000851"
         width="4.9999466"
         y="30.739994"
         x="1074.2"
         transform="matrix(0,1,1,0,0,0)"
         id="rect1144" />
    </g>
    <g
       id="pressed-left"
       transform="rotate(-90,-273.69502,442.40321)">
      <rect
         style="opacity:1;fill:#0f222d;fill-opacity:1"
         height="32"
         width="1"
         y="-62.740002"
         x="1073.2"
         transform="rotate(90)"
         id="rect1148" />
      <rect
         style="opacity:1;fill:none;fill-opacity:1;stroke-width:1"
         height="31.999714"
         width="0.99999881"
         y="-62.740002"
         x="1073.2"
         transform="rotate(90)"
         id="rect1150" />
      <rect
         style="opacity:1;fill:#bcc4ca;fill-opacity:1;stroke-width:1"
         height="32.000576"
         width="5.0000234"
         y="30.740286"
         x="1074.2"
         transform="matrix(0,1,1,0,0,0)"
         id="rect1152" />
    </g>
    <rect
       style="opacity:1;fill:#bcc4ca;fill-opacity:1;stroke:none;stroke-width:1.27953;stroke-miterlimit:4;stroke-dasharray:none;stroke-opacity:0.18663"
       id="pressed-center"
       width="32"
       height="32"
       x="363.10172"
       y="-137.96817"
       transform="scale(1,-1)" />
    <g
       id="normal-top">
      <rect
         style="opacity:1;fill:#373e5b;fill-opacity:0.461905"
         height="32"
         width="1"
         y="-267.10172"
         x="99.967331"
         transform="rotate(90)"
         id="rect2089" />
      <rect
         style="opacity:1;fill:none;fill-opacity:1;stroke-width:1"
         height="32.000008"
         width="0.99972093"
         y="-267.10175"
         x="99.968178"
         transform="rotate(90)"
         id="rect2091" />
      <rect
         style="opacity:1;fill:url(#linearGradient1628);fill-opacity:1;stroke-width:1"
         height="32.000011"
         width="5.0003152"
         y="-267.10175"
         x="100.9679"
         transform="rotate(90)"
         id="rect5624" />
    </g>
    <rect
       y="94.967903"
       x="-280.37125"
       height="6"
       width="6"
       id="rect1079"
       style="fill:none;fill-opacity:1;stroke:none;stroke-width:0.5;stroke-linecap:round;stroke-linejoin:round;stroke-miterlimit:4;stroke-dasharray:none;stroke-opacity:1"
       transform="scale(-1,1)" />
    <g
       id="pressed-bottom">
      <rect
         style="opacity:1;fill:#0f222d;fill-opacity:1"
         height="32"
         width="1"
         y="-395.10168"
         x="-143.96732"
         transform="matrix(0,-1,-1,0,0,0)"
         id="rect1132" />
      <rect
         style="opacity:1;fill:none;fill-opacity:1;stroke-width:1"
         height="32.000008"
         width="1.0002247"
         y="-395.10172"
         x="-143.96812"
         transform="matrix(0,-1,-1,0,0,0)"
         id="rect1134" />
      <rect
         style="opacity:1;fill:#bcc4ca;fill-opacity:1;stroke-width:1"
         height="32.000008"
         width="3.9997001"
         y="-395.10172"
         x="-141.96788"
         transform="matrix(0,-1,-1,0,0,0)"
         id="rect1136" />
      <rect
         id="rect1050"
         transform="matrix(0,-1,-1,0,0,0)"
         x="-142.96732"
         y="-395.10168"
         width="0.99997818"
         height="31.999994"
         style="opacity:1;fill:#dedede;fill-opacity:1;stroke-width:1" />
    </g>
    <g
       id="pressed-top"
       transform="matrix(1,0,0,-1,4.9121089e-6,243.93603)">
      <rect
         id="rect1058"
         transform="matrix(0,-1,-1,0,0,0)"
         x="-143.9687"
         y="-395.10168"
         width="1"
         height="32"
         style="opacity:1;fill:#0f222d;fill-opacity:1" />
      <rect
         id="rect1060"
         transform="matrix(0,-1,-1,0,0,0)"
         x="-143.96812"
         y="-395.10172"
         width="1.0002247"
         height="32.000008"
         style="opacity:1;fill:none;fill-opacity:1;stroke-width:1" />
      <rect
         id="rect1062"
         transform="matrix(0,-1,-1,0,0,0)"
         x="-142.9687"
         y="-395.10168"
         width="5.0005226"
         height="31.999983"
         style="opacity:1;fill:#bcc4ca;fill-opacity:1;stroke-width:1" />
    </g>
    <rect
       transform="scale(1,-1)"
       style="fill:none;fill-opacity:1;stroke:none;stroke-width:1.5;stroke-linecap:round;stroke-miterlimit:4;stroke-dasharray:none;stroke-opacity:1"
       id="rect1654"
       width="3.9999998"
       height="0.99999589"
       x="330.10172"
       y="-152.46788" />
    <rect
       y="157.96732"
       x="297.10172"
       height="4.0000043"
       width="1"
       id="toolbutton-pressed-hint-top-margin"
       style="opacity:0.5;fill:#008080;fill-opacity:1;fill-rule:evenodd;stroke:none;stroke-width:1.74358;stroke-linecap:square;stroke-linejoin:miter;stroke-miterlimit:4;stroke-dasharray:none;stroke-opacity:1;paint-order:normal" />
    <rect
       style="opacity:0.5;fill:#008080;fill-opacity:1;fill-rule:evenodd;stroke:none;stroke-width:1.74357;stroke-linecap:square;stroke-linejoin:miter;stroke-miterlimit:4;stroke-dasharray:none;stroke-opacity:1;paint-order:normal"
       id="toolbutton-pressed-hint-bottom-margin"
       width="1"
       height="4.0000248"
       x="297.10172"
       y="162.96729" />
    <rect
       style="opacity:0.5;fill:#008080;fill-opacity:1;fill-rule:evenodd;stroke:none;stroke-width:1.74357;stroke-linecap:square;stroke-linejoin:miter;stroke-miterlimit:4;stroke-dasharray:none;stroke-opacity:1;paint-order:normal"
       id="toolbutton-pressed-hint-left-margin"
       width="3.999985"
       height="1"
       x="293.10172"
       y="161.96732" />
    <rect
       y="161.96732"
       x="298.10172"
       height="1"
       width="3.999995"
       id="toolbutton-pressed-hint-right-margin"
       style="opacity:0.5;fill:#008080;fill-opacity:1;fill-rule:evenodd;stroke:none;stroke-width:1.74357;stroke-linecap:square;stroke-linejoin:miter;stroke-miterlimit:4;stroke-dasharray:none;stroke-opacity:1;paint-order:normal" />
    <rect
       style="fill:none;fill-opacity:1;stroke:none;stroke-width:1.5;stroke-linecap:round;stroke-miterlimit:4;stroke-dasharray:none;stroke-opacity:1"
       id="rect1732"
       width="1.0000001"
       height="15"
       x="337.10172"
       y="155.4679" />
    <rect
       style="fill:url(#linearGradient44);fill-opacity:1;stroke-width:2.5;stroke-linecap:round;stroke-linejoin:round;stroke-opacity:0.904689"
       id="toolbutton-hover-center"
       width="4"
       height="13.999983"
       x="330.10172"
       y="155.46732" />
    <rect
       style="fill:#2a2f3c;fill-opacity:1;stroke-width:2.5;stroke-linecap:round;stroke-linejoin:round;stroke-opacity:0.904689"
       id="toolbutton-pressed-center"
       width="4"
       height="15"
       x="346.10172"
       y="155.46732" />
    <use
       x="0"
       y="0"
       xlink:href="#toolbutton-pressed-center"
       id="toolbutton-pressed-right"
       transform="translate(3.9999953)" />
    <use
       x="0"
       y="0"
       xlink:href="#toolbutton-pressed-center"
       id="toolbutton-pressed-left"
       transform="translate(-4.0000047)" />
    <rect
       style="fill:#2a2f3c;fill-opacity:1;stroke-width:2.5;stroke-linecap:round;stroke-linejoin:round;stroke-opacity:0.904689"
       id="toolbutton-pressed-top"
       width="4"
       height="4"
       x="346.10172"
       y="151.46732" />
    <use
       x="0"
       y="0"
       xlink:href="#toolbutton-pressed-top"
       id="toolbutton-pressed-bottom"
       transform="translate(-4.7164557e-6,18.999994)" />
    <path
       style="fill:#2a2f3c;fill-opacity:1;stroke-width:2.16506;stroke-linecap:round;stroke-linejoin:round;stroke-opacity:0.904689"
       id="toolbutton-pressed-topleft"
       sodipodi:type="arc"
       sodipodi:cx="346.10172"
       sodipodi:cy="155.46732"
       sodipodi:rx="4"
       sodipodi:ry="4"
       sodipodi:start="3.1415927"
       sodipodi:end="4.712389"
       sodipodi:arc-type="slice"
       d="m 342.10172,155.46732 a 4,4 0 0 1 4,-4 v 4 z" />
    <use
       x="0"
       y="0"
       xlink:href="#toolbutton-pressed-topleft"
       id="toolbutton-pressed-topright"
       transform="matrix(-1,0,0,1,696.20341,-2.8876584e-7)" />
    <use
       x="0"
       y="0"
       xlink:href="#toolbutton-pressed-topleft"
       id="toolbutton-pressed-bottomleft"
       transform="matrix(1,0,0,-1,-4.7164557e-6,325.93462)" />
    <use
       x="0"
       y="0"
       xlink:href="#toolbutton-pressed-topleft"
       id="toolbutton-pressed-bottomright"
       transform="rotate(180,348.10169,162.96731)" />
    <g
       id="normal-topright"
       transform="translate(-7.0000178,-1.3727099e-5)">
      <path
         id="path14"
         style="fill:#373e5b;fill-opacity:0.461905;stroke-width:3;paint-order:stroke fill markers"
         d="m 274.10172,99.967345 v 0.999995 h 3 a 2,2 0 0 1 2,2 v 3 h 1 v -3 a 3,3 0 0 0 -3,-2.999995 z" />
      <path
         id="path2"
         style="fill:url(#linearGradient7);stroke-width:3;paint-order:stroke fill markers"
         d="m 274.10172,100.96734 v 5 h 3 2 v -3 a 2,2 0 0 0 -2,-2 z" />
    </g>
    <g
       id="normal-topleft"
       transform="matrix(-1,0,0,1,509.20342,-1.3727099e-5)">
      <path
         id="path20"
         style="fill:#373e5b;fill-opacity:0.461905;stroke-width:3;paint-order:stroke fill markers"
         d="m 274.10172,99.967345 v 0.999995 h 3 a 2,2 0 0 1 2,2 v 3 h 1 v -3 a 3,3 0 0 0 -3,-2.999995 z" />
      <path
         id="path21"
         style="fill:url(#linearGradient21);stroke-width:3;paint-order:stroke fill markers"
         d="m 274.10172,100.96734 v 5 h 3 2 v -3 a 2,2 0 0 0 -2,-2 z" />
    </g>
    <path
       id="hover-topright"
       style="fill:#0f222d;fill-opacity:1;stroke-width:3;paint-order:stroke fill markers"
       d="m 330.1017,98.967332 v 0.999995 h 3 a 2,2 0 0 1 2,2.000003 v 3 h 1 v -3 a 3,3 0 0 0 -3,-2.999998 z" />
    <g
       id="normal-bottomright"
       transform="matrix(1,0,0,-1,-7.0000179,243.93466)">
      <path
         id="path24"
         style="fill:#373e5b;fill-opacity:0.461905;stroke-width:3;paint-order:stroke fill markers"
         d="m 274.10172,99.967345 v 0.999995 h 3 a 2,2 0 0 1 2,2 v 3 h 1 v -3 a 3,3 0 0 0 -3,-2.999995 z" />
      <path
         id="path25"
         style="fill:url(#linearGradient25);fill-opacity:1;stroke-width:3;paint-order:stroke fill markers"
         d="m 274.10172,100.96734 v 5 h 3 2 v -3 a 2,2 0 0 0 -2,-2 z" />
    </g>
    <g
       id="normal-bottomleft"
       transform="rotate(180,254.60171,121.96752)">
      <path
         id="path26"
         style="fill:#373e5b;fill-opacity:0.461905;stroke-width:3;paint-order:stroke fill markers"
         d="m 274.10172,99.967345 v 0.999995 h 3 a 2,2 0 0 1 2,2 v 3 h 1 v -3 a 3,3 0 0 0 -3,-2.999995 z" />
      <path
         id="path27"
         style="fill:url(#linearGradient27);fill-opacity:1;stroke-width:3;paint-order:stroke fill markers"
         d="m 274.10172,100.96734 v 5 h 3 2 v -3 a 2,2 0 0 0 -2,-2 z" />
    </g>
    <path
       id="hover-topleft"
       style="fill:#0f222d;fill-opacity:1;stroke-width:3;paint-order:stroke fill markers"
       d="m 298.10171,98.967317 v 0.999995 h -3 a 2,2 0 0 0 -2,2.000008 v 3 h -1 v -3 a 3,3 0 0 1 3,-3.000003 z" />
    <path
       id="hover-bottomright"
       style="fill:#0f222d;fill-opacity:1;stroke-width:3;paint-order:stroke fill markers"
       d="m 330.1017,142.96732 v -0.99999 h 3 a 2,2 0 0 0 2,-2.00001 v -3 h 1 v 3 a 3,3 0 0 1 -3,3 z" />
    <path
       id="hover-bottomleft"
       style="fill:#0f222d;fill-opacity:1;stroke-width:3;paint-order:stroke fill markers"
       d="m 298.10171,142.96731 v -1 h -3 a 2,2 0 0 1 -2,-2 v -3 h -1 v 3 a 3,3 0 0 0 3,3 z" />
    <g
       id="pressed-topright"
       transform="translate(120.99997,2.4517578e-4)">
      <path
         id="path29"
         style="fill:#0f222d;fill-opacity:1;stroke-width:3;paint-order:stroke fill markers"
         d="m 274.10172,99.967345 v 0.999995 h 3 a 2,2 0 0 1 2,2 v 3 h 1 v -3 a 3,3 0 0 0 -3,-2.999995 z" />
      <path
         id="path30"
         style="fill:#bcc4ca;fill-opacity:1;stroke-width:3;paint-order:stroke fill markers"
         d="m 274.10172,100.96734 v 5 h 3 2 v -3 a 2,2 0 0 0 -2,-2 z" />
    </g>
    <g
       id="pressed-topleft"
       transform="matrix(-1,0,0,1,637.20342,-1.2707007e-5)">
      <path
         id="path31"
         style="fill:#0f222d;fill-opacity:1;stroke-width:3;paint-order:stroke fill markers"
         d="m 274.10172,99.967345 v 0.999995 h 3 a 2,2 0 0 1 2,2 v 3 h 1 v -3 a 3,3 0 0 0 -3,-2.999995 z" />
      <path
         id="path32"
         style="fill:#bcc4ca;fill-opacity:1;stroke-width:3;paint-order:stroke fill markers"
         d="m 274.10172,100.96734 v 5 h 3 2 v -3 a 2,2 0 0 0 -2,-2 z" />
    </g>
    <g
       id="pressed-bottomright">
      <path
         id="path33"
         style="fill:#0f222d;fill-opacity:1;stroke-width:3;paint-order:stroke fill markers"
         d="m 395.1017,143.96732 v -1 h 3 a 2,2 0 0 0 2,-2 v -3 h 1 v 3 a 3,3 0 0 1 -3,3 z" />
      <path
         id="path34"
         style="fill:#bcc4ca;fill-opacity:1;stroke-width:3;paint-order:stroke fill markers"
         d="m 395.1017,142.96732 v -5 h 3 2 v 3 a 2,2 0 0 1 -2,2 z" />
      <path
         id="rect35"
         style="opacity:1;fill:#dedede;fill-opacity:1;stroke-width:3;paint-order:stroke fill markers"
         d="m 395.1017,141.96732 v 1 h 3 a 2,2 0 0 0 1.73242,-1 z" />
    </g>
    <g
       id="pressed-bottomleft"
       transform="matrix(-1,0,0,1,758.2034,-2.5568826e-7)">
      <path
         id="path35"
         style="fill:#0f222d;fill-opacity:1;stroke-width:3;paint-order:stroke fill markers"
         d="m 395.1017,143.96732 v -1 h 3 a 2,2 0 0 0 2,-2 v -3 h 1 v 3 a 3,3 0 0 1 -3,3 z" />
      <path
         id="path36"
         style="fill:#bcc4ca;fill-opacity:1;stroke-width:3;paint-order:stroke fill markers"
         d="m 395.1017,142.96732 v -5 h 3 2 v 3 a 2,2 0 0 1 -2,2 z" />
      <path
         id="path37"
         style="opacity:1;fill:#dedede;fill-opacity:1;stroke-width:3;paint-order:stroke fill markers"
         d="m 395.1017,141.96732 v 1 h 3 a 2,2 0 0 0 1.73242,-1 z" />
    </g>
    <g
       id="toolbutton-hover-right"
       transform="matrix(1,0,0,0.93329591,14.999988,-5.9623893)"
       style="stroke-width:1.03512">
      <rect
         style="fill:url(#linearGradient52);stroke:none;stroke-width:1.09793;stroke-linecap:round;stroke-miterlimit:4;stroke-dasharray:none;stroke-opacity:1"
         id="rect2220"
         width="2.9999845"
         height="15.000603"
         x="319.10172"
         y="172.96732" />
      <rect
         y="172.96733"
         x="322.10172"
         height="15"
         width="1.0000001"
         id="rect1734"
         style="fill:#181b1e;fill-opacity:1;stroke:none;stroke-width:1.55268;stroke-linecap:round;stroke-miterlimit:4;stroke-dasharray:none;stroke-opacity:1" />
      <rect
         y="172.96733"
         x="321.10172"
         height="15"
         width="1.0000001"
         id="rect37"
         style="opacity:0.2;fill:#ffffff;fill-opacity:1;stroke:none;stroke-width:1.55268;stroke-linecap:round;stroke-miterlimit:4;stroke-dasharray:none;stroke-opacity:1" />
    </g>
    <g
       id="toolbutton-hover-left"
       transform="matrix(-1,0,0,0.93329591,649.20341,-5.9621283)"
       style="stroke-width:1.03512">
      <rect
         style="fill:url(#linearGradient54);stroke:none;stroke-width:1.09793;stroke-linecap:round;stroke-miterlimit:4;stroke-dasharray:none;stroke-opacity:1"
         id="rect40"
         width="3.0000048"
         height="15.000882"
         x="319.10172"
         y="172.96703" />
      <rect
         y="172.96733"
         x="322.10172"
         height="15"
         width="1.0000001"
         id="rect41"
         style="fill:#181b1e;fill-opacity:1;stroke:none;stroke-width:1.55268;stroke-linecap:round;stroke-miterlimit:4;stroke-dasharray:none;stroke-opacity:1" />
      <rect
         y="172.96733"
         x="321.10172"
         height="15"
         width="1.0000001"
         id="rect42"
         style="opacity:0.2;fill:#ffffff;fill-opacity:1;stroke:none;stroke-width:1.55268;stroke-linecap:round;stroke-miterlimit:4;stroke-dasharray:none;stroke-opacity:1" />
    </g>
    <g
       id="toolbutton-hover-top"
       transform="translate(14.999988,-17.500016)">
      <rect
         transform="scale(1,-1)"
         style="fill:#181b1e;fill-opacity:1;stroke:none;stroke-width:1.5;stroke-linecap:round;stroke-miterlimit:4;stroke-dasharray:none;stroke-opacity:1"
         id="rect1656"
         width="3.9999998"
         height="0.99999589"
         x="315.10172"
         y="-169.96733" />
      <rect
         transform="scale(1,-1)"
         y="-172.96791"
         x="315.10172"
         height="3.0005975"
         width="4"
         id="rect2242"
         style="fill:url(#linearGradient91);stroke:none;stroke-width:1.50001;stroke-linecap:round;stroke-miterlimit:4;stroke-dasharray:none;stroke-opacity:1" />
      <rect
         transform="scale(1,-1)"
         style="opacity:0.2;fill:#ffffff;fill-opacity:0.945537;stroke:none;stroke-width:1.5;stroke-linecap:round;stroke-miterlimit:4;stroke-dasharray:none;stroke-opacity:1"
         id="rect54"
         width="3.9999998"
         height="0.99999589"
         x="315.10168"
         y="-170.96732" />
    </g>
    <g
       id="toolbutton-hover-bottom"
       transform="matrix(1,0,0,-1,14.999973,342.43462)">
      <rect
         transform="scale(1,-1)"
         style="fill:#181b1e;fill-opacity:1;stroke:none;stroke-width:1.5;stroke-linecap:round;stroke-miterlimit:4;stroke-dasharray:none;stroke-opacity:1"
         id="rect91"
         width="3.9999998"
         height="0.99999589"
         x="315.10172"
         y="-169.96733" />
      <rect
         transform="scale(1,-1)"
         y="-172.96791"
         x="315.10172"
         height="3.0005975"
         width="4"
         id="rect92"
         style="fill:url(#linearGradient93);stroke:none;stroke-width:1.50001;stroke-linecap:round;stroke-miterlimit:4;stroke-dasharray:none;stroke-opacity:1" />
      <rect
         transform="scale(1,-1)"
         style="opacity:0.2;fill:#ffffff;fill-opacity:0.945537;stroke:none;stroke-width:1.5;stroke-linecap:round;stroke-miterlimit:4;stroke-dasharray:none;stroke-opacity:1"
         id="rect93"
         width="3.9999998"
         height="0.99999589"
         x="315.10168"
         y="-170.96732" />
    </g>
    <g
       id="toolbutton-hover-topleft"
       transform="translate(14.999988,-17.500016)">
      <path
         id="path89395"
         style="fill:#181b1e;fill-opacity:1;stroke-width:2.5;stroke-linecap:round;stroke-linejoin:round;stroke-opacity:0.904689"
         d="m 315.10171,168.96731 a 4,4 0 0 0 -2.82812,1.17188 4,4 0 0 0 -1.17188,2.82812 h 1 a 3,3 0 0 1 3,-3 z" />
      <path
         style="fill:url(#linearGradient98);fill-opacity:1;stroke-width:2.16506;stroke-linecap:round;stroke-linejoin:round;stroke-opacity:0.904689"
         id="path89399"
         sodipodi:type="arc"
         sodipodi:cx="315.10172"
         sodipodi:cy="172.96733"
         sodipodi:rx="3"
         sodipodi:ry="3"
         sodipodi:start="3.1415927"
         sodipodi:end="4.712389"
         sodipodi:arc-type="slice"
         d="m 312.10172,172.96733 a 3,3 0 0 1 3,-3 v 3 z" />
      <path
         id="path96"
         style="opacity:0.2;fill:#ffffff;fill-opacity:1;stroke-width:2.16506;stroke-linecap:round;stroke-linejoin:round;stroke-opacity:0.904689"
         d="m 315.1017,169.96731 a 3,3 0 0 0 -3,3 h 0.99023 a 2.0100508,2.0000026 0 0 1 2.00977,-2 z" />
    </g>
    <g
       id="toolbutton-hover-topright"
       transform="matrix(-1,0,0,1,649.19362,-17.500014)">
      <path
         id="path98"
         style="fill:#181b1e;fill-opacity:1;stroke-width:2.5;stroke-linecap:round;stroke-linejoin:round;stroke-opacity:0.904689"
         d="m 315.10171,168.96731 a 4,4 0 0 0 -2.82812,1.17188 4,4 0 0 0 -1.17188,2.82812 h 1 a 3,3 0 0 1 3,-3 z" />
      <path
         style="fill:url(#linearGradient100);fill-opacity:1;stroke-width:2.16506;stroke-linecap:round;stroke-linejoin:round;stroke-opacity:0.904689"
         id="path99"
         sodipodi:type="arc"
         sodipodi:cx="315.10172"
         sodipodi:cy="172.96733"
         sodipodi:rx="3"
         sodipodi:ry="3"
         sodipodi:start="3.1415927"
         sodipodi:end="4.712389"
         sodipodi:arc-type="slice"
         d="m 312.10172,172.96733 a 3,3 0 0 1 3,-3 v 3 z" />
      <path
         id="path100"
         style="opacity:0.2;fill:#ffffff;fill-opacity:1;stroke-width:2.16506;stroke-linecap:round;stroke-linejoin:round;stroke-opacity:0.904689"
         d="m 315.1017,169.96731 a 3,3 0 0 0 -3,3 h 0.99023 a 2.0100508,2.0000026 0 0 1 2.00977,-2 z" />
    </g>
    <g
       id="toolbutton-hover-bottomleft"
       transform="matrix(1,0,0,-1,15.009758,342.43462)">
      <path
         id="path101"
         style="fill:#181b1e;fill-opacity:1;stroke-width:2.5;stroke-linecap:round;stroke-linejoin:round;stroke-opacity:0.904689"
         d="m 315.10171,168.96731 a 4,4 0 0 0 -2.82812,1.17188 4,4 0 0 0 -1.17188,2.82812 h 1 a 3,3 0 0 1 3,-3 z" />
      <path
         style="fill:url(#linearGradient103);fill-opacity:1;stroke-width:2.16506;stroke-linecap:round;stroke-linejoin:round;stroke-opacity:0.904689"
         id="path102"
         sodipodi:type="arc"
         sodipodi:cx="315.10172"
         sodipodi:cy="172.96733"
         sodipodi:rx="3"
         sodipodi:ry="3"
         sodipodi:start="3.1415927"
         sodipodi:end="4.712389"
         sodipodi:arc-type="slice"
         d="m 312.10172,172.96733 a 3,3 0 0 1 3,-3 v 3 z" />
      <path
         id="path103"
         style="opacity:0.2;fill:#ffffff;fill-opacity:1;stroke-width:2.16506;stroke-linecap:round;stroke-linejoin:round;stroke-opacity:0.904689"
         d="m 315.1017,169.96731 a 3,3 0 0 0 -3,3 h 0.99023 a 2.0100508,2.0000026 0 0 1 2.00977,-2 z" />
    </g>
    <g
       id="toolbutton-hover-bottomright"
       transform="rotate(180,324.6017,171.2173)">
      <path
         id="path104"
         style="fill:#181b1e;fill-opacity:1;stroke-width:2.5;stroke-linecap:round;stroke-linejoin:round;stroke-opacity:0.904689"
         d="m 315.10171,168.96731 a 4,4 0 0 0 -2.82812,1.17188 4,4 0 0 0 -1.17188,2.82812 h 1 a 3,3 0 0 1 3,-3 z" />
      <path
         style="fill:url(#linearGradient106);fill-opacity:1;stroke-width:2.16506;stroke-linecap:round;stroke-linejoin:round;stroke-opacity:0.904689"
         id="path105"
         sodipodi:type="arc"
         sodipodi:cx="315.10172"
         sodipodi:cy="172.96733"
         sodipodi:rx="3"
         sodipodi:ry="3"
         sodipodi:start="3.1415927"
         sodipodi:end="4.712389"
         sodipodi:arc-type="slice"
         d="m 312.10172,172.96733 a 3,3 0 0 1 3,-3 v 3 z" />
      <path
         id="path106"
         style="opacity:0.2;fill:#ffffff;fill-opacity:1;stroke-width:2.16506;stroke-linecap:round;stroke-linejoin:round;stroke-opacity:0.904689"
         d="m 315.1017,169.96731 a 3,3 0 0 0 -3,3 h 0.99023 a 2.0100508,2.0000026 0 0 1 2.00977,-2 z" />
    </g>
  </g>
</svg>
