<?xml version="1.0" encoding="UTF-8" standalone="no"?>
<!-- Created with Inkscape (http://www.inkscape.org/) -->

<svg
   width="88.499992"
   height="22.000002"
   viewBox="0 0 23.415623 5.8208337"
   version="1.1"
   id="svg1"
   inkscape:version="1.3 (0e150ed6c4, 2023-07-21)"
   sodipodi:docname="audio.svg"
   xml:space="preserve"
   xmlns:inkscape="http://www.inkscape.org/namespaces/inkscape"
   xmlns:sodipodi="http://sodipodi.sourceforge.net/DTD/sodipodi-0.dtd"
   xmlns="http://www.w3.org/2000/svg"
   xmlns:svg="http://www.w3.org/2000/svg"><sodipodi:namedview
     id="namedview1"
     pagecolor="#d1d1d1"
     bordercolor="#111111"
     borderopacity="1"
     inkscape:showpageshadow="0"
     inkscape:pageopacity="0"
     inkscape:pagecheckerboard="1"
     inkscape:deskcolor="#d1d1d1"
     inkscape:document-units="px"
     inkscape:zoom="2.4623176"
     inkscape:cx="63.151885"
     inkscape:cy="1.8275465"
     inkscape:current-layer="layer1"
     showgrid="true"
     showguides="true"><inkscape:grid
       id="grid1"
       units="px"
       originx="-1.1672614e-07"
       originy="2.1801721e-06"
       spacingx="0.26458333"
       spacingy="0.26458333"
       empcolor="#0099e5"
       empopacity="0.30196078"
       color="#0099e5"
       opacity="0.14901961"
       empspacing="5"
       dotted="false"
       gridanglex="30"
       gridanglez="30"
       visible="true" /></sodipodi:namedview><defs
     id="defs1" /><g
     inkscape:label="Layer 1"
     inkscape:groupmode="layer"
     id="layer1"><g
       id="audio-volume-high"
       transform="translate(-9.260416,-7.9374995)"><rect
         style="opacity:0.8;fill:none;stroke:none;stroke-width:0.529167;stroke-linecap:round;stroke-linejoin:round;paint-order:stroke fill markers"
         id="rect1"
         width="5.8208332"
         height="5.8208332"
         x="9.260416"
         y="7.9374995" /><path
         style="opacity:0.5;fill:#d9d9d9;fill-opacity:1;stroke:#000000;stroke-width:0.529167;stroke-linecap:round;stroke-linejoin:round;stroke-dasharray:none;stroke-opacity:1;paint-order:stroke fill markers"
         d="m 11.906249,12.964583 -1.322917,-1.322917 h -0.529166 v -1.5875 h 0.529166 l 1.322917,-1.3229159 z"
         id="path4"
         sodipodi:nodetypes="ccccccc" /><path
         style="fill:#fafcff;fill-opacity:1;stroke:none;stroke-width:0.264583;stroke-linecap:round;stroke-linejoin:round;stroke-dasharray:none;stroke-opacity:1;paint-order:stroke fill markers"
         d="m 11.906249,12.964583 -1.322917,-1.322917 h -0.529166 v -1.5875 h 0.529166 l 1.322917,-1.3229159 z"
         id="path1"
         sodipodi:nodetypes="ccccccc" /><path
         style="color:#000000;opacity:0.5;fill:#1a1a1a;stroke:#000000;stroke-width:0.396875;stroke-linecap:round;stroke-linejoin:round;stroke-dasharray:none;stroke-opacity:1;paint-order:stroke fill markers"
         d="m 13.365234,9.109375 a 0.1984375,0.1984375 0 0 0 -0.123046,0.091797 0.1984375,0.1984375 0 0 0 0.07031,0.2714844 c 0.479117,0.282578 0.777344,0.8064686 0.777344,1.3749996 0,0.568532 -0.298227,1.092422 -0.777344,1.375 a 0.1984375,0.1984375 0 0 0 -0.07031,0.271485 0.1984375,0.1984375 0 0 0 0.273437,0.07031 c 0.601981,-0.355042 0.970703,-1.010089 0.970703,-1.716797 0,-0.706708 -0.368722,-1.3617546 -0.970703,-1.7167965 A 0.1984375,0.1984375 0 0 0 13.365234,9.109375 Z"
         id="path5" /><path
         style="color:#000000;fill:#fafcff;stroke-linecap:round;stroke-linejoin:round;-inkscape-stroke:none;paint-order:stroke fill markers"
         d="m 13.365234,9.109375 a 0.1984375,0.1984375 0 0 0 -0.123046,0.091797 0.1984375,0.1984375 0 0 0 0.07031,0.2714844 c 0.479117,0.282578 0.777344,0.8064686 0.777344,1.3749996 0,0.568532 -0.298227,1.092422 -0.777344,1.375 a 0.1984375,0.1984375 0 0 0 -0.07031,0.271485 0.1984375,0.1984375 0 0 0 0.273437,0.07031 c 0.601981,-0.355042 0.970703,-1.010089 0.970703,-1.716797 0,-0.706708 -0.368722,-1.3617546 -0.970703,-1.7167965 A 0.1984375,0.1984375 0 0 0 13.365234,9.109375 Z"
         id="path2" /><path
         style="color:#000000;opacity:0.5;fill:#fafcff;stroke:#000000;stroke-width:0.396875;stroke-linecap:round;stroke-linejoin:round;stroke-dasharray:none;stroke-opacity:1;paint-order:stroke fill markers"
         d="m 12.800781,9.8925781 a 0.1984375,0.1984375 0 0 0 -0.130859,0.076172 0.1984375,0.1984375 0 0 0 0.03711,0.2773439 c 0.142846,0.108866 0.253907,0.342035 0.253907,0.601562 0,0.259528 -0.111061,0.492696 -0.253907,0.601563 a 0.1984375,0.1984375 0 0 0 -0.03711,0.277344 0.1984375,0.1984375 0 0 0 0.277344,0.03711 c 0.267839,-0.204127 0.410156,-0.549557 0.410156,-0.916016 0,-0.366459 -0.142317,-0.711888 -0.410156,-0.9160153 a 0.1984375,0.1984375 0 0 0 -0.146485,-0.039064 z"
         id="path6" /><path
         style="color:#000000;fill:#fafcff;stroke-linecap:round;stroke-linejoin:round;-inkscape-stroke:none;paint-order:stroke fill markers"
         d="m 12.800781,9.8925781 a 0.1984375,0.1984375 0 0 0 -0.130859,0.076172 0.1984375,0.1984375 0 0 0 0.03711,0.2773439 c 0.142846,0.108866 0.253907,0.342035 0.253907,0.601562 0,0.259528 -0.111061,0.492696 -0.253907,0.601563 a 0.1984375,0.1984375 0 0 0 -0.03711,0.277344 0.1984375,0.1984375 0 0 0 0.277344,0.03711 c 0.267839,-0.204127 0.410156,-0.549557 0.410156,-0.916016 0,-0.366459 -0.142317,-0.711888 -0.410156,-0.9160153 a 0.1984375,0.1984375 0 0 0 -0.146485,-0.039064 z"
         id="path3" /><rect
         style="opacity:1;fill:#b3b3b3;fill-opacity:1;stroke:none;stroke-width:0.396875;stroke-linecap:round;stroke-linejoin:round;stroke-dasharray:none;stroke-opacity:1;paint-order:stroke fill markers"
         id="rect4"
         width="0.26458332"
         height="1.5875"
         x="10.583333"
         y="10.054167" /></g><g
       id="audio-volume-medium"
       transform="translate(-3.4395837,-7.9375001)"><rect
         style="opacity:0.8;fill:none;stroke:none;stroke-width:0.529167;stroke-linecap:round;stroke-linejoin:round;paint-order:stroke fill markers"
         id="rect6"
         width="5.8208332"
         height="5.8208332"
         x="9.260416"
         y="7.9374995" /><path
         style="opacity:0.5;fill:#d9d9d9;fill-opacity:1;stroke:#000000;stroke-width:0.529167;stroke-linecap:round;stroke-linejoin:round;stroke-dasharray:none;stroke-opacity:1;paint-order:stroke fill markers"
         d="m 11.906249,12.964583 -1.322917,-1.322917 h -0.529166 v -1.5875 h 0.529166 l 1.322917,-1.3229159 z"
         id="path7"
         sodipodi:nodetypes="ccccccc" /><path
         style="fill:#fafcff;fill-opacity:1;stroke:none;stroke-width:0.264583;stroke-linecap:round;stroke-linejoin:round;stroke-dasharray:none;stroke-opacity:1;paint-order:stroke fill markers"
         d="m 11.906249,12.964583 -1.322917,-1.322917 h -0.529166 v -1.5875 h 0.529166 l 1.322917,-1.3229159 z"
         id="path8"
         sodipodi:nodetypes="ccccccc" /><path
         style="color:#000000;opacity:0.5;fill:#1a1a1a;stroke:#000000;stroke-width:0.396875;stroke-linecap:round;stroke-linejoin:round;stroke-dasharray:none;stroke-opacity:1;paint-order:stroke fill markers"
         d="m 13.365234,9.109375 a 0.1984375,0.1984375 0 0 0 -0.123046,0.091797 0.1984375,0.1984375 0 0 0 0.07031,0.2714844 c 0.479117,0.282578 0.777344,0.8064686 0.777344,1.3749996 0,0.568532 -0.298227,1.092422 -0.777344,1.375 a 0.1984375,0.1984375 0 0 0 -0.07031,0.271485 0.1984375,0.1984375 0 0 0 0.273437,0.07031 c 0.601981,-0.355042 0.970703,-1.010089 0.970703,-1.716797 0,-0.706708 -0.368722,-1.3617546 -0.970703,-1.7167965 A 0.1984375,0.1984375 0 0 0 13.365234,9.109375 Z"
         id="path9" /><path
         style="color:#000000;opacity:0.5;fill:#fafcff;stroke-linecap:round;stroke-linejoin:round;-inkscape-stroke:none;paint-order:stroke fill markers"
         d="m 13.365234,9.109375 a 0.1984375,0.1984375 0 0 0 -0.123046,0.091797 0.1984375,0.1984375 0 0 0 0.07031,0.2714844 c 0.479117,0.282578 0.777344,0.8064686 0.777344,1.3749996 0,0.568532 -0.298227,1.092422 -0.777344,1.375 a 0.1984375,0.1984375 0 0 0 -0.07031,0.271485 0.1984375,0.1984375 0 0 0 0.273437,0.07031 c 0.601981,-0.355042 0.970703,-1.010089 0.970703,-1.716797 0,-0.706708 -0.368722,-1.3617546 -0.970703,-1.7167965 A 0.1984375,0.1984375 0 0 0 13.365234,9.109375 Z"
         id="path10" /><path
         style="color:#000000;opacity:0.5;fill:#fafcff;stroke:#000000;stroke-width:0.396875;stroke-linecap:round;stroke-linejoin:round;stroke-dasharray:none;stroke-opacity:1;paint-order:stroke fill markers"
         d="m 12.800781,9.8925781 a 0.1984375,0.1984375 0 0 0 -0.130859,0.076172 0.1984375,0.1984375 0 0 0 0.03711,0.2773439 c 0.142846,0.108866 0.253907,0.342035 0.253907,0.601562 0,0.259528 -0.111061,0.492696 -0.253907,0.601563 a 0.1984375,0.1984375 0 0 0 -0.03711,0.277344 0.1984375,0.1984375 0 0 0 0.277344,0.03711 c 0.267839,-0.204127 0.410156,-0.549557 0.410156,-0.916016 0,-0.366459 -0.142317,-0.711888 -0.410156,-0.9160153 a 0.1984375,0.1984375 0 0 0 -0.146485,-0.039064 z"
         id="path11" /><path
         style="color:#000000;fill:#fafcff;stroke-linecap:round;stroke-linejoin:round;-inkscape-stroke:none;paint-order:stroke fill markers"
         d="m 12.800781,9.8925781 a 0.1984375,0.1984375 0 0 0 -0.130859,0.076172 0.1984375,0.1984375 0 0 0 0.03711,0.2773439 c 0.142846,0.108866 0.253907,0.342035 0.253907,0.601562 0,0.259528 -0.111061,0.492696 -0.253907,0.601563 a 0.1984375,0.1984375 0 0 0 -0.03711,0.277344 0.1984375,0.1984375 0 0 0 0.277344,0.03711 c 0.267839,-0.204127 0.410156,-0.549557 0.410156,-0.916016 0,-0.366459 -0.142317,-0.711888 -0.410156,-0.9160153 a 0.1984375,0.1984375 0 0 0 -0.146485,-0.039064 z"
         id="path12" /><rect
         style="opacity:1;fill:#b3b3b3;fill-opacity:1;stroke:none;stroke-width:0.396875;stroke-linecap:round;stroke-linejoin:round;stroke-dasharray:none;stroke-opacity:1;paint-order:stroke fill markers"
         id="rect12"
         width="0.26458332"
         height="1.5875"
         x="10.583333"
         y="10.054167" /></g><g
       id="audio-volume-low"
       transform="translate(2.3812494,-7.9375001)"><rect
         style="opacity:0.8;fill:none;stroke:none;stroke-width:0.529167;stroke-linecap:round;stroke-linejoin:round;paint-order:stroke fill markers"
         id="rect13"
         width="5.8208332"
         height="5.8208332"
         x="9.260416"
         y="7.9374995" /><path
         style="opacity:0.5;fill:#d9d9d9;fill-opacity:1;stroke:#000000;stroke-width:0.529167;stroke-linecap:round;stroke-linejoin:round;stroke-dasharray:none;stroke-opacity:1;paint-order:stroke fill markers"
         d="m 11.906249,12.964583 -1.322917,-1.322917 h -0.529166 v -1.5875 h 0.529166 l 1.322917,-1.3229159 z"
         id="path13"
         sodipodi:nodetypes="ccccccc" /><path
         style="fill:#fafcff;fill-opacity:1;stroke:none;stroke-width:0.264583;stroke-linecap:round;stroke-linejoin:round;stroke-dasharray:none;stroke-opacity:1;paint-order:stroke fill markers"
         d="m 11.906249,12.964583 -1.322917,-1.322917 h -0.529166 v -1.5875 h 0.529166 l 1.322917,-1.3229159 z"
         id="path14"
         sodipodi:nodetypes="ccccccc" /><path
         style="color:#000000;opacity:0.5;fill:#1a1a1a;stroke:#000000;stroke-width:0.396875;stroke-linecap:round;stroke-linejoin:round;stroke-dasharray:none;stroke-opacity:1;paint-order:stroke fill markers"
         d="m 13.365234,9.109375 a 0.1984375,0.1984375 0 0 0 -0.123046,0.091797 0.1984375,0.1984375 0 0 0 0.07031,0.2714844 c 0.479117,0.282578 0.777344,0.8064686 0.777344,1.3749996 0,0.568532 -0.298227,1.092422 -0.777344,1.375 a 0.1984375,0.1984375 0 0 0 -0.07031,0.271485 0.1984375,0.1984375 0 0 0 0.273437,0.07031 c 0.601981,-0.355042 0.970703,-1.010089 0.970703,-1.716797 0,-0.706708 -0.368722,-1.3617546 -0.970703,-1.7167965 A 0.1984375,0.1984375 0 0 0 13.365234,9.109375 Z"
         id="path15" /><path
         style="color:#000000;opacity:0.5;fill:#fafcff;stroke-linecap:round;stroke-linejoin:round;-inkscape-stroke:none;paint-order:stroke fill markers"
         d="m 13.365234,9.109375 a 0.1984375,0.1984375 0 0 0 -0.123046,0.091797 0.1984375,0.1984375 0 0 0 0.07031,0.2714844 c 0.479117,0.282578 0.777344,0.8064686 0.777344,1.3749996 0,0.568532 -0.298227,1.092422 -0.777344,1.375 a 0.1984375,0.1984375 0 0 0 -0.07031,0.271485 0.1984375,0.1984375 0 0 0 0.273437,0.07031 c 0.601981,-0.355042 0.970703,-1.010089 0.970703,-1.716797 0,-0.706708 -0.368722,-1.3617546 -0.970703,-1.7167965 A 0.1984375,0.1984375 0 0 0 13.365234,9.109375 Z"
         id="path16" /><path
         style="color:#000000;opacity:0.5;fill:#1a1a1a;fill-opacity:1;stroke:#000000;stroke-width:0.396875;stroke-linecap:round;stroke-linejoin:round;stroke-dasharray:none;stroke-opacity:1;paint-order:stroke fill markers"
         d="m 12.800781,9.8925781 a 0.1984375,0.1984375 0 0 0 -0.130859,0.076172 0.1984375,0.1984375 0 0 0 0.03711,0.2773439 c 0.142846,0.108866 0.253907,0.342035 0.253907,0.601562 0,0.259528 -0.111061,0.492696 -0.253907,0.601563 a 0.1984375,0.1984375 0 0 0 -0.03711,0.277344 0.1984375,0.1984375 0 0 0 0.277344,0.03711 c 0.267839,-0.204127 0.410156,-0.549557 0.410156,-0.916016 0,-0.366459 -0.142317,-0.711888 -0.410156,-0.9160153 a 0.1984375,0.1984375 0 0 0 -0.146485,-0.039064 z"
         id="path17" /><path
         style="color:#000000;opacity:0.5;fill:#fafcff;stroke-linecap:round;stroke-linejoin:round;-inkscape-stroke:none;paint-order:stroke fill markers"
         d="m 12.800781,9.8925781 a 0.1984375,0.1984375 0 0 0 -0.130859,0.076172 0.1984375,0.1984375 0 0 0 0.03711,0.2773439 c 0.142846,0.108866 0.253907,0.342035 0.253907,0.601562 0,0.259528 -0.111061,0.492696 -0.253907,0.601563 a 0.1984375,0.1984375 0 0 0 -0.03711,0.277344 0.1984375,0.1984375 0 0 0 0.277344,0.03711 c 0.267839,-0.204127 0.410156,-0.549557 0.410156,-0.916016 0,-0.366459 -0.142317,-0.711888 -0.410156,-0.9160153 a 0.1984375,0.1984375 0 0 0 -0.146485,-0.039064 z"
         id="path18" /><rect
         style="opacity:1;fill:#b3b3b3;fill-opacity:1;stroke:none;stroke-width:0.396875;stroke-linecap:round;stroke-linejoin:round;stroke-dasharray:none;stroke-opacity:1;paint-order:stroke fill markers"
         id="rect18"
         width="0.26458332"
         height="1.5875"
         x="10.583333"
         y="10.054167" /></g><g
       id="audio-volume-muted"><rect
         style="opacity:0.8;fill:none;stroke:none;stroke-width:0.529167;stroke-linecap:round;stroke-linejoin:round;paint-order:stroke fill markers"
         id="rect19"
         width="5.8208332"
         height="5.8208332"
         x="17.59479"
         y="-5.7683718e-07" /><path
         style="opacity:0.5;fill:#d9d9d9;fill-opacity:1;stroke:#000000;stroke-width:0.529167;stroke-linecap:round;stroke-linejoin:round;stroke-dasharray:none;stroke-opacity:1;paint-order:stroke fill markers"
         d="M 20.240623,5.0270829 18.917706,3.7041659 H 18.38854 v -1.5875 h 0.529166 L 20.240623,0.79375 Z"
         id="path19"
         sodipodi:nodetypes="ccccccc" /><path
         style="fill:#fafcff;fill-opacity:1;stroke:none;stroke-width:0.264583;stroke-linecap:round;stroke-linejoin:round;stroke-dasharray:none;stroke-opacity:1;paint-order:stroke fill markers"
         d="M 20.240623,5.0270829 18.917706,3.7041659 H 18.38854 v -1.5875 h 0.529166 L 20.240623,0.79375 Z"
         id="path20"
         sodipodi:nodetypes="ccccccc" /><rect
         style="fill:#b3b3b3;fill-opacity:1;stroke:none;stroke-width:0.396875;stroke-linecap:round;stroke-linejoin:round;stroke-dasharray:none;stroke-opacity:1;paint-order:stroke fill markers"
         id="rect24"
         width="0.26458332"
         height="1.5875"
         x="18.917707"
         y="2.1166668" /><path
         id="path30"
         style="color:#000000;opacity:0.5;fill:#ff0000;stroke:#2a0000;stroke-width:0.396875;stroke-linecap:round;stroke-linejoin:round;stroke-dasharray:none;stroke-opacity:1;paint-order:stroke fill markers"
         d="m 22.674638,1.9053241 a 0.15411938,0.15409885 0 0 0 -0.109569,0.044143 L 21.95421,2.5602441 21.344957,1.9502695 a 0.15411938,0.15409885 0 0 0 -0.109168,-0.044143 0.15411938,0.15409885 0 0 0 -0.109167,0.044143 0.15411938,0.15409885 0 0 0 0,0.2183067 l 0.610056,0.6095732 -0.610859,0.6107773 a 0.15411938,0.15409885 0 0 0 0,0.2167015 0.15411938,0.15409885 0 0 0 0.218336,0 l 0.610055,-0.6099746 0.611662,0.6107772 a 0.15411938,0.15409885 0 0 0 0.217132,0 0.15411938,0.15409885 0 0 0 0,-0.2167015 l -0.61126,-0.6115799 0.610457,-0.6103759 a 0.15411938,0.15409885 0 0 0 0,-0.2183067 0.15411938,0.15409885 0 0 0 -0.107563,-0.044143 z" /><path
         id="path27"
         style="color:#000000;opacity:1;fill:#ff5050;fill-opacity:1;stroke-width:0.999999;stroke-linecap:round;stroke-linejoin:round;-inkscape-stroke:none;paint-order:stroke fill markers"
         d="m 22.705552,1.8677363 a 0.16073438,0.16073438 0 0 0 -0.114273,0.046044 L 21.954202,2.5508574 21.318799,1.9146172 a 0.16073438,0.16073438 0 0 0 -0.113853,-0.046044 0.16073438,0.16073438 0 0 0 -0.113854,0.046044 0.16073438,0.16073438 0 0 0 0,0.227707 l 0.63624,0.6358216 -0.637077,0.6370774 a 0.16073438,0.16073438 0 0 0 0,0.2260328 0.16073438,0.16073438 0 0 0 0.227707,0 l 0.63624,-0.6362403 0.637915,0.6370774 a 0.16073438,0.16073438 0 0 0 0.226451,0 0.16073438,0.16073438 0 0 0 0,-0.2260327 L 22.181072,2.7781458 22.817731,2.141487 a 0.16073438,0.16073438 0 0 0 0,-0.2277071 0.16073438,0.16073438 0 0 0 -0.112179,-0.046044 z" /></g></g></svg>
