<?xml version="1.0" encoding="UTF-8" standalone="no"?>
<!-- Created with Inkscape (http://www.inkscape.org/) -->

<svg
   xmlns:dc="http://purl.org/dc/elements/1.1/"
   xmlns:cc="http://creativecommons.org/ns#"
   xmlns:rdf="http://www.w3.org/1999/02/22-rdf-syntax-ns#"
   xmlns:svg="http://www.w3.org/2000/svg"
   xmlns="http://www.w3.org/2000/svg"
   xmlns:xlink="http://www.w3.org/1999/xlink"
   xmlns:sodipodi="http://sodipodi.sourceforge.net/DTD/sodipodi-0.dtd"
   xmlns:inkscape="http://www.inkscape.org/namespaces/inkscape"
   width="64"
   height="64"
   viewBox="0 0 64 64.000002"
   version="1.1"
   id="svg8"
   inkscape:version="0.92.5 (2060ec1f9f, 2020-04-08)"
   sodipodi:docname="start.svg">
  <defs
     id="defs2">
    <linearGradient
       inkscape:collect="always"
       id="linearGradient857">
      <stop
         style="stop-color:#18354a;stop-opacity:1"
         offset="0"
         id="stop853" />
      <stop
         style="stop-color:#2e6b98;stop-opacity:1"
         offset="1"
         id="stop855" />
    </linearGradient>
    <linearGradient
       inkscape:collect="always"
       id="linearGradient1836">
      <stop
         style="stop-color:#9ecbe5;stop-opacity:0.77254903"
         offset="0"
         id="stop1832" />
      <stop
         id="stop1840"
         offset="0.42010033"
         style="stop-color:#607d8d;stop-opacity:0.87058824;" />
      <stop
         style="stop-color:#0c212d;stop-opacity:0.7723214"
         offset="1"
         id="stop1834" />
    </linearGradient>
    <linearGradient
       inkscape:collect="always"
       id="linearGradient1763">
      <stop
         style="stop-color:#e6f3fb;stop-opacity:1"
         offset="0"
         id="stop1759" />
      <stop
         id="stop1769"
         offset="0.48297125"
         style="stop-color:#7ccced;stop-opacity:0.0045045" />
      <stop
         style="stop-color:#64c4ea;stop-opacity:0.1036036"
         offset="0.54230392"
         id="stop1771" />
      <stop
         style="stop-color:#19d5fb;stop-opacity:1"
         offset="1"
         id="stop1761" />
    </linearGradient>
    <radialGradient
       inkscape:collect="always"
       xlink:href="#linearGradient892"
       id="radialGradient896"
       cx="16.764961"
       cy="99.646584"
       fx="16.764961"
       fy="99.646584"
       r="7.000001"
       gradientTransform="matrix(1.2312839,-1.1431512,1.3432505,1.2125418,-210.34152,1072.7729)"
       gradientUnits="userSpaceOnUse" />
    <linearGradient
       inkscape:collect="always"
       id="linearGradient892">
      <stop
         style="stop-color:#5ce1fc;stop-opacity:1"
         offset="0"
         id="stop888" />
      <stop
         id="stop1773"
         offset="0.44060701"
         style="stop-color:#11b5dc;stop-opacity:0.82432431" />
      <stop
         style="stop-color:#046b90;stop-opacity:0"
         offset="1"
         id="stop890" />
    </linearGradient>
    <linearGradient
       inkscape:collect="always"
       xlink:href="#linearGradient1763"
       id="linearGradient1765"
       x1="-79.570107"
       y1="1100.2456"
       x2="-79.585823"
       y2="1127.7935"
       gradientUnits="userSpaceOnUse"
       gradientTransform="matrix(0.91496279,0,0,0.91496279,16.739541,142.23319)" />
    <linearGradient
       inkscape:collect="always"
       xlink:href="#linearGradient1783"
       id="linearGradient1785"
       x1="-79.460182"
       y1="1100.0781"
       x2="-79.5"
       y2="1111.7742"
       gradientUnits="userSpaceOnUse"
       gradientTransform="matrix(0.85714286,0,0,0.89848453,12.14286,160.60775)" />
    <linearGradient
       inkscape:collect="always"
       id="linearGradient1783">
      <stop
         style="stop-color:#bbd1e6;stop-opacity:0.80803573"
         offset="0"
         id="stop1779" />
      <stop
         style="stop-color:#cbe6ff;stop-opacity:0.00446429"
         offset="1"
         id="stop1781" />
    </linearGradient>
    <linearGradient
       inkscape:collect="always"
       xlink:href="#linearGradient1836"
       id="linearGradient1838"
       x1="-78.917465"
       y1="1129.6765"
       x2="-78.917465"
       y2="1098.4784"
       gradientUnits="userSpaceOnUse"
       gradientTransform="matrix(0.96774188,0,0,0.96774188,20.935479,83.436248)" />
    <linearGradient
       inkscape:collect="always"
       xlink:href="#linearGradient857"
       id="linearGradient859"
       x1="-56"
       y1="1175.5197"
       x2="-56"
       y2="1146.5197"
       gradientUnits="userSpaceOnUse"
       gradientTransform="matrix(0.96774188,0,0,0.96774188,-1.8064549,37.468445)" />
  </defs>
  <style
     id="current-color-scheme"
     type="text/css">
      .ColorScheme-Text {
      }
      .ColorScheme-Background{
      }
      .ColorScheme-Highlight{
      }
      .ColorScheme-ViewText {
      }
      .ColorScheme-ViewBackground{
      }
      .ColorScheme-ViewHover {
      }
      .ColorScheme-ViewFocus{
      }
      .ColorScheme-ButtonText {
      }
      .ColorScheme-ButtonBackground{
      }
      .ColorScheme-ButtonHover {
      }
      .ColorScheme-ButtonFocus{
      }
    </style>
  <sodipodi:namedview
     id="base"
     pagecolor="#ffffff"
     bordercolor="#666666"
     borderopacity="1.0"
     inkscape:pageopacity="0.0"
     inkscape:pageshadow="2"
     inkscape:zoom="19.239197"
     inkscape:cx="32.056557"
     inkscape:cy="32.604505"
     inkscape:document-units="px"
     inkscape:current-layer="layer1"
     showgrid="true"
     units="px"
     inkscape:pagecheckerboard="true"
     inkscape:showpageshadow="false"
     inkscape:snap-bbox="true"
     inkscape:bbox-nodes="true"
     inkscape:snap-object-midpoints="true"
     inkscape:bbox-paths="true"
     showguides="true"
     inkscape:guide-bbox="true"
     fit-margin-top="0"
     fit-margin-left="0"
     fit-margin-right="0"
     fit-margin-bottom="0"
     inkscape:snap-nodes="true"
     inkscape:snap-others="false"
     inkscape:object-paths="true"
     inkscape:snap-intersection-paths="true"
     inkscape:snap-global="false">
    <inkscape:grid
       type="xygrid"
       id="grid834"
       originx="85"
       originy="75.000003" />
    <sodipodi:guide
       position="102,28.000004"
       orientation="1,0"
       id="guide2015"
       inkscape:locked="false" />
  </sodipodi:namedview>
  <metadata
     id="metadata5">
    <rdf:RDF>
      <cc:Work
         rdf:about="">
        <dc:format>image/svg+xml</dc:format>
        <dc:type
           rdf:resource="http://purl.org/dc/dcmitype/StillImage" />
        <dc:title />
      </cc:Work>
    </rdf:RDF>
  </metadata>
  <g
     inkscape:label="Layer 1"
     inkscape:groupmode="layer"
     id="layer1"
     transform="translate(85,-1133.5196)"
     style="display:inline">
    <g
       id="start-here-kde">
      <rect
         style="opacity:1;fill:none;fill-opacity:0.23660715;stroke:none;stroke-width:1;stroke-miterlimit:4;stroke-dasharray:none;stroke-opacity:0.62809921"
         id="rect882"
         width="35.999889"
         height="35.999889"
         x="-73.999947"
         y="1143.5198" />
      <ellipse
         ry="15.000002"
         rx="15"
         style="opacity:1;fill:url(#linearGradient1838);fill-opacity:1;stroke:none;stroke-width:1.99999988;stroke-miterlimit:4;stroke-dasharray:none;stroke-opacity:1"
         id="circle920"
         cx="-56"
         cy="1161.5197" />
      <ellipse
         ry="14.032322"
         rx="14.032372"
         cy="1161.5197"
         cx="-56.000008"
         id="circle898"
         style="opacity:1;fill:url(#linearGradient859);fill-opacity:1;stroke:none;stroke-width:2;stroke-miterlimit:4;stroke-dasharray:none;stroke-opacity:1" />
      <circle
         r="12.096837"
         cy="1161.5197"
         cx="-56"
         id="circle886"
         style="opacity:1;fill:url(#radialGradient896);fill-opacity:1;stroke:none;stroke-width:1.99999988;stroke-miterlimit:4;stroke-dasharray:none;stroke-opacity:1" />
      <path
         id="path1757"
         d="M -43.419262,1161.5196 A 12.580738,12.580738 0 0 1 -56,1174.1003 12.580738,12.580738 0 0 1 -68.580738,1161.5196 12.580738,12.580738 0 0 1 -56,1148.9389 a 12.580738,12.580738 0 0 1 12.580738,12.5807 z"
         style="opacity:1;fill:none;fill-opacity:1;stroke:url(#linearGradient1765);stroke-width:1;stroke-linecap:round;stroke-linejoin:round;stroke-miterlimit:4;stroke-dasharray:none;stroke-opacity:1"
         inkscape:connector-curvature="0" />
      <path
         sodipodi:nodetypes="sssss"
         inkscape:connector-curvature="0"
         id="path1775"
         d="m -43.999998,1160.632 c 0,3.1643 -5.37258,-1.4314 -12,-1.4314 -6.62742,0 -12,4.6425 -12,1.4314 0,-6.1998 5.99675,-11.5928 11.810654,-11.6915 6.602076,-0.1122 12.189346,5.9119 12.189346,11.6915 z"
         style="opacity:1;fill:url(#linearGradient1785);fill-opacity:1;stroke:none;stroke-width:0.5;stroke-linecap:round;stroke-linejoin:round;stroke-miterlimit:4;stroke-dasharray:none;stroke-opacity:1" />
      <g
         style="fill:#000000;fill-opacity:0.42857145"
         transform="translate(1.417969,1.146397)"
         id="g913">
        <path
           id="path909"
           d="m -56.947705,1151.5445 -0.725863,2.9075 a 7.2281386,7.2281386 0 0 0 -2.193109,0.9004 l -2.565746,-1.539 -1.27705,1.279 1.541001,2.5678 a 7.2281386,7.2281386 0 0 0 -0.908299,2.1873 l -2.907326,0.7276 v 1.8071 l 2.907326,0.7257 a 7.2281386,7.2281386 0 0 0 0.898595,2.1932 l -1.53906,2.5656 1.27899,1.2771 2.565746,-1.5391 a 7.2281386,7.2281386 0 0 0 2.19117,0.9103 l 0.725863,2.9035 h 1.806888 l 0.725862,-2.8996 a 7.2281386,7.2281386 0 0 0 2.198933,-0.9045 l 2.561863,1.5373 1.27705,-1.2811 -1.537118,-2.5599 a 7.2281386,7.2281386 0 0 0 0.912179,-2.1969 l 2.899564,-0.7258 v -1.8071 l -2.899564,-0.724 a 7.2281386,7.2281386 0 0 0 -0.904414,-2.1989 l 1.535175,-2.5618 -1.27899,-1.2769 -2.563805,1.539 a 7.2281386,7.2281386 0 0 0 -2.19311,-0.9083 l -0.725861,-2.9055 z m 0.900534,4.9685 a 4.9684625,4.9684625 0 0 1 4.968462,4.9685 4.9684625,4.9684625 0 0 1 -4.968462,4.9685 4.9684625,4.9684625 0 0 1 -4.968463,-4.9685 4.9684625,4.9684625 0 0 1 4.968463,-4.9685 z"
           style="opacity:1;fill:#000000;fill-opacity:0.2072072;stroke:none;stroke-width:2;stroke-linecap:round;stroke-linejoin:round;stroke-miterlimit:4;stroke-dasharray:none;stroke-opacity:1"
           inkscape:connector-curvature="0" />
        <circle
           r="2.4842312"
           style="opacity:0.9;fill:#000000;fill-opacity:0.2072072;stroke:none;stroke-width:1;stroke-linecap:round;stroke-linejoin:round;stroke-miterlimit:4;stroke-dasharray:none;stroke-opacity:1"
           id="circle911"
           cx="-56.047173"
           cy="1161.4814" />
      </g>
      <path
         id="path2007"
         d="m -56.900535,1151.5827 -0.725861,2.9073 a 7.2281386,7.2281386 0 0 0 -2.193109,0.9006 l -2.565747,-1.539 -1.277049,1.279 1.541,2.5677 a 7.2281386,7.2281386 0 0 0 -0.908298,2.1873 l -2.907326,0.7276 v 1.8071 l 2.907326,0.7258 a 7.2281386,7.2281386 0 0 0 0.898594,2.1931 l -1.53906,2.5657 1.27899,1.277 2.565747,-1.539 a 7.2281386,7.2281386 0 0 0 2.191169,0.9103 l 0.725862,2.9035 h 1.806889 l 0.725861,-2.8996 a 7.2281386,7.2281386 0 0 0 2.198934,-0.9045 l 2.561862,1.5372 1.277051,-1.281 -1.537118,-2.5599 a 7.2281386,7.2281386 0 0 0 0.912179,-2.1969 l 2.899564,-0.726 v -1.8069 l -2.899564,-0.724 a 7.2281386,7.2281386 0 0 0 -0.904415,-2.1989 l 1.535176,-2.5618 -1.27899,-1.2771 -2.563806,1.5392 a 7.2281386,7.2281386 0 0 0 -2.19311,-0.9084 l -0.72586,-2.9054 z M -56,1156.5512 a 4.9684625,4.9684625 0 0 1 4.968462,4.9685 A 4.9684625,4.9684625 0 0 1 -56,1166.4882 4.9684625,4.9684625 0 0 1 -60.968464,1161.5197 4.9684625,4.9684625 0 0 1 -56,1156.5512 Z"
         style="opacity:1;fill:#f5f5f5;fill-opacity:1;stroke:none;stroke-width:2;stroke-linecap:round;stroke-linejoin:round;stroke-miterlimit:4;stroke-dasharray:none;stroke-opacity:1"
         inkscape:connector-curvature="0" />
      <circle
         r="2.4842312"
         style="opacity:0.9;fill:#f5f5f5;fill-opacity:1;stroke:none;stroke-width:1;stroke-linecap:round;stroke-linejoin:round;stroke-miterlimit:4;stroke-dasharray:none;stroke-opacity:1"
         id="circle1868"
         cx="-56"
         cy="1161.5197" />
    </g>
  </g>
</svg>
