<?xml version="1.0" encoding="UTF-8" standalone="no"?>
<!-- Created with Inkscape (http://www.inkscape.org/) -->

<svg
   xmlns:dc="http://purl.org/dc/elements/1.1/"
   xmlns:cc="http://creativecommons.org/ns#"
   xmlns:rdf="http://www.w3.org/1999/02/22-rdf-syntax-ns#"
   xmlns:svg="http://www.w3.org/2000/svg"
   xmlns="http://www.w3.org/2000/svg"
   xmlns:xlink="http://www.w3.org/1999/xlink"
   xmlns:sodipodi="http://sodipodi.sourceforge.net/DTD/sodipodi-0.dtd"
   xmlns:inkscape="http://www.inkscape.org/namespaces/inkscape"
   width="64"
   height="64"
   viewBox="0 0 64 64.000002"
   version="1.1"
   id="svg8"
   inkscape:version="0.92.5 (2060ec1f9f, 2020-04-08)"
   sodipodi:docname="start.svg">
  <defs
     id="defs2">
    <linearGradient
       inkscape:collect="always"
       id="linearGradient854">
      <stop
         style="stop-color:#104e7b;stop-opacity:1"
         offset="0"
         id="stop849" />
      <stop
         style="stop-color:#0b3757;stop-opacity:1"
         offset="1"
         id="stop852" />
    </linearGradient>
    <linearGradient
       inkscape:collect="always"
       id="linearGradient856">
      <stop
         style="stop-color:#ffffff;stop-opacity:1;"
         offset="0"
         id="stop851" />
      <stop
         id="stop868"
         offset="0.50418437"
         style="stop-color:#dddddd;stop-opacity:1;" />
      <stop
         style="stop-color:#c9c9c9;stop-opacity:1"
         offset="1"
         id="stop854" />
    </linearGradient>
    <linearGradient
       inkscape:collect="always"
       id="linearGradient1836">
      <stop
         style="stop-color:#7ebadd;stop-opacity:1"
         offset="0"
         id="stop1832" />
      <stop
         style="stop-color:#0c212d;stop-opacity:0.7723214"
         offset="1"
         id="stop1834" />
    </linearGradient>
    <linearGradient
       inkscape:collect="always"
       id="linearGradient1763">
      <stop
         style="stop-color:#f8fcfc;stop-opacity:1"
         offset="0"
         id="stop1759" />
      <stop
         id="stop1769"
         offset="0.48297125"
         style="stop-color:#7ccced;stop-opacity:0.49561402" />
      <stop
         style="stop-color:#19d5fb;stop-opacity:1"
         offset="1"
         id="stop1761" />
    </linearGradient>
    <radialGradient
       inkscape:collect="always"
       xlink:href="#linearGradient892"
       id="radialGradient896"
       cx="17.280622"
       cy="99.090614"
       fx="17.280622"
       fy="99.090614"
       r="7.000001"
       gradientTransform="matrix(1.708393,-1.4224832,1.6196995,1.5678212,-245.90462,1042.9234)"
       gradientUnits="userSpaceOnUse" />
    <linearGradient
       inkscape:collect="always"
       id="linearGradient892">
      <stop
         style="stop-color:#19d5fb;stop-opacity:0.82017541"
         offset="0"
         id="stop888" />
      <stop
         id="stop1494"
         offset="0.38759074"
         style="stop-color:#19d5fb;stop-opacity:0.41960784;" />
      <stop
         style="stop-color:#14659f;stop-opacity:1"
         offset="0.70078248"
         id="stop1496" />
      <stop
         style="stop-color:#0f4b75;stop-opacity:0.00438596"
         offset="1"
         id="stop890" />
    </linearGradient>
    <linearGradient
       inkscape:collect="always"
       xlink:href="#linearGradient1763"
       id="linearGradient1765"
       x1="-79.570107"
       y1="1100.2456"
       x2="-79.585823"
       y2="1127.7935"
       gradientUnits="userSpaceOnUse"
       gradientTransform="matrix(0.91496279,0,0,0.91496279,16.739541,142.23319)" />
    <linearGradient
       inkscape:collect="always"
       xlink:href="#linearGradient1783"
       id="linearGradient1785"
       x1="-79.460182"
       y1="1100.0781"
       x2="-79.460182"
       y2="1114.2285"
       gradientUnits="userSpaceOnUse"
       gradientTransform="matrix(0.85714286,0,0,0.89848453,12.14286,160.60775)" />
    <linearGradient
       inkscape:collect="always"
       id="linearGradient1783">
      <stop
         style="stop-color:#96b8d9;stop-opacity:0.80784315"
         offset="0"
         id="stop1779" />
      <stop
         style="stop-color:#007ef2;stop-opacity:0.00392157"
         offset="1"
         id="stop1781" />
    </linearGradient>
    <linearGradient
       inkscape:collect="always"
       xlink:href="#linearGradient1836"
       id="linearGradient1838"
       x1="-78.917465"
       y1="1129.6765"
       x2="-78.917465"
       y2="1098.4784"
       gradientUnits="userSpaceOnUse"
       gradientTransform="matrix(0.96774188,0,0,0.96774188,20.935479,83.436248)" />
    <linearGradient
       inkscape:collect="always"
       xlink:href="#linearGradient856"
       id="linearGradient858"
       x1="-56"
       y1="1151.5197"
       x2="-56"
       y2="1171.5197"
       gradientUnits="userSpaceOnUse"
       gradientTransform="matrix(0.94072322,0,0,0.94072322,-3.2788738,68.884042)" />
    <linearGradient
       inkscape:collect="always"
       xlink:href="#linearGradient854"
       id="linearGradient857"
       x1="-56.059765"
       y1="1147.7292"
       x2="-56.059765"
       y2="1175.5015"
       gradientUnits="userSpaceOnUse" />
  </defs>
  <style
     id="current-color-scheme"
     type="text/css">
      .ColorScheme-Text {
      }
      .ColorScheme-Background{
      }
      .ColorScheme-Highlight{
      }
      .ColorScheme-ViewText {
      }
      .ColorScheme-ViewBackground{
      }
      .ColorScheme-ViewHover {
      }
      .ColorScheme-ViewFocus{
      }
      .ColorScheme-ButtonText {
      }
      .ColorScheme-ButtonBackground{
      }
      .ColorScheme-ButtonHover {
      }
      .ColorScheme-ButtonFocus{
      }
    </style>
  <sodipodi:namedview
     id="base"
     pagecolor="#ffffff"
     bordercolor="#666666"
     borderopacity="1.0"
     inkscape:pageopacity="0.0"
     inkscape:pageshadow="2"
     inkscape:zoom="19.239197"
     inkscape:cx="20.456808"
     inkscape:cy="33.536933"
     inkscape:document-units="px"
     inkscape:current-layer="layer1"
     showgrid="true"
     units="px"
     inkscape:pagecheckerboard="true"
     inkscape:showpageshadow="false"
     inkscape:snap-bbox="true"
     inkscape:bbox-nodes="true"
     inkscape:snap-object-midpoints="true"
     inkscape:bbox-paths="true"
     showguides="true"
     inkscape:guide-bbox="true"
     fit-margin-top="0"
     fit-margin-left="0"
     fit-margin-right="0"
     fit-margin-bottom="0"
     inkscape:snap-nodes="true"
     inkscape:snap-others="false"
     inkscape:object-paths="true"
     inkscape:snap-intersection-paths="true"
     inkscape:snap-global="false">
    <inkscape:grid
       type="xygrid"
       id="grid834"
       originx="85"
       originy="75.000003" />
    <sodipodi:guide
       position="102,28.000004"
       orientation="1,0"
       id="guide2015"
       inkscape:locked="false" />
  </sodipodi:namedview>
  <metadata
     id="metadata5">
    <rdf:RDF>
      <cc:Work
         rdf:about="">
        <dc:format>image/svg+xml</dc:format>
        <dc:type
           rdf:resource="http://purl.org/dc/dcmitype/StillImage" />
        <dc:title />
      </cc:Work>
    </rdf:RDF>
  </metadata>
  <g
     inkscape:label="Layer 1"
     inkscape:groupmode="layer"
     id="layer1"
     transform="translate(85,-1133.5196)"
     style="display:inline">
    <g
       id="start-here-kde">
      <rect
         style="opacity:1;fill:none;fill-opacity:0.23660715;stroke:none;stroke-width:1;stroke-miterlimit:4;stroke-dasharray:none;stroke-opacity:0.62809921"
         id="rect882"
         width="35.999889"
         height="35.999889"
         x="-73.999947"
         y="1143.5198" />
      <ellipse
         ry="15.000002"
         rx="15"
         style="opacity:1;fill:url(#linearGradient1838);fill-opacity:1;stroke:none;stroke-width:1.99999988;stroke-miterlimit:4;stroke-dasharray:none;stroke-opacity:1"
         id="circle920"
         cx="-56"
         cy="1161.5197" />
      <ellipse
         ry="14.032322"
         rx="14.032372"
         cy="1161.5197"
         cx="-56.000008"
         id="circle898"
         style="opacity:1;fill:url(#linearGradient857);fill-opacity:1;stroke:none;stroke-width:2;stroke-miterlimit:4;stroke-dasharray:none;stroke-opacity:1" />
      <circle
         r="12.096837"
         cy="1161.5197"
         cx="-56"
         id="circle886"
         style="opacity:1;fill:url(#radialGradient896);fill-opacity:1;stroke:none;stroke-width:1.99999988;stroke-miterlimit:4;stroke-dasharray:none;stroke-opacity:1" />
      <path
         id="path1757"
         d="M -43.419262,1161.5196 A 12.580738,12.580738 0 0 1 -56,1174.1003 12.580738,12.580738 0 0 1 -68.580738,1161.5196 12.580738,12.580738 0 0 1 -56,1148.9389 a 12.580738,12.580738 0 0 1 12.580738,12.5807 z"
         style="opacity:1;fill:none;fill-opacity:1;stroke:url(#linearGradient1765);stroke-width:1;stroke-linecap:round;stroke-linejoin:round;stroke-miterlimit:4;stroke-dasharray:none;stroke-opacity:1"
         inkscape:connector-curvature="0" />
      <path
         sodipodi:nodetypes="sssss"
         inkscape:connector-curvature="0"
         id="path1775"
         d="m -43.999998,1160.632 c 0,3.1643 -5.37258,-1.4314 -12,-1.4314 -6.62742,0 -12,4.6425 -12,1.4314 0,-6.1998 5.99675,-11.5928 11.810654,-11.6915 6.602076,-0.1122 12.189346,5.9119 12.189346,11.6915 z"
         style="opacity:1;fill:url(#linearGradient1785);fill-opacity:1;stroke:none;stroke-width:0.5;stroke-linecap:round;stroke-linejoin:round;stroke-miterlimit:4;stroke-dasharray:none;stroke-opacity:1" />
      <g
         style="fill:#000000;fill-opacity:0.42857145"
         transform="translate(1.417969,1.146397)"
         id="g913">
        <path
           id="path909"
           d="m -56.934953,1152.1007 -0.682836,2.7352 a 6.7996775,6.7996775 0 0 0 -2.063108,0.847 l -2.413657,-1.4478 -1.20135,1.2032 1.449655,2.4156 a 6.7996775,6.7996775 0 0 0 -0.854457,2.0576 l -2.73499,0.6845 v 1.7 l 2.73499,0.6827 a 6.7996775,6.7996775 0 0 0 0.845328,2.0631 l -1.447829,2.4135 1.203175,1.2014 2.413657,-1.4479 a 6.7996775,6.7996775 0 0 0 2.061284,0.8564 l 0.682837,2.7315 h 1.699781 l 0.682835,-2.7278 a 6.7996775,6.7996775 0 0 0 2.068588,-0.8509 l 2.410003,1.4461 1.201351,-1.2051 -1.446003,-2.4081 a 6.7996775,6.7996775 0 0 0 0.858108,-2.0667 l 2.727688,-0.6828 v -1.7 l -2.727688,-0.681 a 6.7996775,6.7996775 0 0 0 -0.850803,-2.0686 l 1.444175,-2.41 -1.203176,-1.2011 -2.41183,1.4477 a 6.7996775,6.7996775 0 0 0 -2.063111,-0.8544 l -0.682833,-2.7333 z m 0.847154,4.674 a 4.6739479,4.6739479 0 0 1 4.673947,4.6739 4.6739479,4.6739479 0 0 1 -4.673947,4.674 4.6739479,4.6739479 0 0 1 -4.673949,-4.674 4.6739479,4.6739479 0 0 1 4.673949,-4.6739 z"
           style="opacity:1;fill:#000000;fill-opacity:0.3764706;stroke:none;stroke-width:1.88144636;stroke-linecap:round;stroke-linejoin:round;stroke-miterlimit:4;stroke-dasharray:none;stroke-opacity:1"
           inkscape:connector-curvature="0" />
        <circle
           r="2.5313661"
           style="opacity:0.9;fill:#000000;fill-opacity:0.3764706;stroke:none;stroke-width:1.01897359;stroke-linecap:round;stroke-linejoin:round;stroke-miterlimit:4;stroke-dasharray:none;stroke-opacity:1"
           id="circle911"
           cx="-56.034168"
           cy="1161.4919" />
      </g>
      <path
         id="path2007"
         d="m -56.806526,1152.2045 -0.682833,2.735 a 6.7996775,6.7996775 0 0 0 -2.06311,0.8472 l -2.413658,-1.4477 -1.201349,1.2032 1.449655,2.4154 a 6.7996775,6.7996775 0 0 0 -0.854457,2.0577 l -2.73499,0.6845 v 1.7 l 2.73499,0.6828 a 6.7996775,6.7996775 0 0 0 0.845328,2.063 l -1.44783,2.4137 1.203175,1.2012 2.413658,-1.4477 a 6.7996775,6.7996775 0 0 0 2.061285,0.8563 l 0.682834,2.7314 h 1.699782 l 0.682835,-2.7277 a 6.7996775,6.7996775 0 0 0 2.068588,-0.8509 l 2.410003,1.4461 1.201351,-1.2051 -1.446002,-2.4081 a 6.7996775,6.7996775 0 0 0 0.858107,-2.0668 l 2.727688,-0.6828 v -1.6999 l -2.727688,-0.6811 a 6.7996775,6.7996775 0 0 0 -0.850803,-2.0685 l 1.444175,-2.4099 -1.203175,-1.2014 -2.411832,1.448 a 6.7996775,6.7996775 0 0 0 -2.063109,-0.8547 l -0.682834,-2.7332 z m 0.847154,4.6741 a 4.6739479,4.6739479 0 0 1 4.673947,4.674 4.6739479,4.6739479 0 0 1 -4.673947,4.6739 4.6739479,4.6739479 0 0 1 -4.673949,-4.6739 4.6739479,4.6739479 0 0 1 4.673949,-4.674 z"
         style="opacity:1;fill:url(#linearGradient858);fill-opacity:1;stroke:none;stroke-width:1.88144636;stroke-linecap:round;stroke-linejoin:round;stroke-miterlimit:4;stroke-dasharray:none;stroke-opacity:1"
         inkscape:connector-curvature="0" />
      <circle
         r="2.5313661"
         style="opacity:1;fill:#c9ccce;fill-opacity:1;stroke:none;stroke-width:1.01897359;stroke-linecap:round;stroke-linejoin:round;stroke-miterlimit:4;stroke-dasharray:none;stroke-opacity:1"
         id="circle1868"
         cx="-56.013004"
         cy="1161.509" />
    </g>
  </g>
</svg>
