<?xml version="1.0" encoding="UTF-8" standalone="no"?>
<!-- Created with Inkscape (http://www.inkscape.org/) -->

<svg
   xmlns:dc="http://purl.org/dc/elements/1.1/"
   xmlns:cc="http://creativecommons.org/ns#"
   xmlns:rdf="http://www.w3.org/1999/02/22-rdf-syntax-ns#"
   xmlns:svg="http://www.w3.org/2000/svg"
   xmlns="http://www.w3.org/2000/svg"
   xmlns:xlink="http://www.w3.org/1999/xlink"
   xmlns:sodipodi="http://sodipodi.sourceforge.net/DTD/sodipodi-0.dtd"
   xmlns:inkscape="http://www.inkscape.org/namespaces/inkscape"
   width="64"
   height="64"
   viewBox="0 0 64 64.000002"
   version="1.1"
   id="svg8"
   inkscape:version="0.92.5 (2060ec1f9f, 2020-04-08)"
   sodipodi:docname="start.svg">
  <defs
     id="defs2">
    <linearGradient
       inkscape:collect="always"
       id="linearGradient857">
      <stop
         style="stop-color:#18354a;stop-opacity:1"
         offset="0"
         id="stop853" />
      <stop
         style="stop-color:#2e6b98;stop-opacity:1"
         offset="1"
         id="stop855" />
    </linearGradient>
    <linearGradient
       inkscape:collect="always"
       id="linearGradient1836">
      <stop
         style="stop-color:#ffffff;stop-opacity:0.6473214"
         offset="0"
         id="stop1832" />
      <stop
         id="stop1844"
         offset="0.25458321"
         style="stop-color:#7a7a7a;stop-opacity:0.62053573" />
      <stop
         id="stop1840"
         offset="0.42010033"
         style="stop-color:#607d8d;stop-opacity:0.87058824;" />
      <stop
         style="stop-color:#0e2836;stop-opacity:0.93303573"
         offset="1"
         id="stop1834" />
    </linearGradient>
    <linearGradient
       inkscape:collect="always"
       id="linearGradient1763">
      <stop
         style="stop-color:#e6f3fb;stop-opacity:1"
         offset="0"
         id="stop1759" />
      <stop
         id="stop1769"
         offset="0.48297125"
         style="stop-color:#7ccced;stop-opacity:0.0045045" />
      <stop
         style="stop-color:#64c4ea;stop-opacity:0.1036036"
         offset="0.54230392"
         id="stop1771" />
      <stop
         style="stop-color:#19d5fb;stop-opacity:1"
         offset="1"
         id="stop1761" />
    </linearGradient>
    <radialGradient
       inkscape:collect="always"
       xlink:href="#linearGradient892"
       id="radialGradient896"
       cx="16.764961"
       cy="99.646584"
       fx="16.764961"
       fy="99.646584"
       r="7.000001"
       gradientTransform="matrix(1.2312839,-1.1431512,1.3432505,1.2125418,-210.34152,1072.7729)"
       gradientUnits="userSpaceOnUse" />
    <linearGradient
       inkscape:collect="always"
       id="linearGradient892">
      <stop
         style="stop-color:#5ce1fc;stop-opacity:1"
         offset="0"
         id="stop888" />
      <stop
         id="stop1773"
         offset="0.44060701"
         style="stop-color:#11b5dc;stop-opacity:0.82432431" />
      <stop
         style="stop-color:#046b90;stop-opacity:0"
         offset="1"
         id="stop890" />
    </linearGradient>
    <linearGradient
       inkscape:collect="always"
       xlink:href="#linearGradient1763"
       id="linearGradient1765"
       x1="-79.570107"
       y1="1100.2456"
       x2="-79.585823"
       y2="1127.7935"
       gradientUnits="userSpaceOnUse"
       gradientTransform="matrix(0.91496279,0,0,0.91496279,16.739541,142.23319)" />
    <linearGradient
       inkscape:collect="always"
       xlink:href="#linearGradient1783"
       id="linearGradient1785"
       x1="-79.460182"
       y1="1100.0781"
       x2="-79.5"
       y2="1111.7742"
       gradientUnits="userSpaceOnUse"
       gradientTransform="matrix(0.85714286,0,0,0.89848453,12.14286,160.60775)" />
    <linearGradient
       inkscape:collect="always"
       id="linearGradient1783">
      <stop
         style="stop-color:#bbd1e6;stop-opacity:0.80803573"
         offset="0"
         id="stop1779" />
      <stop
         style="stop-color:#cbe6ff;stop-opacity:0.00446429"
         offset="1"
         id="stop1781" />
    </linearGradient>
    <linearGradient
       inkscape:collect="always"
       xlink:href="#linearGradient1836"
       id="linearGradient1838"
       x1="-78.917465"
       y1="1129.6765"
       x2="-78.917465"
       y2="1098.4784"
       gradientUnits="userSpaceOnUse"
       gradientTransform="matrix(0.96774188,0,0,0.96774188,20.935479,83.436248)" />
    <linearGradient
       inkscape:collect="always"
       xlink:href="#linearGradient857"
       id="linearGradient859"
       x1="-56"
       y1="1175.5197"
       x2="-56"
       y2="1146.5197"
       gradientUnits="userSpaceOnUse"
       gradientTransform="matrix(0.96774188,0,0,0.96774188,-1.8064549,37.468445)" />
  </defs>
  <style
     id="current-color-scheme"
     type="text/css">
      .ColorScheme-Text {
      }
      .ColorScheme-Background{
      }
      .ColorScheme-Highlight{
      }
      .ColorScheme-ViewText {
      }
      .ColorScheme-ViewBackground{
      }
      .ColorScheme-ViewHover {
      }
      .ColorScheme-ViewFocus{
      }
      .ColorScheme-ButtonText {
      }
      .ColorScheme-ButtonBackground{
      }
      .ColorScheme-ButtonHover {
      }
      .ColorScheme-ButtonFocus{
      }
    </style>
  <sodipodi:namedview
     id="base"
     pagecolor="#ffffff"
     bordercolor="#666666"
     borderopacity="1.0"
     inkscape:pageopacity="0.0"
     inkscape:pageshadow="2"
     inkscape:zoom="19.239197"
     inkscape:cx="33.162495"
     inkscape:cy="35.510737"
     inkscape:document-units="px"
     inkscape:current-layer="layer1"
     showgrid="true"
     units="px"
     inkscape:pagecheckerboard="true"
     inkscape:showpageshadow="false"
     inkscape:snap-bbox="true"
     inkscape:bbox-nodes="true"
     inkscape:snap-object-midpoints="true"
     inkscape:bbox-paths="true"
     showguides="true"
     inkscape:guide-bbox="true"
     fit-margin-top="0"
     fit-margin-left="0"
     fit-margin-right="0"
     fit-margin-bottom="0"
     inkscape:snap-nodes="true"
     inkscape:snap-others="false"
     inkscape:object-paths="true"
     inkscape:snap-intersection-paths="true">
    <inkscape:grid
       type="xygrid"
       id="grid834"
       originx="85"
       originy="75.000003" />
    <sodipodi:guide
       position="102,28.000004"
       orientation="1,0"
       id="guide2015"
       inkscape:locked="false" />
  </sodipodi:namedview>
  <metadata
     id="metadata5">
    <rdf:RDF>
      <cc:Work
         rdf:about="">
        <dc:format>image/svg+xml</dc:format>
        <dc:type
           rdf:resource="http://purl.org/dc/dcmitype/StillImage" />
        <dc:title />
      </cc:Work>
    </rdf:RDF>
  </metadata>
  <g
     inkscape:label="Layer 1"
     inkscape:groupmode="layer"
     id="layer1"
     transform="translate(85,-1133.5196)"
     style="display:inline">
    <g
       id="start-here-kde">
      <rect
         style="opacity:1;fill:none;fill-opacity:0.23660715;stroke:none;stroke-width:1;stroke-miterlimit:4;stroke-dasharray:none;stroke-opacity:0.62809921"
         id="rect882"
         width="35.999889"
         height="35.999889"
         x="-73.999947"
         y="1143.5198" />
      <ellipse
         ry="15.000002"
         rx="15"
         style="opacity:1;fill:url(#linearGradient1838);fill-opacity:1;stroke:none;stroke-width:1.99999988;stroke-miterlimit:4;stroke-dasharray:none;stroke-opacity:1"
         id="circle920"
         cx="-56"
         cy="1161.5197" />
      <ellipse
         ry="14.032322"
         rx="14.032372"
         cy="1161.5197"
         cx="-56.000008"
         id="circle898"
         style="opacity:1;fill:url(#linearGradient859);fill-opacity:1;stroke:none;stroke-width:2;stroke-miterlimit:4;stroke-dasharray:none;stroke-opacity:1" />
      <circle
         r="12.096837"
         cy="1161.5197"
         cx="-56"
         id="circle886"
         style="opacity:1;fill:url(#radialGradient896);fill-opacity:1;stroke:none;stroke-width:1.99999988;stroke-miterlimit:4;stroke-dasharray:none;stroke-opacity:1" />
      <path
         id="path1757"
         d="M -43.419262,1161.5196 A 12.580738,12.580738 0 0 1 -56,1174.1003 12.580738,12.580738 0 0 1 -68.580738,1161.5196 12.580738,12.580738 0 0 1 -56,1148.9389 a 12.580738,12.580738 0 0 1 12.580738,12.5807 z"
         style="opacity:1;fill:none;fill-opacity:1;stroke:url(#linearGradient1765);stroke-width:1;stroke-linecap:round;stroke-linejoin:round;stroke-miterlimit:4;stroke-dasharray:none;stroke-opacity:1"
         inkscape:connector-curvature="0" />
      <path
         sodipodi:nodetypes="sssss"
         inkscape:connector-curvature="0"
         id="path1775"
         d="m -43.999998,1160.632 c 0,3.1643 -5.37258,-1.4314 -12,-1.4314 -6.62742,0 -12,4.6425 -12,1.4314 0,-6.1998 5.99675,-11.5928 11.810654,-11.6915 6.602076,-0.1122 12.189346,5.9119 12.189346,11.6915 z"
         style="opacity:1;fill:url(#linearGradient1785);fill-opacity:1;stroke:none;stroke-width:0.5;stroke-linecap:round;stroke-linejoin:round;stroke-miterlimit:4;stroke-dasharray:none;stroke-opacity:1" />
      <g
         style="fill:#000000;fill-opacity:0.42857145"
         transform="translate(1.417969,1.146397)"
         id="g913">
        <path
           id="path909"
           d="m -56.919217,1152.6664 -0.639246,2.5605 a 6.3656105,6.3656105 0 0 0 -1.931407,0.793 l -2.259578,-1.3554 -1.12466,1.1264 1.357114,2.2614 a 6.3656105,6.3656105 0 0 0 -0.799912,1.9263 l -2.560397,0.6408 v 1.5914 l 2.560397,0.6391 a 6.3656105,6.3656105 0 0 0 0.791366,1.9315 l -1.355405,2.2595 1.126369,1.1247 2.259578,-1.3555 a 6.3656105,6.3656105 0 0 0 1.929699,0.8017 l 0.639246,2.557 h 1.591274 l 0.639245,-2.5536 a 6.3656105,6.3656105 0 0 0 1.936536,-0.7965 l 2.256158,1.3538 1.124661,-1.1282 -1.353695,-2.2544 a 6.3656105,6.3656105 0 0 0 0.803329,-1.9348 l 2.553562,-0.6392 v -1.5914 l -2.553562,-0.6376 a 6.3656105,6.3656105 0 0 0 -0.796491,-1.9365 l 1.351984,-2.2561 -1.126369,-1.1246 -2.257868,1.3554 a 6.3656105,6.3656105 0 0 0 -1.931408,-0.7999 l -0.639245,-2.5588 z m 0.793074,4.3756 a 4.3755798,4.3755798 0 0 1 4.375579,4.3756 4.3755798,4.3755798 0 0 1 -4.375579,4.3756 4.3755798,4.3755798 0 0 1 -4.37558,-4.3756 4.3755798,4.3755798 0 0 1 4.37558,-4.3756 z"
           style="opacity:1;fill:#000000;fill-opacity:0.42857145;stroke:none;stroke-width:1.99999988;stroke-linecap:round;stroke-linejoin:round;stroke-miterlimit:4;stroke-dasharray:none;stroke-opacity:1"
           inkscape:connector-curvature="0" />
        <circle
           r="2.1877899"
           style="opacity:0.9;fill:#000000;fill-opacity:0.42857145;stroke:none;stroke-width:0.99999994;stroke-linecap:round;stroke-linejoin:round;stroke-miterlimit:4;stroke-dasharray:none;stroke-opacity:1"
           id="circle911"
           cx="-56.126144"
           cy="1161.4176" />
      </g>
      <g
         id="g907">
        <path
           inkscape:connector-curvature="0"
           style="opacity:1;fill:#f5f5f5;fill-opacity:1;stroke:none;stroke-width:1.99999988;stroke-linecap:round;stroke-linejoin:round;stroke-miterlimit:4;stroke-dasharray:none;stroke-opacity:1"
           d="m -56.666931,1152.8704 -0.639245,2.5604 a 6.3656105,6.3656105 0 0 0 -1.931407,0.7931 l -2.259578,-1.3554 -1.12466,1.1264 1.357114,2.2613 a 6.3656105,6.3656105 0 0 0 -0.799912,1.9263 l -2.560397,0.6408 v 1.5914 l 2.560397,0.6392 a 6.3656105,6.3656105 0 0 0 0.791366,1.9314 l -1.355405,2.2596 1.126369,1.1246 2.259578,-1.3554 a 6.3656105,6.3656105 0 0 0 1.929699,0.8017 l 0.639245,2.557 h 1.591275 l 0.639244,-2.5536 a 6.3656105,6.3656105 0 0 0 1.936537,-0.7965 l 2.256157,1.3537 1.124662,-1.1281 -1.353695,-2.2544 a 6.3656105,6.3656105 0 0 0 0.803329,-1.9348 l 2.553561,-0.6393 v -1.5913 l -2.553561,-0.6376 a 6.3656105,6.3656105 0 0 0 -0.796492,-1.9365 l 1.351985,-2.2561 -1.126369,-1.1247 -2.257869,1.3555 a 6.3656105,6.3656105 0 0 0 -1.931408,-0.8 l -0.639244,-2.5587 z m 0.793075,4.3756 a 4.3755798,4.3755798 0 0 1 4.375579,4.3756 4.3755798,4.3755798 0 0 1 -4.375579,4.3756 4.3755798,4.3755798 0 0 1 -4.375581,-4.3756 4.3755798,4.3755798 0 0 1 4.375581,-4.3756 z"
           id="path2007" />
        <circle
           cy="1161.6216"
           cx="-55.873856"
           id="circle1868"
           style="opacity:0.9;fill:#f5f5f5;fill-opacity:1;stroke:none;stroke-width:0.99999994;stroke-linecap:round;stroke-linejoin:round;stroke-miterlimit:4;stroke-dasharray:none;stroke-opacity:1"
           r="2.1877899" />
      </g>
    </g>
  </g>
</svg>
