<?xml version="1.0" encoding="UTF-8" standalone="no"?>
<!-- Created with Inkscape (http://www.inkscape.org/) -->

<svg
   width="35.999889"
   height="35.999889"
   viewBox="0 0 35.999889 35.99989"
   version="1.1"
   id="svg8"
   inkscape:version="1.3 (0e150ed6c4, 2023-07-21)"
   sodipodi:docname="start.svg"
   xmlns:inkscape="http://www.inkscape.org/namespaces/inkscape"
   xmlns:sodipodi="http://sodipodi.sourceforge.net/DTD/sodipodi-0.dtd"
   xmlns:xlink="http://www.w3.org/1999/xlink"
   xmlns="http://www.w3.org/2000/svg"
   xmlns:svg="http://www.w3.org/2000/svg"
   xmlns:rdf="http://www.w3.org/1999/02/22-rdf-syntax-ns#"
   xmlns:cc="http://creativecommons.org/ns#"
   xmlns:dc="http://purl.org/dc/elements/1.1/">
  <sodipodi:namedview
     id="base"
     pagecolor="#d1d1d1"
     bordercolor="#666666"
     borderopacity="1.0"
     inkscape:pageopacity="0"
     inkscape:pageshadow="2"
     inkscape:zoom="19.239197"
     inkscape:cx="32.199889"
     inkscape:cy="12.396567"
     inkscape:document-units="px"
     inkscape:current-layer="layer1"
     showgrid="true"
     units="px"
     inkscape:pagecheckerboard="true"
     inkscape:showpageshadow="false"
     inkscape:snap-bbox="true"
     inkscape:bbox-nodes="true"
     inkscape:snap-object-midpoints="true"
     inkscape:bbox-paths="true"
     showguides="true"
     inkscape:guide-bbox="true"
     fit-margin-top="0"
     fit-margin-left="0"
     fit-margin-right="0"
     fit-margin-bottom="0"
     inkscape:snap-nodes="true"
     inkscape:snap-others="false"
     inkscape:object-paths="true"
     inkscape:snap-intersection-paths="true"
     inkscape:snap-global="false"
     inkscape:deskcolor="#d1d1d1"
     borderlayer="false">
    <inkscape:grid
       type="xygrid"
       id="grid834"
       originx="73.999946"
       originy="64.999829"
       spacingy="1"
       spacingx="1"
       units="px"
       visible="true" />
    <sodipodi:guide
       position="90.999945,10.000068"
       orientation="1,0"
       id="guide2015"
       inkscape:locked="false" />
  </sodipodi:namedview>
  <defs
     id="defs2">
    <linearGradient
       inkscape:collect="always"
       id="linearGradient51">
      <stop
         style="stop-color:#5e8aa4;stop-opacity:1;"
         offset="0"
         id="stop50" />
      <stop
         style="stop-color:#1c3b50;stop-opacity:1;"
         offset="1"
         id="stop51" />
    </linearGradient>
    <linearGradient
       inkscape:collect="always"
       id="linearGradient854">
      <stop
         style="stop-color:#104e7b;stop-opacity:1"
         offset="0"
         id="stop849" />
      <stop
         style="stop-color:#115586;stop-opacity:1;"
         offset="1"
         id="stop852" />
    </linearGradient>
    <linearGradient
       inkscape:collect="always"
       id="linearGradient1763">
      <stop
         style="stop-color:#f8fcfc;stop-opacity:1"
         offset="0"
         id="stop1759" />
      <stop
         id="stop1769"
         offset="0.48297125"
         style="stop-color:#7ccced;stop-opacity:0.49561402" />
      <stop
         style="stop-color:#19d5fb;stop-opacity:1"
         offset="1"
         id="stop1761" />
    </linearGradient>
    <radialGradient
       inkscape:collect="always"
       xlink:href="#linearGradient892"
       id="radialGradient896"
       cx="17.280622"
       cy="99.090614"
       fx="17.280622"
       fy="99.090614"
       r="7.000001"
       gradientTransform="matrix(1.708393,-1.4224832,1.6196995,1.5678212,-245.90462,1042.9234)"
       gradientUnits="userSpaceOnUse" />
    <linearGradient
       inkscape:collect="always"
       id="linearGradient892">
      <stop
         style="stop-color:#19d5fb;stop-opacity:0.82017541"
         offset="0"
         id="stop888" />
      <stop
         id="stop1494"
         offset="0.38759074"
         style="stop-color:#19d5fb;stop-opacity:0.56129032;" />
      <stop
         style="stop-color:#1480c4;stop-opacity:1;"
         offset="0.70078248"
         id="stop1496" />
      <stop
         style="stop-color:#0f4b75;stop-opacity:0.00438596"
         offset="1"
         id="stop890" />
    </linearGradient>
    <linearGradient
       inkscape:collect="always"
       xlink:href="#linearGradient1763"
       id="linearGradient1765"
       x1="-79.570107"
       y1="1100.2456"
       x2="-79.585823"
       y2="1127.7935"
       gradientUnits="userSpaceOnUse"
       gradientTransform="matrix(0.91496279,0,0,0.91496279,16.739541,142.23319)" />
    <linearGradient
       inkscape:collect="always"
       xlink:href="#linearGradient1783"
       id="linearGradient1785"
       x1="-79.460182"
       y1="1100.0781"
       x2="-79.460182"
       y2="1114.2285"
       gradientUnits="userSpaceOnUse"
       gradientTransform="matrix(0.85714286,0,0,0.89848453,12.14286,160.60775)" />
    <linearGradient
       inkscape:collect="always"
       id="linearGradient1783">
      <stop
         style="stop-color:#96b8d9;stop-opacity:0.80784315"
         offset="0"
         id="stop1779" />
      <stop
         style="stop-color:#007ef2;stop-opacity:0.00392157"
         offset="1"
         id="stop1781" />
    </linearGradient>
    <linearGradient
       inkscape:collect="always"
       xlink:href="#linearGradient51"
       id="linearGradient1838"
       x1="-78.917465"
       y1="1129.6765"
       x2="-78.917465"
       y2="1098.4784"
       gradientUnits="userSpaceOnUse"
       gradientTransform="matrix(0.96774188,0,0,0.96774188,20.935479,83.436248)" />
    <linearGradient
       inkscape:collect="always"
       xlink:href="#linearGradient854"
       id="linearGradient857"
       x1="-56.059765"
       y1="1147.7292"
       x2="-56.059765"
       y2="1175.5015"
       gradientUnits="userSpaceOnUse" />
    <linearGradient
       inkscape:collect="always"
       xlink:href="#linearGradient8053"
       id="linearGradient8055"
       x1="-65.107353"
       y1="1150.9349"
       x2="-46.892666"
       y2="1170.1941"
       gradientUnits="userSpaceOnUse"
       gradientTransform="translate(3.7138672e-6)" />
    <linearGradient
       inkscape:collect="always"
       id="linearGradient8053">
      <stop
         style="stop-color:#ffffff;stop-opacity:0.43483886;"
         offset="0"
         id="stop8049" />
      <stop
         style="stop-color:#ffffff;stop-opacity:0.09228577;"
         offset="1"
         id="stop8051" />
    </linearGradient>
    <linearGradient
       inkscape:collect="always"
       xlink:href="#linearGradient96"
       id="linearGradient44"
       x1="318.10172"
       y1="169.96732"
       x2="318.10172"
       y2="189.96732"
       gradientUnits="userSpaceOnUse"
       gradientTransform="matrix(3.5,0,0,1,-1120.8559,947.55171)" />
    <linearGradient
       id="linearGradient96"
       inkscape:collect="always">
      <stop
         style="stop-color:#718995;stop-opacity:1;"
         offset="0"
         id="stop93" />
      <stop
         style="stop-color:#646b6d;stop-opacity:1;"
         offset="0.49882975"
         id="stop94" />
      <stop
         style="stop-color:#292d3b;stop-opacity:1;"
         offset="0.49999967"
         id="stop95" />
      <stop
         style="stop-color:#3b494e;stop-opacity:1;"
         offset="1"
         id="stop96" />
    </linearGradient>
    <linearGradient
       inkscape:collect="always"
       xlink:href="#linearGradient96"
       id="linearGradient52"
       x1="319.76837"
       y1="169.7529"
       x2="319.76837"
       y2="191.18233"
       gradientUnits="userSpaceOnUse"
       gradientTransform="matrix(1.5000038,0,0,1.0000002,-159.55208,-3.596089e-5)" />
    <linearGradient
       inkscape:collect="always"
       xlink:href="#linearGradient96"
       id="linearGradient54"
       x1="319.76837"
       y1="169.75298"
       x2="319.76837"
       y2="191.18199"
       gradientUnits="userSpaceOnUse"
       gradientTransform="matrix(1.5000139,0,0,1.0000188,-159.5553,-0.00354022)" />
    <linearGradient
       inkscape:collect="always"
       xlink:href="#linearGradient96"
       id="linearGradient91"
       x1="316.10172"
       y1="-169.96732"
       x2="316.10172"
       y2="-189.96732"
       gradientUnits="userSpaceOnUse" />
    <linearGradient
       inkscape:collect="always"
       xlink:href="#linearGradient96"
       id="linearGradient93"
       gradientUnits="userSpaceOnUse"
       x1="317.10172"
       y1="-189.96675"
       x2="317.10172"
       y2="-169.96733" />
    <linearGradient
       inkscape:collect="always"
       xlink:href="#linearGradient96"
       id="linearGradient1"
       gradientUnits="userSpaceOnUse"
       x1="314.10172"
       y1="169.96732"
       x2="314.10172"
       y2="188.96732" />
    <linearGradient
       inkscape:collect="always"
       xlink:href="#linearGradient96"
       id="linearGradient3"
       gradientUnits="userSpaceOnUse"
       x1="314.09192"
       y1="188.96733"
       x2="314.09192"
       y2="169.96733" />
    <linearGradient
       inkscape:collect="always"
       xlink:href="#linearGradient96"
       id="linearGradient2"
       gradientUnits="userSpaceOnUse"
       x1="314.10172"
       y1="169.96732"
       x2="314.10172"
       y2="188.96732" />
    <linearGradient
       inkscape:collect="always"
       xlink:href="#linearGradient96"
       id="linearGradient4"
       gradientUnits="userSpaceOnUse"
       x1="314.09192"
       y1="188.96733"
       x2="314.09192"
       y2="169.96733" />
  </defs>
  <style
     id="current-color-scheme"
     type="text/css">&#10;      .ColorScheme-Text {&#10;      }&#10;      .ColorScheme-Background{&#10;      }&#10;      .ColorScheme-Highlight{&#10;      }&#10;      .ColorScheme-ViewText {&#10;      }&#10;      .ColorScheme-ViewBackground{&#10;      }&#10;      .ColorScheme-ViewHover {&#10;      }&#10;      .ColorScheme-ViewFocus{&#10;      }&#10;      .ColorScheme-ButtonText {&#10;      }&#10;      .ColorScheme-ButtonBackground{&#10;      }&#10;      .ColorScheme-ButtonHover {&#10;      }&#10;      .ColorScheme-ButtonFocus{&#10;      }&#10;    </style>
  <metadata
     id="metadata5">
    <rdf:RDF>
      <cc:Work
         rdf:about="">
        <dc:format>image/svg+xml</dc:format>
        <dc:type
           rdf:resource="http://purl.org/dc/dcmitype/StillImage" />
      </cc:Work>
    </rdf:RDF>
  </metadata>
  <g
     inkscape:label="Layer 1"
     inkscape:groupmode="layer"
     id="layer1"
     transform="translate(73.999947,-1143.5198)"
     style="display:inline">
    <g
       id="start-here-kde"
       transform="matrix(1.5000001,0,0,1,36.000008,0)"
       style="stroke-width:0.816497">
      <rect
         style="fill:none;fill-opacity:0.236607;stroke:none;stroke-width:0.816494;stroke-miterlimit:4;stroke-dasharray:none;stroke-opacity:0.628099"
         id="rect882"
         width="32.000004"
         height="32.000088"
         x="-72.000008"
         y="1145.5197" />
      <ellipse
         ry="15.000002"
         rx="15"
         style="fill:url(#linearGradient1838);fill-opacity:1;stroke:none;stroke-width:1.63299;stroke-miterlimit:4;stroke-dasharray:none;stroke-opacity:1"
         id="circle920"
         cx="-56"
         cy="1161.5197" />
      <ellipse
         ry="14.032322"
         rx="14.032372"
         cy="1161.5197"
         cx="-56.000008"
         id="circle898"
         style="fill:url(#linearGradient857);fill-opacity:1;stroke:none;stroke-width:1.63299;stroke-miterlimit:4;stroke-dasharray:none;stroke-opacity:1" />
      <circle
         r="12.096837"
         cy="1161.5197"
         cx="-56"
         id="circle886"
         style="fill:url(#radialGradient896);fill-opacity:1;stroke:none;stroke-width:1.63299;stroke-miterlimit:4;stroke-dasharray:none;stroke-opacity:1" />
      <path
         id="path1757"
         d="M -43.419262,1161.5196 A 12.580738,12.580738 0 0 1 -56,1174.1003 12.580738,12.580738 0 0 1 -68.580738,1161.5196 12.580738,12.580738 0 0 1 -56,1148.9389 a 12.580738,12.580738 0 0 1 12.580738,12.5807 z"
         style="fill:none;fill-opacity:1;stroke:url(#linearGradient1765);stroke-width:0.816497;stroke-linecap:round;stroke-linejoin:round;stroke-miterlimit:4;stroke-dasharray:none;stroke-opacity:1"
         inkscape:connector-curvature="0" />
      <path
         sodipodi:nodetypes="sssss"
         inkscape:connector-curvature="0"
         id="path1775"
         d="m -43.999998,1160.632 c 0,3.1643 -5.37258,-1.4314 -12,-1.4314 -6.62742,0 -12,4.6425 -12,1.4314 0,-6.1998 5.99675,-11.5928 11.810654,-11.6915 6.602076,-0.1122 12.189346,5.9119 12.189346,11.6915 z"
         style="fill:url(#linearGradient1785);fill-opacity:1;stroke:none;stroke-width:0.408248;stroke-linecap:round;stroke-linejoin:round;stroke-miterlimit:4;stroke-dasharray:none;stroke-opacity:1" />
      <g
         style="fill:#000000;fill-opacity:0.428571;stroke-width:0.816497"
         transform="translate(1.417969,1.146397)"
         id="g913">
        <path
           id="path909"
           d="m -56.938235,1151.9576 -0.693904,2.7796 a 6.9099127,6.9099127 0 0 0 -2.096556,0.8608 l -2.452787,-1.4714 -1.220826,1.2228 1.473158,2.4548 a 6.9099127,6.9099127 0 0 0 -0.86831,2.0909 l -2.779329,0.6955 v 1.7276 l 2.779329,0.6938 a 6.9099127,6.9099127 0 0 0 0.859032,2.0965 l -1.471301,2.4525 1.222681,1.2209 2.452787,-1.4712 a 6.9099127,6.9099127 0 0 0 2.0947,0.8702 l 0.693908,2.7759 h 1.727337 l 0.693905,-2.7721 a 6.9099127,6.9099127 0 0 0 2.102123,-0.8647 l 2.449075,1.4696 1.220826,-1.2248 -1.469445,-2.447 a 6.9099127,6.9099127 0 0 0 0.87202,-2.1002 l 2.771909,-0.6939 v -1.7275 l -2.771909,-0.6921 a 6.9099127,6.9099127 0 0 0 -0.864596,-2.1022 l 1.467588,-2.4491 -1.222683,-1.2205 -2.450929,1.4712 a 6.9099127,6.9099127 0 0 0 -2.096559,-0.8683 l -0.693903,-2.7776 z m 0.86089,4.7498 a 4.7497211,4.7497211 0 0 1 4.74972,4.7497 4.7497211,4.7497211 0 0 1 -4.74972,4.7498 4.7497211,4.7497211 0 0 1 -4.749723,-4.7498 4.7497211,4.7497211 0 0 1 4.749723,-4.7497 z"
           style="opacity:1;fill:#000000;fill-opacity:0.469573;stroke:none;stroke-width:1.5611;stroke-linecap:round;stroke-linejoin:round;stroke-miterlimit:4;stroke-dasharray:none;stroke-opacity:1"
           inkscape:connector-curvature="0" />
        <circle
           r="2.3009787"
           style="opacity:0.9;fill:#000000;fill-opacity:0.376471;stroke:none;stroke-width:0.756264;stroke-linecap:round;stroke-linejoin:round;stroke-miterlimit:4;stroke-dasharray:none;stroke-opacity:1"
           id="circle911"
           cx="-56.097733"
           cy="1161.4406" />
      </g>
      <path
         id="path2007"
         d="m -56.830713,1152.0444 -0.693903,2.7795 a 6.9099127,6.9099127 0 0 0 -2.096556,0.8609 l -2.452788,-1.4712 -1.220825,1.2228 1.473156,2.4544 a 6.9099127,6.9099127 0 0 0 -0.868309,2.0911 l -2.77933,0.6956 v 1.7275 l 2.77933,0.694 a 6.9099127,6.9099127 0 0 0 0.859031,2.0963 l -1.471301,2.453 1.22268,1.2206 2.452789,-1.4712 a 6.9099127,6.9099127 0 0 0 2.094702,0.8702 l 0.693903,2.7757 h 1.72734 l 0.693905,-2.772 a 6.9099127,6.9099127 0 0 0 2.102123,-0.8647 l 2.449073,1.4696 1.220828,-1.2247 -1.469445,-2.4471 a 6.9099127,6.9099127 0 0 0 0.872019,-2.1004 l 2.771908,-0.6937 v -1.7275 l -2.771908,-0.6922 a 6.9099127,6.9099127 0 0 0 -0.864597,-2.1019 l 1.467589,-2.4489 -1.222681,-1.221 -2.450932,1.4714 a 6.9099127,6.9099127 0 0 0 -2.096557,-0.8684 l -0.693904,-2.7777 z m 0.860887,4.7499 a 4.7497211,4.7497211 0 0 1 4.749721,4.7498 4.7497211,4.7497211 0 0 1 -4.749721,4.7497 4.7497211,4.7497211 0 0 1 -4.749721,-4.7497 4.7497211,4.7497211 0 0 1 4.749721,-4.7498 z"
         style="fill:#f7ffff;fill-opacity:1;stroke:none;stroke-width:1.5611;stroke-linecap:round;stroke-linejoin:round;stroke-miterlimit:4;stroke-dasharray:none;stroke-opacity:1"
         inkscape:connector-curvature="0" />
      <circle
         r="2.3009787"
         style="fill:#f7ffff;fill-opacity:1;stroke:none;stroke-width:0.756264;stroke-linecap:round;stroke-linejoin:round;stroke-miterlimit:4;stroke-dasharray:none;stroke-opacity:1"
         id="circle1868"
         cx="-55.94944"
         cy="1161.5604" />
      <ellipse
         ry="14.032322"
         rx="14.032372"
         cy="1161.5197"
         cx="-56.000008"
         id="ellipse8047"
         style="display:inline;opacity:0.3;fill:url(#linearGradient8055);fill-opacity:1;stroke:none;stroke-width:1.63299;stroke-miterlimit:4;stroke-dasharray:none;stroke-opacity:1" />
    </g>
    <g
       id="22-22-start-here-kde"
       transform="translate(-27.99998,-4.9999977)">
      <rect
         transform="scale(1,-1)"
         style="fill:none;fill-opacity:1;stroke:none;stroke-width:1.5;stroke-linecap:round;stroke-miterlimit:4;stroke-dasharray:none;stroke-opacity:1"
         id="rect1654"
         width="3.9999998"
         height="0.99999589"
         x="-14.999992"
         y="-1120.5203" />
      <rect
         style="fill:url(#linearGradient44);fill-opacity:1;stroke-width:2.50001;stroke-linecap:round;stroke-linejoin:round;stroke-opacity:0.904689"
         id="toolbutton-hover-center"
         width="14"
         height="13.999983"
         x="-17.999874"
         y="1120.519" />
      <g
         id="toolbutton-hover-right"
         transform="matrix(1,0,0,0.93329591,-323.10173,959.0902)"
         style="stroke-width:1.03512">
        <rect
           style="fill:url(#linearGradient52);stroke:none;stroke-width:1.09793;stroke-linecap:round;stroke-miterlimit:4;stroke-dasharray:none;stroke-opacity:1"
           id="rect2220"
           width="2.9999845"
           height="15.000603"
           x="319.10172"
           y="172.96732" />
        <rect
           y="172.96733"
           x="322.10172"
           height="15"
           width="1.0000001"
           id="rect1734"
           style="fill:#181b1e;fill-opacity:1;stroke:none;stroke-width:1.55268;stroke-linecap:round;stroke-miterlimit:4;stroke-dasharray:none;stroke-opacity:1" />
        <rect
           y="172.96733"
           x="321.10172"
           height="15"
           width="1.0000001"
           id="rect37"
           style="opacity:0.2;fill:#ffffff;fill-opacity:1;stroke:none;stroke-width:1.55268;stroke-linecap:round;stroke-miterlimit:4;stroke-dasharray:none;stroke-opacity:1" />
      </g>
      <g
         id="toolbutton-hover-left"
         transform="matrix(-1,0,0,0.93329591,301.10171,959.0902)"
         style="stroke-width:1.03512">
        <rect
           style="fill:url(#linearGradient54);stroke:none;stroke-width:1.09793;stroke-linecap:round;stroke-miterlimit:4;stroke-dasharray:none;stroke-opacity:1"
           id="rect40"
           width="3.0000048"
           height="15.000882"
           x="319.10172"
           y="172.96703" />
        <rect
           y="172.96733"
           x="322.10172"
           height="15"
           width="1.0000001"
           id="rect41"
           style="fill:#181b1e;fill-opacity:1;stroke:none;stroke-width:1.55268;stroke-linecap:round;stroke-miterlimit:4;stroke-dasharray:none;stroke-opacity:1" />
        <rect
           y="172.96733"
           x="321.10172"
           height="15"
           width="1.0000001"
           id="rect42"
           style="opacity:0.2;fill:#ffffff;fill-opacity:1;stroke:none;stroke-width:1.55268;stroke-linecap:round;stroke-miterlimit:4;stroke-dasharray:none;stroke-opacity:1" />
      </g>
      <g
         id="toolbutton-hover-top"
         transform="matrix(3.4999733,0,0,1,-1120.8475,947.55171)"
         style="stroke-width:0.534525">
        <rect
           transform="scale(1,-1)"
           style="fill:#181b1e;fill-opacity:1;stroke:none;stroke-width:0.801787;stroke-linecap:round;stroke-miterlimit:4;stroke-dasharray:none;stroke-opacity:1"
           id="rect1656"
           width="3.9999998"
           height="0.99999589"
           x="315.10172"
           y="-169.96733" />
        <rect
           transform="scale(1,-1)"
           y="-172.96791"
           x="315.10172"
           height="3.0005975"
           width="4"
           id="rect2242"
           style="fill:url(#linearGradient91);stroke:none;stroke-width:0.801792;stroke-linecap:round;stroke-miterlimit:4;stroke-dasharray:none;stroke-opacity:1" />
        <rect
           transform="scale(1,-1)"
           style="opacity:0.2;fill:#ffffff;fill-opacity:0.945537;stroke:none;stroke-width:0.801787;stroke-linecap:round;stroke-miterlimit:4;stroke-dasharray:none;stroke-opacity:1"
           id="rect54"
           width="3.9999998"
           height="0.99999589"
           x="315.10168"
           y="-170.96732" />
      </g>
      <g
         id="toolbutton-hover-bottom"
         transform="matrix(3.4999733,0,0,-1,-1120.8474,1307.4869)"
         style="stroke-width:0.534525">
        <rect
           transform="scale(1,-1)"
           style="fill:#181b1e;fill-opacity:1;stroke:none;stroke-width:0.801787;stroke-linecap:round;stroke-miterlimit:4;stroke-dasharray:none;stroke-opacity:1"
           id="rect91"
           width="3.9999998"
           height="0.99999589"
           x="315.10172"
           y="-169.96733" />
        <rect
           transform="scale(1,-1)"
           y="-172.96791"
           x="315.10172"
           height="3.0005975"
           width="4"
           id="rect92-2"
           style="fill:url(#linearGradient93);stroke:none;stroke-width:0.801792;stroke-linecap:round;stroke-miterlimit:4;stroke-dasharray:none;stroke-opacity:1" />
        <rect
           transform="scale(1,-1)"
           style="opacity:0.2;fill:#ffffff;fill-opacity:0.945537;stroke:none;stroke-width:0.801787;stroke-linecap:round;stroke-miterlimit:4;stroke-dasharray:none;stroke-opacity:1"
           id="rect93-9"
           width="3.9999998"
           height="0.99999589"
           x="315.10168"
           y="-170.96732" />
      </g>
      <g
         id="toolbutton-hover-topleft"
         transform="translate(-333.10173,947.55229)">
        <path
           id="path89395"
           style="fill:#181b1e;fill-opacity:1;stroke-width:2.5;stroke-linecap:round;stroke-linejoin:round;stroke-opacity:0.904689"
           d="m 315.10171,168.96731 a 4,4 0 0 0 -2.82812,1.17188 4,4 0 0 0 -1.17188,2.82812 h 1 a 3,3 0 0 1 3,-3 z" />
        <path
           style="fill:url(#linearGradient2);fill-opacity:1;stroke-width:2.16506;stroke-linecap:round;stroke-linejoin:round;stroke-opacity:0.904689"
           id="path89399"
           sodipodi:type="arc"
           sodipodi:cx="315.10172"
           sodipodi:cy="172.96733"
           sodipodi:rx="3"
           sodipodi:ry="3"
           sodipodi:start="3.1415927"
           sodipodi:end="4.712389"
           sodipodi:arc-type="slice"
           d="m 312.10172,172.96733 a 3,3 0 0 1 3,-3 v 3 z" />
        <path
           id="path96"
           style="opacity:0.2;fill:#ffffff;fill-opacity:1;stroke-width:2.16506;stroke-linecap:round;stroke-linejoin:round;stroke-opacity:0.904689"
           d="m 315.1017,169.96731 a 3,3 0 0 0 -3,3 h 0.99023 a 2.0100508,2.0000026 0 0 1 2.00977,-2 z" />
      </g>
      <g
         id="toolbutton-hover-topright"
         transform="matrix(-1,0,0,1,311.10171,947.55229)">
        <path
           id="path98"
           style="fill:#181b1e;fill-opacity:1;stroke-width:2.5;stroke-linecap:round;stroke-linejoin:round;stroke-opacity:0.904689"
           d="m 315.10171,168.96731 a 4,4 0 0 0 -2.82812,1.17188 4,4 0 0 0 -1.17188,2.82812 h 1 a 3,3 0 0 1 3,-3 z" />
        <path
           style="fill:url(#linearGradient1);fill-opacity:1;stroke-width:2.16506;stroke-linecap:round;stroke-linejoin:round;stroke-opacity:0.904689"
           id="path99"
           sodipodi:type="arc"
           sodipodi:cx="315.10172"
           sodipodi:cy="172.96733"
           sodipodi:rx="3"
           sodipodi:ry="3"
           sodipodi:start="3.1415927"
           sodipodi:end="4.712389"
           sodipodi:arc-type="slice"
           d="m 312.10172,172.96733 a 3,3 0 0 1 3,-3 v 3 z" />
        <path
           id="path100"
           style="opacity:0.2;fill:#ffffff;fill-opacity:1;stroke-width:2.16506;stroke-linecap:round;stroke-linejoin:round;stroke-opacity:0.904689"
           d="m 315.1017,169.96731 a 3,3 0 0 0 -3,3 h 0.99023 a 2.0100508,2.0000026 0 0 1 2.00977,-2 z" />
      </g>
      <g
         id="toolbutton-hover-bottomleft"
         transform="matrix(1,0,0,-1,-333.09194,1307.4869)">
        <path
           id="path101"
           style="fill:#181b1e;fill-opacity:1;stroke-width:2.5;stroke-linecap:round;stroke-linejoin:round;stroke-opacity:0.904689"
           d="m 315.10171,168.96731 a 4,4 0 0 0 -2.82812,1.17188 4,4 0 0 0 -1.17188,2.82812 h 1 a 3,3 0 0 1 3,-3 z" />
        <path
           style="fill:url(#linearGradient4);fill-opacity:1;stroke-width:2.16506;stroke-linecap:round;stroke-linejoin:round;stroke-opacity:0.904689"
           id="path102"
           sodipodi:type="arc"
           sodipodi:cx="315.10172"
           sodipodi:cy="172.96733"
           sodipodi:rx="3"
           sodipodi:ry="3"
           sodipodi:start="3.1415927"
           sodipodi:end="4.712389"
           sodipodi:arc-type="slice"
           d="m 312.10172,172.96733 a 3,3 0 0 1 3,-3 v 3 z" />
        <path
           id="path103"
           style="opacity:0.2;fill:#ffffff;fill-opacity:1;stroke-width:2.16506;stroke-linecap:round;stroke-linejoin:round;stroke-opacity:0.904689"
           d="m 315.1017,169.96731 a 3,3 0 0 0 -3,3 h 0.99023 a 2.0100508,2.0000026 0 0 1 2.00977,-2 z" />
      </g>
      <g
         id="toolbutton-hover-bottomright"
         transform="rotate(180,155.54595,653.74347)">
        <path
           id="path104"
           style="fill:#181b1e;fill-opacity:1;stroke-width:2.5;stroke-linecap:round;stroke-linejoin:round;stroke-opacity:0.904689"
           d="m 315.10171,168.96731 a 4,4 0 0 0 -2.82812,1.17188 4,4 0 0 0 -1.17188,2.82812 h 1 a 3,3 0 0 1 3,-3 z" />
        <path
           style="fill:url(#linearGradient3);fill-opacity:1;stroke-width:2.16506;stroke-linecap:round;stroke-linejoin:round;stroke-opacity:0.904689"
           id="path105"
           sodipodi:type="arc"
           sodipodi:cx="315.10172"
           sodipodi:cy="172.96733"
           sodipodi:rx="3"
           sodipodi:ry="3"
           sodipodi:start="3.1415927"
           sodipodi:end="4.712389"
           sodipodi:arc-type="slice"
           d="m 312.10172,172.96733 a 3,3 0 0 1 3,-3 v 3 z" />
        <path
           id="path106"
           style="opacity:0.2;fill:#ffffff;fill-opacity:1;stroke-width:2.16506;stroke-linecap:round;stroke-linejoin:round;stroke-opacity:0.904689"
           d="m 315.1017,169.96731 a 3,3 0 0 0 -3,3 h 0.99023 a 2.0100508,2.0000026 0 0 1 2.00977,-2 z" />
      </g>
      <path
         id="path12"
         d="m -11.634318,1120.5196 -0.511332,2.0481 a 5.091859,5.0917281 0 0 0 -1.544935,0.6344 l -1.80744,-1.084 -0.899616,0.901 1.085557,1.8086 a 5.091859,5.0917281 0 0 0 -0.63985,1.5408 L -18,1126.8811 v 1.273 l 2.048066,0.5114 a 5.091859,5.0917281 0 0 0 0.633013,1.5446 l -1.084189,1.8076 0.900982,0.8995 1.807441,-1.0842 a 5.091859,5.0917281 0 0 0 1.543569,0.6413 l 0.511331,2.0453 h 1.272863 l 0.5113337,-2.0426 a 5.091859,5.0917281 0 0 0 1.5490377,-0.6372 l 1.8047019,1.083 0.8996183,-0.9025 -1.0828222,-1.8033 a 5.091859,5.0917281 0 0 0 0.6425838,-1.5476 l 2.0425967,-0.5112 v -1.273 l -2.0425967,-0.5099 a 5.091859,5.0917281 0 0 0 -0.6371146,-1.5489 l 1.0814546,-1.8045 -0.9009838,-0.8998 -1.8060721,1.0842 a 5.091859,5.0917281 0 0 0 -1.5449366,-0.6399 l -0.5113317,-2.0468 z m 0.634381,3.5001 a 3.5000312,3.4999412 0 0 1 3.500031,3.5 3.5000312,3.4999412 0 0 1 -3.500031,3.4999 3.5000312,3.4999412 0 0 1 -3.500032,-3.4999 3.5000312,3.4999412 0 0 1 3.500032,-3.5 z"
         style="fill:#e6e6e6;fill-opacity:1;stroke:#2a2f3c;stroke-width:1.5;stroke-linecap:round;stroke-linejoin:round;stroke-miterlimit:4;stroke-dasharray:none;stroke-opacity:1"
         inkscape:connector-curvature="0" />
      <path
         id="path8"
         d="m -11.634318,1120.5196 -0.511332,2.0481 a 5.091859,5.0917281 0 0 0 -1.544935,0.6344 l -1.80744,-1.084 -0.899616,0.901 1.085557,1.8086 a 5.091859,5.0917281 0 0 0 -0.63985,1.5408 L -18,1126.8811 v 1.273 l 2.048066,0.5114 a 5.091859,5.0917281 0 0 0 0.633013,1.5446 l -1.084189,1.8076 0.900982,0.8995 1.807441,-1.0842 a 5.091859,5.0917281 0 0 0 1.543569,0.6413 l 0.511331,2.0453 h 1.272863 l 0.5113337,-2.0426 a 5.091859,5.0917281 0 0 0 1.5490377,-0.6372 l 1.8047019,1.083 0.8996183,-0.9025 -1.0828222,-1.8033 a 5.091859,5.0917281 0 0 0 0.6425838,-1.5476 l 2.0425967,-0.5112 v -1.273 l -2.0425967,-0.5099 a 5.091859,5.0917281 0 0 0 -0.6371146,-1.5489 l 1.0814546,-1.8045 -0.9009838,-0.8998 -1.8060721,1.0842 a 5.091859,5.0917281 0 0 0 -1.5449366,-0.6399 l -0.5113317,-2.0468 z m 0.634381,3.5001 a 3.5000312,3.4999412 0 0 1 3.500031,3.5 3.5000312,3.4999412 0 0 1 -3.500031,3.4999 3.5000312,3.4999412 0 0 1 -3.500032,-3.4999 3.5000312,3.4999412 0 0 1 3.500032,-3.5 z"
         style="fill:#e6e6e6;fill-opacity:1;stroke:none;stroke-width:1;stroke-linecap:round;stroke-linejoin:round;stroke-miterlimit:4;stroke-dasharray:none;stroke-opacity:1"
         inkscape:connector-curvature="0" />
    </g>
  </g>
</svg>
