<?xml version="1.0" encoding="UTF-8" standalone="no"?>
<!-- Created with Inkscape (http://www.inkscape.org/) -->

<svg
   xmlns:dc="http://purl.org/dc/elements/1.1/"
   xmlns:cc="http://creativecommons.org/ns#"
   xmlns:rdf="http://www.w3.org/1999/02/22-rdf-syntax-ns#"
   xmlns:svg="http://www.w3.org/2000/svg"
   xmlns="http://www.w3.org/2000/svg"
   xmlns:sodipodi="http://sodipodi.sourceforge.net/DTD/sodipodi-0.dtd"
   xmlns:inkscape="http://www.inkscape.org/namespaces/inkscape"
   width="104"
   height="104"
   viewBox="0 0 104 104"
   version="1.1"
   id="svg8"
   inkscape:version="0.92.5 (2060ec1f9f, 2020-04-08)"
   sodipodi:docname="gear2.svg">
  <defs
     id="defs2" />
  <style
     id="current-color-scheme"
     type="text/css">
      .ColorScheme-Text {
      }
      .ColorScheme-Background{
      }
      .ColorScheme-Highlight{
      }
      .ColorScheme-ViewText {
      }
      .ColorScheme-ViewBackground{
      }
      .ColorScheme-ViewHover {
      }
      .ColorScheme-ViewFocus{
      }
      .ColorScheme-ButtonText {
      }
      .ColorScheme-ButtonBackground{
      }
      .ColorScheme-ButtonHover {
      }
      .ColorScheme-ButtonFocus{
      }
    </style>
  <sodipodi:namedview
     id="base"
     pagecolor="#ffffff"
     bordercolor="#666666"
     borderopacity="1.0"
     inkscape:pageopacity="0.0"
     inkscape:pageshadow="2"
     inkscape:zoom="19.239197"
     inkscape:cx="86.809224"
     inkscape:cy="13.765314"
     inkscape:document-units="px"
     inkscape:current-layer="layer1"
     showgrid="true"
     units="px"
     inkscape:pagecheckerboard="true"
     inkscape:showpageshadow="false"
     inkscape:snap-bbox="true"
     inkscape:bbox-nodes="true"
     inkscape:snap-object-midpoints="true"
     inkscape:bbox-paths="true"
     showguides="true"
     inkscape:guide-bbox="true"
     fit-margin-top="4"
     fit-margin-left="4"
     fit-margin-right="4"
     fit-margin-bottom="4"
     inkscape:snap-nodes="false"
     inkscape:snap-others="false"
     inkscape:object-paths="true"
     inkscape:snap-intersection-paths="true">
    <inkscape:grid
       type="xygrid"
       id="grid834"
       originx="70"
       originy="52.999985" />
    <sodipodi:guide
       position="86.999998,5.9999836"
       orientation="1,0"
       id="guide2015"
       inkscape:locked="false" />
  </sodipodi:namedview>
  <metadata
     id="metadata5">
    <rdf:RDF>
      <cc:Work
         rdf:about="">
        <dc:format>image/svg+xml</dc:format>
        <dc:type
           rdf:resource="http://purl.org/dc/dcmitype/StillImage" />
        <dc:title />
      </cc:Work>
    </rdf:RDF>
  </metadata>
  <g
     inkscape:label="Layer 1"
     inkscape:groupmode="layer"
     id="layer1"
     transform="translate(70,-1071.5196)"
     style="display:inline">
    <g
       id="g3846"
       transform="matrix(4.200004,0,0,4.200004,217.20022,-3754.8673)"
       style="stroke-width:0.23809503">
      <path
         id="path2007"
         d="m -56.90625,1151.5196 -0.730469,2.9258 a 7.2740194,7.2740194 0 0 0 -2.207031,0.9062 l -2.582031,-1.5488 -1.285157,1.2871 1.550782,2.584 a 7.2740194,7.2740194 0 0 0 -0.914063,2.2012 L -66,1160.6075 v 1.8184 l 2.925781,0.7304 a 7.2740194,7.2740194 0 0 0 0.904297,2.2071 l -1.548828,2.582 1.287109,1.2851 2.582032,-1.5488 a 7.2740194,7.2740194 0 0 0 2.205078,0.916 l 0.730469,2.9219 h 1.818359 l 0.730469,-2.918 a 7.2740194,7.2740194 0 0 0 2.21289,-0.9101 l 2.578125,1.5469 1.285157,-1.2891 -1.546876,-2.5762 a 7.2740194,7.2740194 0 0 0 0.917969,-2.2109 L -46,1162.4317 v -1.8183 l -2.917969,-0.7286 a 7.2740194,7.2740194 0 0 0 -0.910156,-2.2129 l 1.544922,-2.5781 -1.287109,-1.2851 -2.580079,1.5488 a 7.2740194,7.2740194 0 0 0 -2.207031,-0.9141 l -0.730469,-2.9238 z m 0.90625,5 a 5,5 0 0 1 5,5 5,5 0 0 1 -5,5 5,5 0 0 1 -5,-5 5,5 0 0 1 5,-5 z"
         style="opacity:1;fill:#000000;fill-opacity:0.18039216;stroke:none;stroke-width:0.47619003;stroke-linecap:round;stroke-linejoin:round;stroke-miterlimit:4;stroke-dasharray:none;stroke-opacity:1"
         inkscape:connector-curvature="0" />
      <circle
         r="2.5"
         style="opacity:0.9;fill:#000000;fill-opacity:0.18039216;stroke:none;stroke-width:0.23809503;stroke-linecap:round;stroke-linejoin:round;stroke-miterlimit:4;stroke-dasharray:none;stroke-opacity:1"
         id="circle1868"
         cx="-56"
         cy="1161.5197" />
    </g>
  </g>
</svg>
